<svg width="17" height="16" viewBox="0 0 17 16" fill="none" xmlns="http://www.w3.org/2000/svg">
<g clip-path="url(#clip0_762_4954)">
<path d="M10.8579 11.8871H6.53125V4.11182H10.8579V11.8871Z" fill="#FF5F00"/>
<path d="M6.80665 8.00003C6.80599 7.25126 6.9757 6.51216 7.30291 5.83867C7.63013 5.16518 8.10628 4.57496 8.69531 4.1127C7.96588 3.53945 7.08989 3.18297 6.16745 3.084C5.24502 2.98504 4.31334 3.14758 3.47891 3.55304C2.64447 3.95851 1.94094 4.59054 1.4487 5.37692C0.956467 6.1633 0.695392 7.0723 0.695312 8.00003C0.695491 8.92765 0.956596 9.8365 1.4488 10.6228C1.941 11.409 2.64444 12.041 3.47876 12.4464C4.31308 12.8519 5.24462 13.0144 6.16695 12.9156C7.08928 12.8167 7.96521 12.4604 8.69465 11.8874C8.1058 11.425 7.62984 10.8347 7.30275 10.1612C6.97566 9.48776 6.80601 8.74873 6.80665 8.00003Z" fill="#EB001B"/>
<path d="M16.6953 8.00003C16.6952 8.92776 16.4342 9.83676 15.9419 10.6231C15.4497 11.4095 14.7462 12.0416 13.9117 12.447C13.0773 12.8525 12.1456 13.015 11.2232 12.9161C10.3007 12.8171 9.42474 12.4606 8.69531 11.8874C9.84531 10.982 10.584 9.57736 10.584 8.00003C10.584 6.4227 9.84531 5.01803 8.69531 4.1127C9.42474 3.53945 10.3007 3.18297 11.2232 3.084C12.1456 2.98504 13.0773 3.14758 13.9117 3.55304C14.7462 3.95851 15.4497 4.59054 15.9419 5.37692C16.4342 6.1633 16.6952 7.0723 16.6953 8.00003Z" fill="#F79E1B"/>
</g>
<defs>
<clipPath id="clip0_762_4954">
<rect width="16" height="16" fill="white" transform="translate(0.695312)"/>
</clipPath>
</defs>
</svg>
