<svg width="19" height="18" viewBox="0 0 19 18" fill="none" xmlns="http://www.w3.org/2000/svg">
<g clip-path="url(#clip0_762_4480)">
<path d="M10.686 10.2015C10.1213 10.2015 9.81164 10.1241 9.33611 9.92876L9.1599 9.8484L8.9601 11.0096C9.30367 11.1511 9.92297 11.2728 10.5637 11.2824C12.0684 11.2824 13.0519 10.5842 13.0637 9.50999C13.0755 8.91945 12.6877 8.47119 11.8686 8.10182C11.3717 7.86221 11.062 7.70149 11.062 7.45819C11.062 7.24291 11.3267 7.01362 11.8797 7.01362C12.2471 7.00478 12.6124 7.07231 12.9524 7.21194L13.0851 7.27092L13.2849 6.14881L13.2502 6.15618C12.8388 6.00849 12.4046 5.93437 11.9674 5.93721C10.5519 5.93721 9.55286 6.64056 9.54549 7.6484C9.53664 8.38935 10.2562 8.80664 10.7996 9.0551C11.3577 9.30946 11.5442 9.46944 11.5427 9.698C11.5391 10.0452 11.0967 10.2015 10.686 10.2015ZM16.924 6.03232H15.8181C15.4738 6.03232 15.2165 6.12448 15.0654 6.46214L12.9384 11.2101H14.4431L14.7439 10.433L16.5797 10.4345C16.6247 10.6159 16.7567 11.2101 16.7567 11.2101H18.083L16.924 6.03232ZM15.1561 9.37065L15.7267 7.9234C15.7193 7.93815 15.8447 7.62407 15.9169 7.42943L16.015 7.87622L16.346 9.37065H15.1561ZM6.61413 11.1688H8.04737L8.94315 5.98882H7.51064V5.98735L6.61413 11.1688ZM4.01822 9.56308L3.8693 8.84351V8.84572L3.36648 6.46731C3.28022 6.13775 3.02808 6.04043 2.71548 6.02863H0.407103L0.388672 6.13775C0.908443 6.2594 1.37661 6.4356 1.79537 6.65162C1.8604 6.68964 1.90802 6.75154 1.92808 6.82414L3.16668 11.2028H4.68102L6.93779 6.03232H5.41976L4.01822 9.56308Z" fill="#191E6E"/>
</g>
<defs>
<clipPath id="clip0_762_4480">
<rect width="17.6943" height="17.6943" fill="white" transform="translate(0.388672)"/>
</clipPath>
</defs>
</svg>
