<svg width="20" height="21" viewBox="0 0 20 21" fill="none" xmlns="http://www.w3.org/2000/svg">
<g id="Document Add 3">
<g id="Vector">
<path d="M11.75 8.70081C11.75 8.28659 11.4142 7.95081 11 7.95081C10.5858 7.95081 10.25 8.28659 10.25 8.70081V10.9508H8C7.58579 10.9508 7.25 11.2866 7.25 11.7008C7.25 12.115 7.58579 12.4508 8 12.4508H10.25V14.7008C10.25 15.115 10.5858 15.4508 11 15.4508C11.4142 15.4508 11.75 15.115 11.75 14.7008V12.4508H14C14.4142 12.4508 14.75 12.115 14.75 11.7008C14.75 11.2866 14.4142 10.9508 14 10.9508H11.75V8.70081Z" fill="black"/>
<path fill-rule="evenodd" clip-rule="evenodd" d="M17.3798 2.04896C16.5734 1.46313 15.6291 1.20081 14.4635 1.07453C13.3214 0.950791 11.8818 0.950798 10.0452 0.950806H9.98893C8.82888 0.950806 7.83152 0.950806 6.97432 0.980174C5.10087 1.04436 3.7239 1.2471 2.62024 2.04896C2.13209 2.40362 1.70281 2.8329 1.34815 3.32104C0.546295 4.4247 0.343555 5.80168 0.279369 7.67512C0.25 8.53234 0.25 9.52971 0.25 10.6898V10.7461C0.249992 12.5826 0.249985 14.0222 0.373728 15.1643C0.500006 16.3299 0.762323 17.2742 1.34815 18.0806C1.70281 18.5687 2.13209 18.998 2.62024 19.3527C3.42656 19.9385 4.37094 20.2008 5.53648 20.3271C6.67859 20.4508 8.11817 20.4508 9.95465 20.4508H10.0453C11.8818 20.4508 13.3214 20.4508 14.4635 20.3271C15.6291 20.2008 16.5734 19.9385 17.3798 19.3527C17.8679 18.998 18.2972 18.5687 18.6518 18.0806C19.2377 17.2742 19.5 16.3299 19.6263 15.1643C19.75 14.0222 19.75 12.5826 19.75 10.7462V10.6555C19.75 8.81904 19.75 7.3794 19.6263 6.23728C19.5 5.07174 19.2377 4.12736 18.6518 3.32104C18.2972 2.8329 17.8679 2.40362 17.3798 2.04896ZM10 2.45081C11.8916 2.45081 13.25 2.45184 14.302 2.56581C15.3399 2.67826 15.9901 2.8934 16.4981 3.26248C16.8589 3.52462 17.1762 3.84192 17.4383 4.20272C17.8074 4.71072 18.0225 5.36094 18.135 6.39885C18.249 7.4508 18.25 8.80923 18.25 10.7008C18.25 12.5924 18.249 13.9508 18.135 15.0028C18.0225 16.0407 17.8074 16.6909 17.4383 17.1989C17.1762 17.5597 16.8589 17.877 16.4981 18.1391C15.9901 18.5082 15.3399 18.7234 14.302 18.8358C13.25 18.9498 11.8916 18.9508 10 18.9508C8.10843 18.9508 6.74999 18.9498 5.69804 18.8358C4.66013 18.7234 4.00992 18.5082 3.50191 18.1391C3.14111 17.877 2.82382 17.5597 2.56168 17.1989C2.19259 16.6909 1.97745 16.0407 1.865 15.0028C1.75103 13.9508 1.75 12.5924 1.75 10.7008C1.75 9.85246 1.75005 9.10902 1.76082 8.44898C2.23547 8.44461 2.58489 8.42984 2.8995 8.38001C5.35988 7.99033 7.28952 6.06069 7.67921 3.6003C7.72904 3.2857 7.74381 2.93627 7.74818 2.46162C8.40822 2.45086 9.15165 2.45081 10 2.45081ZM2.66485 6.89848C2.45981 6.93096 2.22239 6.94334 1.81744 6.94802C1.91121 5.58768 2.12615 4.80217 2.56168 4.20272C2.82382 3.84192 3.14111 3.52462 3.50191 3.26248C4.10137 2.82696 4.88688 2.61202 6.24722 2.51825C6.24254 2.92319 6.23015 3.16062 6.19768 3.36565C5.90965 5.1842 4.48339 6.61045 2.66485 6.89848Z" fill="black"/>
</g>
</g>
</svg>
