<svg width="20" height="20" viewBox="0 0 20 20" fill="none" xmlns="http://www.w3.org/2000/svg">
<g clip-path="url(#clip0_634_2900)">
<path fill-rule="evenodd" clip-rule="evenodd" d="M1.43972 1.51505C1.35599 1.18018 1.01666 0.97659 0.681786 1.06032C0.346916 1.14404 0.143323 1.48338 0.227049 1.81825L1.10359 5.32406L1.91926 8.72738C2.26609 10.1745 2.53909 11.3136 2.86304 12.1985C3.19534 13.1062 3.60285 13.8109 4.25666 14.3513C4.31308 14.3979 4.37057 14.4433 4.42907 14.4873C5.10695 14.9971 5.88721 15.2292 6.84737 15.3408C7.78339 15.4496 8.9547 15.4496 10.4428 15.4495H10.9374C12.2249 15.4496 13.2385 15.4496 14.055 15.367C14.8913 15.2824 15.5794 15.1069 16.1987 14.7192C16.4924 14.5353 16.7654 14.32 17.0127 14.0772C17.595 13.5056 17.9405 12.7877 18.2379 11.8569C18.4567 11.1723 18.6605 10.3346 18.9057 9.31244L18.9666 9.05833C19.1476 8.30339 19.2967 7.68117 19.3543 7.1771C19.4141 6.65394 19.3897 6.1558 19.1286 5.70098C19.0169 5.50645 18.8772 5.32937 18.7141 5.17542C18.3327 4.81545 17.8539 4.67562 17.3312 4.61184C16.8276 4.55039 16.1878 4.5504 15.4114 4.55042L2.19864 4.55042L1.43972 1.51505ZM3.12558 8.39744L2.50316 5.80042H15.3709C16.198 5.80042 16.7609 5.80152 17.1798 5.85264C17.5884 5.90249 17.7559 5.98993 17.8562 6.08451C17.9303 6.15449 17.9938 6.23498 18.0446 6.3234C18.1132 6.4429 18.1592 6.62619 18.1124 7.03514C18.0699 7.40671 17.9629 7.87915 17.8049 8.54165L11.6668 8.54165C11.3216 8.54165 11.0418 8.82147 11.0418 9.16665C11.0418 9.51183 11.3216 9.79165 11.6668 9.79165H17.5037C17.3879 10.2638 17.2824 10.6764 17.1782 11.0417H14.1668C13.8216 11.0417 13.5418 11.3215 13.5418 11.6667C13.5418 12.0118 13.8216 12.2917 14.1668 12.2917H16.7391C16.5616 12.6773 16.3698 12.9567 16.137 13.1852C15.9542 13.3647 15.7525 13.5238 15.5354 13.6597C15.1403 13.9071 14.663 14.0491 13.9292 14.1233C13.1829 14.1988 12.2324 14.1995 10.9032 14.1995H10.4826C8.94605 14.1995 7.84723 14.1986 6.99168 14.0991C6.15194 14.0015 5.61505 13.8152 5.18044 13.4883C5.13719 13.4558 5.09471 13.4223 5.053 13.3878C4.63382 13.0413 4.32748 12.5627 4.03685 11.7688C3.74076 10.96 3.4837 9.89166 3.12558 8.39744Z" fill="#2D264B"/>
<path d="M8.7282 17.4561C8.7282 17.9406 8.33546 18.3333 7.851 18.3333C7.36654 18.3333 6.97381 17.9406 6.97381 17.4561C6.97381 16.9717 7.36654 16.5789 7.851 16.5789C8.33546 16.5789 8.7282 16.9717 8.7282 17.4561Z" fill="#2D264B"/>
<path d="M13.9914 17.4561C13.9914 17.9406 13.5986 18.3333 13.1142 18.3333C12.6297 18.3333 12.237 17.9406 12.237 17.4561C12.237 16.9717 12.6297 16.5789 13.1142 16.5789C13.5986 16.5789 13.9914 16.9717 13.9914 17.4561Z" fill="#2D264B"/>
<path d="M12.9167 2.41585H10.4167V4.91585H9.58333V2.41585H7.08333V1.58252H9.58333V-0.91748H10.4167V1.58252H12.9167V2.41585Z" fill="#2D264B"/>
</g>
<defs>
<clipPath id="clip0_634_2900">
<rect width="20" height="20" fill="white"/>
</clipPath>
</defs>
</svg>
