<svg width="20" height="23" viewBox="0 0 20 23" fill="none" xmlns="http://www.w3.org/2000/svg">
<path d="M3.06107 20.5451L3.50191 19.9383L3.06107 20.5451ZM1.95491 19.4389L2.56168 18.9981L1.95491 19.4389ZM18.0451 19.4389L17.4383 18.9981L18.0451 19.4389ZM16.9389 20.5451L16.4981 19.9383L16.9389 20.5451ZM16.9389 2.45491L16.4981 3.06168L16.9389 2.45491ZM18.0451 3.56107L17.4383 4.00191L18.0451 3.56107ZM3.06107 2.45491L3.50191 3.06168L3.06107 2.45491ZM1.95491 3.56107L2.56168 4.00191L1.95491 3.56107ZM6 14.75C5.58579 14.75 5.25 15.0858 5.25 15.5C5.25 15.9142 5.58579 16.25 6 16.25V14.75ZM14 16.25C14.4142 16.25 14.75 15.9142 14.75 15.5C14.75 15.0858 14.4142 14.75 14 14.75V16.25ZM6 10.75C5.58579 10.75 5.25 11.0858 5.25 11.5C5.25 11.9142 5.58579 12.25 6 12.25V10.75ZM14 12.25C14.4142 12.25 14.75 11.9142 14.75 11.5C14.75 11.0858 14.4142 10.75 14 10.75V12.25ZM11 6.75C10.5858 6.75 10.25 7.08579 10.25 7.5C10.25 7.91421 10.5858 8.25 11 8.25V6.75ZM14 8.25C14.4142 8.25 14.75 7.91421 14.75 7.5C14.75 7.08579 14.4142 6.75 14 6.75V8.25ZM18.25 10.5V12.5H19.75V10.5H18.25ZM1.75 12.5V10.5H0.25V12.5H1.75ZM10 20.75C8.10843 20.75 6.74999 20.749 5.69804 20.635C4.66013 20.5225 4.00992 20.3074 3.50191 19.9383L2.62023 21.1518C3.42656 21.7377 4.37094 22 5.53648 22.1263C6.68798 22.251 8.14184 22.25 10 22.25V20.75ZM0.25 12.5C0.25 14.3582 0.248971 15.812 0.373728 16.9635C0.500006 18.1291 0.762324 19.0734 1.34815 19.8798L2.56168 18.9981C2.19259 18.4901 1.97745 17.8399 1.865 16.802C1.75103 15.75 1.75 14.3916 1.75 12.5H0.25ZM3.50191 19.9383C3.14111 19.6762 2.82382 19.3589 2.56168 18.9981L1.34815 19.8798C1.70281 20.3679 2.13209 20.7972 2.62023 21.1518L3.50191 19.9383ZM18.25 12.5C18.25 14.3916 18.249 15.75 18.135 16.802C18.0225 17.8399 17.8074 18.4901 17.4383 18.9981L18.6518 19.8798C19.2377 19.0734 19.5 18.1291 19.6263 16.9635C19.751 15.812 19.75 14.3582 19.75 12.5H18.25ZM10 22.25C11.8582 22.25 13.312 22.251 14.4635 22.1263C15.6291 22 16.5734 21.7377 17.3798 21.1518L16.4981 19.9383C15.9901 20.3074 15.3399 20.5225 14.302 20.635C13.25 20.749 11.8916 20.75 10 20.75V22.25ZM17.4383 18.9981C17.1762 19.3589 16.8589 19.6762 16.4981 19.9383L17.3798 21.1518C17.8679 20.7972 18.2972 20.3679 18.6518 19.8798L17.4383 18.9981ZM10 2.25C11.8916 2.25 13.25 2.25103 14.302 2.365C15.3399 2.47745 15.9901 2.69259 16.4981 3.06168L17.3798 1.84815C16.5734 1.26232 15.6291 1.00001 14.4635 0.873728C13.312 0.748971 11.8582 0.75 10 0.75V2.25ZM19.75 10.5C19.75 8.64184 19.751 7.18798 19.6263 6.03648C19.5 4.87094 19.2377 3.92656 18.6518 3.12023L17.4383 4.00191C17.8074 4.50992 18.0225 5.16013 18.135 6.19804C18.249 7.24999 18.25 8.60843 18.25 10.5H19.75ZM16.4981 3.06168C16.8589 3.32382 17.1762 3.64111 17.4383 4.00191L18.6518 3.12023C18.2972 2.63209 17.8679 2.20281 17.3798 1.84815L16.4981 3.06168ZM10 0.75C8.14184 0.75 6.68798 0.748971 5.53648 0.873728C4.37094 1.00001 3.42656 1.26232 2.62023 1.84815L3.50191 3.06168C4.00992 2.69259 4.66013 2.47745 5.69804 2.365C6.74999 2.25103 8.10843 2.25 10 2.25V0.75ZM1.75 10.5C1.75 8.60843 1.75103 7.24999 1.865 6.19804C1.97745 5.16013 2.19259 4.50992 2.56168 4.00191L1.34815 3.12023C0.762324 3.92656 0.500006 4.87094 0.373728 6.03648C0.248971 7.18798 0.25 8.64184 0.25 10.5H1.75ZM2.62023 1.84815C2.13209 2.20281 1.70281 2.63209 1.34815 3.12023L2.56168 4.00191C2.82382 3.64111 3.14111 3.32382 3.50191 3.06168L2.62023 1.84815ZM6 16.25H14V14.75H6V16.25ZM6 12.25H14V10.75H6V12.25ZM11 8.25H14V6.75H11V8.25Z" fill="black"/>
</svg>
