<svg width="142" height="59" viewBox="0 0 142 59" fill="none" xmlns="http://www.w3.org/2000/svg">
<g id="Group">
<g id="Group_2">
<path id="Vector" d="M83.9869 47.8832C84.1061 47.7946 84.2283 47.7121 84.3566 47.6357C84.2344 47.7213 84.1122 47.8038 83.9869 47.8832Z" fill="white"/>
<g id="Group_3">
<g id="Group_4">
<path id="Vector_2" d="M58.8158 28.2966C58.993 28.318 59.1549 28.3913 59.2863 28.5227C59.1274 28.4494 58.9716 28.373 58.8158 28.2966Z" fill="url(#paint0_linear_45_15363)"/>
<path id="Vector_3" d="M54.0895 31.4251C54.557 31.4251 54.7983 31.5503 55.0061 31.7886C55.1436 31.9475 55.3421 32.0514 55.5102 32.1858C55.721 32.3569 55.8829 32.5463 55.8798 32.8488C55.8737 33.3834 55.4399 33.7592 54.9114 33.6737C54.6364 33.6278 54.3889 33.5362 54.1781 33.3468C54.0193 33.2032 53.8329 33.0901 53.6679 32.9557C53.3135 32.6624 53.2127 32.3447 53.3502 31.9933C53.4968 31.6115 53.7932 31.422 54.0895 31.4251Z" fill="url(#paint1_linear_45_15363)"/>
<path id="Vector_4" d="M54.0742 35.5129C53.8665 35.4151 53.6465 35.3357 53.451 35.2165C53.1669 35.0393 52.8583 34.8743 52.6414 34.633C52.3206 34.2755 52.452 33.8417 52.788 33.4782C53.063 33.1818 53.4693 33.1849 53.8207 33.4446C54.062 33.6218 54.3125 33.7928 54.557 33.967C54.8594 34.1808 54.9969 34.5413 54.893 34.8682C54.7678 35.2715 54.5142 35.4609 54.0987 35.4609C54.0926 35.4762 54.0834 35.4945 54.0742 35.5129Z" fill="url(#paint2_linear_45_15363)"/>
<path id="Vector_5" d="M51.8868 35.8396C51.8898 35.3477 52.4367 34.9872 52.8583 35.2194C53.1608 35.3874 53.4357 35.6165 53.6985 35.8457C53.9001 36.0229 53.9704 36.2826 53.8573 36.5331C53.729 36.8142 53.448 36.9333 53.1699 36.9425C52.6139 36.9638 51.9907 36.585 51.8959 35.9496C51.8868 35.9098 51.8868 35.8671 51.8868 35.8396Z" fill="url(#paint3_linear_45_15363)"/>
<path id="Vector_6" d="M54.4225 30.3803C54.4072 29.7387 54.9235 29.3935 55.6201 29.6837C55.782 29.7509 55.9134 29.8854 56.057 29.9923C56.1578 30.0687 56.1639 30.1634 56.0723 30.2489C55.7637 30.5361 55.4551 30.8233 55.1405 31.1043C55.0121 31.2174 54.8838 31.1807 54.7555 31.0769C54.5203 30.8844 54.4011 30.6491 54.4225 30.3803Z" fill="url(#paint4_linear_45_15363)"/>
</g>
<path id="Vector_7" d="M90.8457 51.323C90.8457 52.7925 90.1063 54.0909 88.979 54.8639C88.9179 54.9036 88.8599 54.9402 88.7988 54.98C88.7896 54.9891 88.7774 54.9952 88.7621 55.0014C84.2802 57.8946 78.7444 59.2663 73.514 58.5361C66.4689 57.5524 60.0287 52.9483 56.8208 46.6028C57.163 46.4164 57.5082 46.2301 57.8504 46.0437C57.9665 45.9826 58.0917 45.9062 58.1284 45.781C58.1589 45.671 58.1131 45.5579 58.0642 45.4571C57.6732 44.6414 57.0744 43.9235 56.3411 43.3949C57.0407 43.0252 57.7404 42.6525 58.44 42.2829C58.55 42.4448 58.6569 42.6067 58.7638 42.7717C59.3413 40.8286 61.1316 39.3163 61.2935 37.2938C61.3393 36.7042 61.3515 35.9374 61.9137 35.751C61.266 35.4547 60.5908 35.1369 60.1539 34.5748C59.8759 34.2143 59.4237 32.8059 60.1692 32.6409C60.4869 32.5706 61.2141 33.1022 61.5012 33.2397C61.9809 33.4719 62.4605 33.7041 62.9433 33.9363C63.1479 34.034 63.3618 34.141 63.4901 34.3304C63.6215 34.5228 63.6368 34.7642 63.652 34.9964C63.6856 35.5555 63.7193 36.1115 63.7529 36.6706C63.817 37.7307 63.5207 38.3448 62.9982 39.2522C62.2772 40.4987 62.3078 42.1454 63.0746 43.3644C62.7111 43.6363 62.3475 43.9082 61.9839 44.1831C62.8821 43.8043 63.7804 43.4224 64.6786 43.0436C66.7255 46.7983 70.6452 49.4716 74.8888 50.0062C78.0447 50.4034 81.3168 49.609 83.9839 47.886H83.9869C84.1122 47.8065 84.2344 47.724 84.3566 47.6385C84.9982 47.2535 85.7528 47.0305 86.5563 47.0305C87.2406 47.0305 87.8853 47.1894 88.4596 47.4766C89.1471 47.8157 89.7275 48.332 90.143 48.9675C90.5891 49.6457 90.8457 50.4553 90.8457 51.323Z" fill="url(#paint5_linear_45_15363)"/>
</g>
<path id="Vector_8" d="M90.8457 21.8505C90.8457 24.2213 88.8904 26.1429 86.483 26.1429C85.7742 26.1429 85.1082 25.978 84.5186 25.6816C84.2375 25.48 83.9472 25.2875 83.6478 25.1103C80.9013 23.4514 77.5681 22.7579 74.3969 23.2681C70.135 23.9555 66.2825 26.809 64.3761 30.6798C63.9331 30.4996 63.4901 30.3193 63.0441 30.139C62.3078 30.9975 62.4881 32.2868 62.7111 33.3989C62.1764 32.9253 61.6112 32.4396 60.9177 32.2899C60.2242 32.1402 59.3688 32.4701 59.1977 33.1606C58.9166 34.2971 60.4961 35.0242 60.7986 36.1546C60.8902 36.4968 60.8566 36.8603 60.7986 37.2117C60.3647 39.8207 58.4736 42.1396 56.002 43.0897C55.7576 43.1814 55.4857 43.2639 55.2413 43.1783C54.7403 42.9981 54.7219 42.2343 55.0641 41.8249C55.4063 41.4155 55.947 41.2414 56.4206 40.9939C56.8941 40.7464 57.3646 40.3248 57.3432 39.7932C56.5336 40.3707 55.7271 40.9511 54.9205 41.5285C54.7189 41.6721 54.502 41.8218 54.2576 41.8188C53.6924 41.8157 53.4663 40.997 53.7626 40.5142C54.059 40.0315 54.6242 39.8085 55.1283 39.5488C55.6293 39.2922 56.1548 38.895 56.1975 38.3298C55.4399 38.8248 54.6822 39.3166 53.9245 39.8085C53.7718 39.9093 53.6099 40.0102 53.4266 40.0254C52.9102 40.0621 52.6383 39.338 52.8675 38.8767C53.0966 38.4154 53.5976 38.1679 54.0498 37.9174C54.502 37.6669 54.9724 37.3186 55.0519 36.8114C54.5295 37.1506 54.004 37.4897 53.4815 37.8257C53.2463 37.9785 52.9866 38.1374 52.7086 38.116C52.4306 38.0946 52.1617 37.7982 52.2809 37.5447C52.4398 37.2117 52.9286 37.3644 53.2952 37.3827C54.0009 37.4194 54.5997 36.5945 54.3461 35.9346C55.1069 35.8399 55.5987 34.8623 55.226 34.1932C55.834 34.0771 56.332 33.5241 56.387 32.907C56.442 32.2899 56.0448 31.6605 55.4643 31.4405C56.0234 31.1167 56.5 30.6523 56.8422 30.1085C57.1446 29.6258 57.3524 29.0728 57.7587 28.6756C58.0337 28.4068 58.4522 28.2479 58.8189 28.2968C58.9747 28.3732 59.1335 28.4496 59.2893 28.5229C59.161 28.3885 58.996 28.3182 58.8189 28.2968C58.1803 27.9852 57.5418 27.6736 56.9002 27.3619C56.7964 27.31 56.6803 27.2489 56.6497 27.1359C56.6192 27.035 56.668 26.9281 56.7169 26.8334C58.8677 22.6143 62.3261 19.165 66.5055 16.9623C70.5078 14.8543 75.1821 14.0355 79.6609 14.671C82.8932 15.1292 86.0125 16.3421 88.7224 18.1599C88.9118 18.2882 89.1012 18.4196 89.2876 18.554C90.2377 19.3453 90.8457 20.5276 90.8457 21.8505Z" fill="url(#paint6_linear_45_15363)"/>
<path id="Vector_9" d="M83.6478 25.1104C83.9442 25.2906 84.2344 25.48 84.5185 25.6817C84.2039 25.5258 83.9136 25.3364 83.6478 25.1104Z" fill="white"/>
</g>
<g id="Group_5">
<g id="Group_6">
<path id="Vector_10" d="M18.0513 10.638C18.0513 13.1035 20.0493 15.1015 22.5148 15.1015H34.9492C35.3036 15.1657 35.4105 15.3765 35.4105 15.8622C35.386 22.8524 35.2883 36.7654 35.3708 36.8295C38.4717 39.237 44.3101 40.676 44.3101 40.676V40.1871C44.3039 32.1369 44.3009 24.0866 44.2948 16.0333C44.2948 15.3245 44.2948 15.1473 44.7072 15.1015H57.0835C59.6101 15.1015 61.657 13.0546 61.657 10.528C61.657 8.12666 59.7079 6.17749 57.3065 6.17749H22.5118C20.0493 6.17749 18.0513 8.17554 18.0513 10.638Z" fill="url(#paint7_linear_45_15363)"/>
<path id="Vector_11" d="M40.1215 58.5517C42.4098 58.5517 44.2643 56.7003 44.2734 54.4151C44.2826 51.6593 44.2887 45.6041 44.2887 45.6041C44.1696 45.5705 41.6521 45.4269 35.4502 43.0011C35.3311 42.9553 35.4502 53.8804 35.4502 53.8804C35.4502 56.462 37.543 58.5517 40.1215 58.5517Z" fill="url(#paint8_linear_45_15363)"/>
</g>
<g id="Group_7">
<path id="Vector_12" d="M49.8612 38.5345C50.0689 38.8584 50.3042 39.1639 50.4813 39.5152C50.8571 40.2637 50.7349 40.9786 50.0842 41.2902C49.3907 41.6232 48.6513 41.8768 47.9151 41.9868C45.3976 42.3687 42.9108 41.9226 40.4575 41.2841C32.6547 39.2525 25.5271 35.3297 19.2855 28.9231C16.8933 26.4668 14.5409 23.9616 12.3992 21.1478C12.3198 21.0409 12.2434 20.9309 12.0846 20.7109C14.6875 20.7934 17.1988 20.8759 19.7132 20.9553C19.7285 20.9034 19.7438 20.8484 19.759 20.7965C18.8975 19.7852 18.3231 18.4471 16.9728 18.0591C14.2751 17.28 11.6171 16.2657 8.94084 15.3706C8.35731 15.175 7.89599 14.8268 7.47744 14.2554C6.16374 12.4682 4.77365 10.7726 3.06584 9.59639C2.48842 9.19922 1.84378 8.91509 1.20526 8.70429C0.502584 8.4721 0.0870938 9.02508 0.35289 9.88357C0.633961 10.7787 0.96697 11.7166 1.47107 12.4102C3.07501 14.6221 4.72782 16.7881 6.43869 18.8687C10.444 23.7508 14.9655 27.7835 19.5727 31.6788C22.0229 33.7502 24.522 35.6932 27.1738 37.3216C30.455 39.3349 33.9287 40.615 37.4421 41.7363C40.4117 42.6834 43.4362 43.2699 46.5066 43.1264C47.7134 43.0683 48.9385 42.8361 50.1025 42.439C51.624 41.9196 51.8042 40.7678 50.6952 39.3472C50.4508 39.0325 50.1697 38.7636 49.9039 38.4734C49.8948 38.4948 49.8795 38.5162 49.8612 38.5345Z" fill="url(#paint9_linear_45_15363)"/>
<path id="Vector_13" d="M3.73187 16.8521C4.20542 18.8959 4.78589 20.8115 5.0639 22.7729C5.29304 24.3799 6.19125 25.4003 7.33081 26.3413C7.36136 26.3657 7.40719 26.3718 7.58133 26.4421C7.66993 25.7761 7.67603 25.1162 7.85323 24.5021C8.29928 22.9592 7.9846 21.7616 6.76255 20.619C5.72075 19.6475 4.95087 18.3827 4.05877 17.2492C3.97628 17.1423 3.88768 17.0384 3.73187 16.8521Z" fill="url(#paint10_linear_45_15363)"/>
<path id="Vector_14" d="M20.8497 26.2711C20.205 25.5074 19.7559 24.8902 18.8272 24.7161C17.6937 24.5022 16.6 24.0837 15.3107 23.6987C16.3006 24.7161 17.1835 25.6326 18.0817 26.5308C18.1673 26.6164 18.3628 26.6408 18.4972 26.6225C19.2274 26.5247 19.9515 26.4086 20.8497 26.2711Z" fill="url(#paint11_linear_45_15363)"/>
</g>
</g>
<g id="Group_8">
<path id="Vector_15" d="M134.558 19.1892C134.537 19.3083 134.506 19.4672 134.473 19.623C134.433 19.8124 134.329 19.9774 134.189 20.0935C134.045 20.2096 133.865 20.2768 133.672 20.2799C133.141 20.2829 132.744 19.7819 132.872 19.2656C132.903 19.1403 132.93 19.0181 132.948 18.9112C133.123 17.9091 133.19 16.9101 133.159 15.9324C133.141 15.2756 133.077 14.6279 132.97 13.9924L134.192 13.9955C134.338 13.9955 134.482 14.0016 134.629 14.0108C134.742 14.7623 134.803 15.5292 134.803 16.3052C134.806 17.2553 134.726 18.2207 134.558 19.1892Z" fill="#FBB03B"/>
<g id="Group_9">
<path id="Vector_16" d="M141.475 50.8648L141.539 21.3737C141.549 17.4539 138.49 14.243 134.629 14.0108C134.485 14.0017 134.338 13.9956 134.192 13.9956L132.97 13.9925L131.699 13.9894C128.47 13.9803 125.61 16.0822 124.654 19.1648L118.498 38.9681L112.983 20.0141C111.935 16.4152 108.642 13.9375 104.893 13.9314H104.417C104.252 13.9314 104.093 13.9345 103.931 13.9436C103.802 14.8021 103.815 15.905 103.879 16.9468C103.922 16.9468 103.964 16.9529 104.007 16.956C105.755 17.1484 107.016 18.7218 106.824 20.4663C106.632 22.2138 105.058 23.4756 103.314 23.2831C101.566 23.0907 100.304 21.5173 100.497 19.7728C100.622 18.6363 101.331 17.7075 102.29 17.2493C102.223 16.2319 102.199 15.1443 102.272 14.1972C98.6454 15.1382 95.963 18.4285 95.9569 22.3513L95.8958 51.5919C95.8928 52.6154 96.2686 53.5533 96.8857 54.2712C97.1484 52.6001 98.679 51.4147 100.378 51.6011C101.814 51.7599 102.923 52.8506 103.164 54.2071C103.659 53.6083 103.986 52.8659 104.074 52.0532C104.09 51.9066 104.099 51.7599 104.099 51.6102L104.67 32.7846L113.435 52.5176C114.01 54.4301 115.766 55.7408 117.761 55.7438C118.754 55.7469 119.689 55.423 120.45 54.8639C121.211 54.3049 121.797 53.5075 122.094 52.5604L132.191 32.8426L131.622 50.8434C131.619 52.4473 132.383 53.8741 133.565 54.7753C133.535 54.5248 133.532 54.2682 133.559 54.0085C133.761 52.1632 135.423 50.8342 137.265 51.0359C138.894 51.2161 140.125 52.5329 140.247 54.1093C141.008 53.2447 141.469 52.1082 141.475 50.8648ZM132.954 22.278C131.207 22.0855 129.945 20.5121 130.138 18.7677C130.312 17.1851 131.616 16.0028 133.159 15.9356C133.321 15.9264 133.486 15.9325 133.651 15.9508C134.067 15.9967 134.455 16.1219 134.803 16.3083C135.918 16.901 136.615 18.1322 136.468 19.4642C136.272 21.2087 134.702 22.4674 132.954 22.278Z" fill="url(#paint12_linear_45_15363)"/>
<path id="Vector_17" d="M134.626 14.0108C134.482 14.0016 134.335 13.9955 134.189 13.9955L132.967 13.9925C131.958 7.8914 127.134 2.82907 120.642 1.84532C112.827 0.659932 105.391 5.96668 103.964 13.742C103.952 13.8092 103.94 13.8733 103.931 13.9436C103.802 14.8021 103.815 15.905 103.879 16.9468C103.94 17.9825 104.053 18.9601 104.135 19.5772C104.187 19.9622 103.955 20.3288 103.586 20.451C103.106 20.6068 102.602 20.286 102.538 19.785C102.455 19.1404 102.354 18.2299 102.29 17.2523C102.223 16.2349 102.199 15.1473 102.272 14.2002C102.299 13.8397 102.342 13.4976 102.403 13.192C104.111 4.62242 112.375 -1.12732 121.003 0.244428C128.262 1.40232 133.614 7.13984 134.626 14.0108Z" fill="url(#paint13_linear_45_15363)"/>
<path id="Vector_18" d="M100.029 57.4209C101.494 57.4209 102.681 56.2336 102.681 54.769C102.681 53.3045 101.494 52.1172 100.029 52.1172C98.5648 52.1172 97.3776 53.3045 97.3776 54.769C97.3776 56.2336 98.5648 57.4209 100.029 57.4209Z" fill="url(#paint14_linear_45_15363)"/>
<path id="Vector_19" d="M139.874 54.7938C139.694 56.4222 138.231 57.5984 136.602 57.4182C135.203 57.2654 134.14 56.1625 133.981 54.8213C133.954 54.6013 133.95 54.3722 133.978 54.1431C134.158 52.5147 135.622 51.3385 137.25 51.5187C138.689 51.6776 139.777 52.8416 139.884 54.2347C139.899 54.418 139.896 54.6044 139.874 54.7938Z" fill="url(#paint15_linear_45_15363)"/>
</g>
</g>
</g>
<defs>
<linearGradient id="paint0_linear_45_15363" x1="58.8143" y1="28.41" x2="59.2836" y2="28.41" gradientUnits="userSpaceOnUse">
<stop offset="3.01917e-07" stop-color="#006CD4"/>
<stop offset="0.2954" stop-color="#0675D5"/>
<stop offset="0.7849" stop-color="#168FD6"/>
<stop offset="1" stop-color="#1E9CD7"/>
</linearGradient>
<linearGradient id="paint1_linear_45_15363" x1="53.2889" y1="32.5549" x2="55.8796" y2="32.5549" gradientUnits="userSpaceOnUse">
<stop offset="3.01917e-07" stop-color="#006CD4"/>
<stop offset="0.2954" stop-color="#0675D5"/>
<stop offset="0.7849" stop-color="#168FD6"/>
<stop offset="1" stop-color="#1E9CD7"/>
</linearGradient>
<linearGradient id="paint2_linear_45_15363" x1="52.4557" y1="34.3804" x2="54.9289" y2="34.3804" gradientUnits="userSpaceOnUse">
<stop offset="3.01917e-07" stop-color="#006CD4"/>
<stop offset="0.2954" stop-color="#0675D5"/>
<stop offset="0.7849" stop-color="#168FD6"/>
<stop offset="1" stop-color="#1E9CD7"/>
</linearGradient>
<linearGradient id="paint3_linear_45_15363" x1="51.8869" y1="36.0468" x2="53.9102" y2="36.0468" gradientUnits="userSpaceOnUse">
<stop offset="3.01917e-07" stop-color="#006CD4"/>
<stop offset="0.2954" stop-color="#0675D5"/>
<stop offset="0.7849" stop-color="#168FD6"/>
<stop offset="1" stop-color="#1E9CD7"/>
</linearGradient>
<linearGradient id="paint4_linear_45_15363" x1="54.4189" y1="30.377" x2="56.1352" y2="30.377" gradientUnits="userSpaceOnUse">
<stop offset="3.01917e-07" stop-color="#006CD4"/>
<stop offset="0.2954" stop-color="#0675D5"/>
<stop offset="0.7849" stop-color="#168FD6"/>
<stop offset="1" stop-color="#1E9CD7"/>
</linearGradient>
<linearGradient id="paint5_linear_45_15363" x1="56.3436" y1="45.6808" x2="90.8468" y2="45.6808" gradientUnits="userSpaceOnUse">
<stop offset="3.01917e-07" stop-color="#006CD4"/>
<stop offset="0.2954" stop-color="#0675D5"/>
<stop offset="0.7849" stop-color="#168FD6"/>
<stop offset="1" stop-color="#1E9CD7"/>
</linearGradient>
<linearGradient id="paint6_linear_45_15363" x1="52.2511" y1="28.8399" x2="90.8468" y2="28.8399" gradientUnits="userSpaceOnUse">
<stop stop-color="#F15A24"/>
<stop offset="0.1334" stop-color="#F26327"/>
<stop offset="0.3551" stop-color="#F57D2D"/>
<stop offset="0.6363" stop-color="#FAA638"/>
<stop offset="0.6981" stop-color="#FBB03B"/>
<stop offset="1" stop-color="#FBB03B"/>
</linearGradient>
<linearGradient id="paint7_linear_45_15363" x1="18.0507" y1="23.4266" x2="61.6546" y2="23.4266" gradientUnits="userSpaceOnUse">
<stop offset="3.01917e-07" stop-color="#006CD4"/>
<stop offset="0.2954" stop-color="#0675D5"/>
<stop offset="0.7849" stop-color="#168FD6"/>
<stop offset="1" stop-color="#1E9CD7"/>
</linearGradient>
<linearGradient id="paint8_linear_45_15363" x1="35.3981" y1="50.777" x2="44.2882" y2="50.777" gradientUnits="userSpaceOnUse">
<stop offset="3.01917e-07" stop-color="#006CD4"/>
<stop offset="0.2954" stop-color="#0675D5"/>
<stop offset="0.7849" stop-color="#168FD6"/>
<stop offset="1" stop-color="#1E9CD7"/>
</linearGradient>
<linearGradient id="paint9_linear_45_15363" x1="0.273211" y1="25.9019" x2="51.4131" y2="25.9019" gradientUnits="userSpaceOnUse">
<stop stop-color="#F15A24"/>
<stop offset="0.1334" stop-color="#F26327"/>
<stop offset="0.3551" stop-color="#F57D2D"/>
<stop offset="0.6363" stop-color="#FAA638"/>
<stop offset="0.6981" stop-color="#FBB03B"/>
<stop offset="1" stop-color="#FBB03B"/>
</linearGradient>
<linearGradient id="paint10_linear_45_15363" x1="3.73239" y1="21.6457" x2="8.04922" y2="21.6457" gradientUnits="userSpaceOnUse">
<stop stop-color="#F15A24"/>
<stop offset="0.1334" stop-color="#F26327"/>
<stop offset="0.3551" stop-color="#F57D2D"/>
<stop offset="0.6363" stop-color="#FAA638"/>
<stop offset="0.6981" stop-color="#FBB03B"/>
<stop offset="1" stop-color="#FBB03B"/>
</linearGradient>
<linearGradient id="paint11_linear_45_15363" x1="15.3103" y1="25.1632" x2="20.8493" y2="25.1632" gradientUnits="userSpaceOnUse">
<stop stop-color="#F15A24"/>
<stop offset="0.1334" stop-color="#F26327"/>
<stop offset="0.3551" stop-color="#F57D2D"/>
<stop offset="0.6363" stop-color="#FAA638"/>
<stop offset="0.6981" stop-color="#FBB03B"/>
<stop offset="1" stop-color="#FBB03B"/>
</linearGradient>
<linearGradient id="paint12_linear_45_15363" x1="94.8628" y1="31.8486" x2="143.01" y2="37.1429" gradientUnits="userSpaceOnUse">
<stop offset="3.01917e-07" stop-color="#006CD4"/>
<stop offset="0.2954" stop-color="#0675D5"/>
<stop offset="0.7849" stop-color="#168FD6"/>
<stop offset="1" stop-color="#1E9CD7"/>
</linearGradient>
<linearGradient id="paint13_linear_45_15363" x1="102.8" y1="9.33916" x2="134.753" y2="12.8527" gradientUnits="userSpaceOnUse">
<stop stop-color="#F15A24"/>
<stop offset="0.1334" stop-color="#F26327"/>
<stop offset="0.3551" stop-color="#F57D2D"/>
<stop offset="0.6363" stop-color="#FAA638"/>
<stop offset="0.6981" stop-color="#FBB03B"/>
<stop offset="1" stop-color="#FBB03B"/>
</linearGradient>
<linearGradient id="paint14_linear_45_15363" x1="97.3901" y1="54.4871" x2="102.663" y2="55.067" gradientUnits="userSpaceOnUse">
<stop stop-color="#F15A24"/>
<stop offset="0.1334" stop-color="#F26327"/>
<stop offset="0.3551" stop-color="#F57D2D"/>
<stop offset="0.6363" stop-color="#FAA638"/>
<stop offset="0.6981" stop-color="#FBB03B"/>
<stop offset="1" stop-color="#FBB03B"/>
</linearGradient>
<linearGradient id="paint15_linear_45_15363" x1="133.975" y1="54.1547" x2="139.873" y2="54.8032" gradientUnits="userSpaceOnUse">
<stop stop-color="#F15A24"/>
<stop offset="0.1334" stop-color="#F26327"/>
<stop offset="0.3551" stop-color="#F57D2D"/>
<stop offset="0.6363" stop-color="#FAA638"/>
<stop offset="0.6981" stop-color="#FBB03B"/>
<stop offset="1" stop-color="#FBB03B"/>
</linearGradient>
</defs>
</svg>
