<svg width="24" height="25" viewBox="0 0 24 25" fill="none" xmlns="http://www.w3.org/2000/svg">
<path d="M8.75 5.50003C8.75 5.08581 8.41421 4.75003 8 4.75003C7.58579 4.75003 7.25 5.08581 7.25 5.50003L8.75 5.50003ZM5.39785 17.7105L4.86516 18.2385H4.86516L5.39785 17.7105ZM4.53269 15.7722C4.24111 15.478 3.76624 15.4759 3.47204 15.7674C3.17784 16.059 3.17573 16.5339 3.46731 16.8281L4.53269 15.7722ZM18.6022 7.08931L19.1348 6.56135V6.56135L18.6022 7.08931ZM19.4673 9.02764C19.7589 9.32184 20.2338 9.32396 20.528 9.03237C20.8222 8.74079 20.8243 8.26592 20.5327 7.97172L19.4673 9.02764ZM16.2507 5.31559L16.3455 4.57161L16.3455 4.57161L16.2507 5.31559ZM15.25 19.5C15.25 19.9142 15.5858 20.25 16 20.25C16.4142 20.25 16.75 19.9142 16.75 19.5H15.25ZM16.2 5.3098L16.1243 6.05597L16.2 5.3098ZM8 19.2487H7.25H8ZM8.75 19.2487L8.75 5.50003L7.25 5.50003L7.25 19.2487H8.75ZM5.93054 17.1825L4.53269 15.7722L3.46731 16.8281L4.86516 18.2385L5.93054 17.1825ZM4.86516 18.2385C5.41012 18.7883 5.86265 19.2465 6.26724 19.5714C6.68367 19.9059 7.12131 20.1602 7.6545 20.2282L7.84416 18.7402C7.698 18.7216 7.51728 18.6515 7.20649 18.4019C6.88386 18.1428 6.50033 17.7574 5.93054 17.1825L4.86516 18.2385ZM18.0695 7.61727L19.4673 9.02764L20.5327 7.97172L19.1348 6.56135L18.0695 7.61727ZM19.1348 6.56135C18.5899 6.0115 18.1373 5.5533 17.7328 5.22837C17.3163 4.89395 16.8787 4.63958 16.3455 4.57161L16.1558 6.05958C16.302 6.0782 16.4827 6.14832 16.7935 6.39791C17.1161 6.65701 17.4997 7.04237 18.0695 7.61727L19.1348 6.56135ZM16.1243 6.05597C16.1348 6.05704 16.1453 6.05824 16.1558 6.05958L16.3455 4.57161C16.3222 4.56865 16.299 4.56599 16.2757 4.56362L16.1243 6.05597ZM15.25 5.50003V19.5H16.75V5.50003H15.25ZM16.2757 4.56362C15.6728 4.50249 15.25 4.99803 15.25 5.50002L16.75 5.50003C16.75 5.78073 16.507 6.09478 16.1243 6.05597L16.2757 4.56362ZM7.25 19.2487C7.25 19.0034 7.46894 18.6924 7.84416 18.7402L7.6545 20.2282C8.30512 20.3111 8.75 19.7716 8.75 19.2487H7.25Z" fill="#2D264B"/>
</svg>
