<svg width="20" height="20" viewBox="0 0 20 20" fill="none" xmlns="http://www.w3.org/2000/svg">
<g id="Bag 4">
<path id="Vector" d="M14.1666 4.99992C14.1666 4.96719 14.1663 4.93454 14.1655 4.90199C14.1135 2.64604 12.2684 0.833252 9.99998 0.833252C7.74885 0.833252 5.91467 2.61846 5.83594 4.85039C5.83419 4.90001 5.83331 4.94986 5.83331 4.99992M14.1666 4.99992H5.83331M14.1666 4.99992H15.2572C16.9953 4.99992 17.8644 4.99992 18.3612 5.55505C18.8581 6.11018 18.7621 6.97391 18.5702 8.70136L18.3237 10.9202C17.9319 14.4463 17.736 16.2093 16.5495 17.2713C15.363 18.3333 13.5753 18.3333 9.99998 18.3333C6.42465 18.3333 4.63698 18.3333 3.45048 17.2713C2.26398 16.2093 2.06809 14.4463 1.6763 10.9202L1.42977 8.70136C1.23783 6.97391 1.14186 6.11018 1.63872 5.55505C2.13559 4.99992 3.00463 4.99992 4.74271 4.99992H5.83331M4.99998 8.33325L5.49998 8.83325C7.98526 11.3185 12.0147 11.3185 14.5 8.83325L15 8.33325" stroke="#2D264B" stroke-width="1.5" stroke-linecap="round"/>
</g>
</svg>
