<svg width="24" height="22" viewBox="0 0 24 22" fill="none" xmlns="http://www.w3.org/2000/svg">
<g id="Buy 2">
<path id="Vector" d="M1.7276 1.31808C1.62713 0.916238 1.21993 0.671926 0.818082 0.772397C0.416238 0.872868 0.171926 1.28007 0.272397 1.68192L1.7276 1.31808ZM5.76564 16.2854L6.21646 15.686L5.76564 16.2854ZM3.02129 9.75175L3.75064 9.57694L3.02129 9.75175ZM5.58574 16.1435L6.06354 15.5654L5.58574 16.1435ZM22.0192 10.2425L22.7485 10.4173L22.0192 10.2425ZM19.8897 15.8575L19.3643 15.3223L19.8897 15.8575ZM19.0404 16.5273L19.4384 17.163L19.0404 16.5273ZM21.9421 6.25597L22.4568 5.71052L21.9421 6.25597ZM22.3038 6.71465L22.9542 6.3412L22.3038 6.71465ZM14.0001 9.75C13.5859 9.75 13.2501 10.0858 13.2501 10.5C13.2501 10.9142 13.5859 11.25 14.0001 11.25V9.75ZM17.0001 12.75C16.5859 12.75 16.2501 13.0858 16.2501 13.5C16.2501 13.9142 16.5859 14.25 17.0001 14.25V12.75ZM2.05273 6.46053H18.445V4.96053H2.05273V6.46053ZM13.0837 16.5395H12.5791V18.0395H13.0837V16.5395ZM3.75064 9.57694L2.78208 5.53572L1.32339 5.88533L2.29195 9.92655L3.75064 9.57694ZM2.78034 5.52861L1.7276 1.31808L0.272397 1.68192L1.32513 5.89244L2.78034 5.52861ZM12.5791 16.5395C10.7352 16.5395 9.41662 16.5383 8.38995 16.419C7.38226 16.3019 6.738 16.0783 6.21646 15.686L5.31482 16.8848C6.12828 17.4966 7.06459 17.775 8.21679 17.9089C9.35001 18.0406 10.7706 18.0395 12.5791 18.0395V16.5395ZM2.29195 9.92655C2.71343 11.6852 3.04339 13.0669 3.43559 14.1383C3.83435 15.2275 4.32336 16.0731 5.10793 16.7216L6.06354 15.5654C5.56052 15.1496 5.19292 14.5752 4.84416 13.6226C4.48885 12.652 4.18038 11.37 3.75064 9.57694L2.29195 9.92655ZM6.21646 15.686C6.16457 15.647 6.11359 15.6067 6.06354 15.5654L5.10793 16.7216C5.17564 16.7775 5.24462 16.832 5.31482 16.8848L6.21646 15.686ZM13.0837 18.0395C14.6483 18.0395 15.8774 18.0404 16.8659 17.9404C17.8695 17.8389 18.6953 17.6283 19.4384 17.163L18.6424 15.8917C18.1682 16.1885 17.5955 16.359 16.715 16.448C15.8194 16.5386 14.6788 16.5395 13.0837 16.5395V18.0395ZM19.3643 15.3223C19.145 15.5376 18.9029 15.7285 18.6424 15.8917L19.4384 17.163C19.7909 16.9423 20.1184 16.684 20.4151 16.3927L19.3643 15.3223ZM18.445 6.46053C19.4375 6.46053 20.1131 6.46185 20.6157 6.52318C21.106 6.58301 21.3071 6.68794 21.4273 6.80143L22.4568 5.71052C21.9991 5.27856 21.4246 5.11076 20.7974 5.03423C20.1826 4.9592 19.3986 4.96053 18.445 4.96053V6.46053ZM22.7485 10.4173C22.9708 9.49004 23.1548 8.72794 23.2251 8.11254C23.2969 7.48475 23.2676 6.88698 22.9542 6.3412L21.6534 7.0881C21.7357 7.2315 21.7909 7.45145 21.7348 7.94219C21.6773 8.44532 21.5212 9.10257 21.2898 10.0677L22.7485 10.4173ZM21.4273 6.80143C21.5163 6.88541 21.5925 6.982 21.6534 7.0881L22.9542 6.3412C22.8202 6.10776 22.6526 5.89527 22.4568 5.71052L21.4273 6.80143ZM21.0001 12.75H17.0001V14.25H21.0001V12.75ZM21.9575 9.75L14.0001 9.75V11.25L21.9575 11.25V9.75ZM21.2898 10.0677C21.269 10.1548 21.2484 10.2405 21.2281 10.3251L22.6868 10.6749C22.7071 10.5903 22.7277 10.5044 22.7485 10.4173L21.2898 10.0677ZM21.2281 10.3251C20.9305 11.5658 20.699 12.5133 20.4566 13.2717L21.8855 13.7283C22.148 12.9067 22.3925 11.9015 22.6868 10.6749L21.2281 10.3251ZM20.4566 13.2717C20.1309 14.291 19.8104 14.8844 19.3643 15.3223L20.4151 16.3927C21.1139 15.7067 21.5286 14.8453 21.8855 13.7283L20.4566 13.2717ZM21.0001 14.25H21.1711V12.75H21.0001V14.25Z" fill="black"/>
<g id="Vector_2">
<path d="M10.4744 20.4474C10.4744 21.0288 10.0031 21.5 9.42177 21.5C8.84042 21.5 8.36914 21.0288 8.36914 20.4474C8.36914 19.8661 8.84042 19.3948 9.42177 19.3948C10.0031 19.3948 10.4744 19.8661 10.4744 20.4474Z" fill="black"/>
<path d="M16.7902 20.4474C16.7902 21.0288 16.3189 21.5 15.7376 21.5C15.1562 21.5 14.6849 21.0288 14.6849 20.4474C14.6849 19.8661 15.1562 19.3948 15.7376 19.3948C16.3189 19.3948 16.7902 19.8661 16.7902 20.4474Z" fill="black"/>
</g>
</g>
</svg>
