<?xml version="1.0" encoding="UTF-8"?>
<svg version="1.1" xmlns="http://www.w3.org/2000/svg" width="141" height="130">
<path d="M0 0 C46.53 0 93.06 0 141 0 C141 42.9 141 85.8 141 130 C94.47 130 47.94 130 0 130 C0 87.1 0 44.2 0 0 Z " fill="#FEFEFE" transform="translate(0,0)"/>
<path d="M0 0 C1.27423828 -0.00193359 1.27423828 -0.00193359 2.57421875 -0.00390625 C3.46753906 -0.00003906 4.36085938 0.00382812 5.28125 0.0078125 C6.17457031 0.00394531 7.06789063 0.00007813 7.98828125 -0.00390625 C8.83777344 -0.00261719 9.68726562 -0.00132813 10.5625 0 C11.34689453 0.00112793 12.13128906 0.00225586 12.93945312 0.00341797 C14.78125 0.1328125 14.78125 0.1328125 15.78125 1.1328125 C15.92318337 4.13612268 15.82361378 7.12498384 15.78125 10.1328125 C11.16125 10.4628125 6.54125 10.7928125 1.78125 11.1328125 C-1.02806213 19.05588699 -3.83159093 26.98036676 -6.55929565 34.93197632 C-7.57839007 37.90054367 -8.60562399 40.86626626 -9.63354492 43.83178711 C-10.15753801 45.34979425 -10.67793255 46.86904743 -11.19506836 48.3894043 C-11.9578036 50.62888957 -12.73340179 52.86354649 -13.51171875 55.09765625 C-13.73989792 55.77771225 -13.96807709 56.45776825 -14.20317078 57.15843201 C-15.45734913 60.71472785 -15.97925791 61.97315111 -19.21875 64.1328125 C-21.6706543 64.35986328 -21.6706543 64.35986328 -24.54296875 64.328125 C-25.57099609 64.32167969 -26.59902344 64.31523438 -27.65820312 64.30859375 C-28.73005859 64.29183594 -29.80191406 64.27507812 -30.90625 64.2578125 C-31.98970703 64.24878906 -33.07316406 64.23976563 -34.18945312 64.23046875 C-36.86597948 64.20688702 -39.54239241 64.17101586 -42.21875 64.1328125 C-43.20875 60.8328125 -44.19875 57.5328125 -45.21875 54.1328125 C-38.28875 54.1328125 -31.35875 54.1328125 -24.21875 54.1328125 C-23.6 51.7196875 -23.6 51.7196875 -22.96875 49.2578125 C-21.6736027 44.47193487 -20.04862493 39.97104974 -18.0859375 35.421875 C-16.99768843 32.73814085 -16.99768843 32.73814085 -16.21875 28.1328125 C-31.72875 28.1328125 -47.23875 28.1328125 -63.21875 28.1328125 C-58.4879697 42.45503924 -58.4879697 42.45503924 -53.1015625 56.43359375 C-52.20478091 59.17552329 -52.0414679 61.27022799 -52.21875 64.1328125 C-59.96875 64.2578125 -59.96875 64.2578125 -62.21875 63.1328125 C-63.37028885 60.5410905 -64.41149982 57.97233364 -65.40625 55.3203125 C-65.85883179 54.13078979 -65.85883179 54.13078979 -66.32055664 52.91723633 C-67.29859891 50.32672552 -68.26105647 47.73091178 -69.21875 45.1328125 C-69.55197266 44.23175781 -69.88519531 43.33070312 -70.22851562 42.40234375 C-71.21656523 39.71254656 -72.18954771 37.01784847 -73.15625 34.3203125 C-73.46264404 33.47944092 -73.76903809 32.63856934 -74.0847168 31.7722168 C-76.81788084 24.01606793 -76.81788084 24.01606793 -76.21875 20.1328125 C-74.21875 18.1328125 -74.21875 18.1328125 -71.58651733 17.89230347 C-70.47177032 17.89674469 -69.35702332 17.90118591 -68.20849609 17.90576172 C-66.31676163 17.90598831 -66.31676163 17.90598831 -64.3868103 17.90621948 C-63.00526778 17.91643352 -61.62372685 17.92686553 -60.2421875 17.9375 C-58.83257243 17.94122962 -57.42295477 17.94407683 -56.01333618 17.94607544 C-52.30115618 17.95371595 -48.58913239 17.97336789 -44.87701416 17.9954834 C-41.08990594 18.01593291 -37.3027725 18.02507523 -33.515625 18.03515625 C-26.08326207 18.0566135 -18.65102792 18.09075434 -11.21875 18.1328125 C-10.92218506 17.00480225 -10.92218506 17.00480225 -10.61962891 15.85400391 C-10.35585449 14.86577637 -10.09208008 13.87754883 -9.8203125 12.859375 C-9.43093506 11.39105225 -9.43093506 11.39105225 -9.03369141 9.89306641 C-6.11544428 0.00879378 -6.11544428 0.00879378 0 0 Z " fill="#FCA00E" transform="translate(96.21875,23.8671875)"/>
<path d="M0 0 C7.92 0 15.84 0 24 0 C23.01 3.3 22.02 6.6 21 10 C14.73 10 8.46 10 2 10 C1.34 6.7 0.68 3.4 0 0 Z " fill="#FD990C" transform="translate(45,60)"/>
<path d="M0 0 C2.5625 0.1875 2.5625 0.1875 4.5625 2.1875 C4.875 4.6875 4.875 4.6875 4.5625 7.1875 C1.5625 9.1875 1.5625 9.1875 -0.5 8.9375 C-2.4375 8.1875 -2.4375 8.1875 -4.4375 6.1875 C-3.71780303 0.28598485 -3.71780303 0.28598485 0 0 Z " fill="#3B3B3B" transform="translate(46.4375,91.8125)"/>
<path d="M0 0 C0.625 2.3125 0.625 2.3125 1 5 C0.01 6.485 0.01 6.485 -1 8 C-5.75 7.25 -5.75 7.25 -8 5 C-7.75 2.4375 -7.75 2.4375 -7 0 C-4.3333581 -1.33332095 -2.83319697 -0.67102033 0 0 Z " fill="#353539" transform="translate(71,93)"/>
<path d="M0 0 C0 0.99 0 1.98 0 3 C-6.27 3 -12.54 3 -19 3 C-19 2.34 -19 1.68 -19 1 C-16.20837429 0.83262201 -13.41670379 0.66606598 -10.625 0.5 C-9.8309375 0.45230469 -9.036875 0.40460938 -8.21875 0.35546875 C-2.2265625 0 -2.2265625 0 0 0 Z " fill="#FA9E2F" transform="translate(66,67)"/>
<path d="M0 0 C1.18613892 0.00785522 1.18613892 0.00785522 2.39624023 0.01586914 C3.67724609 0.02070313 3.67724609 0.02070313 4.98413086 0.02563477 C5.88196289 0.03401367 6.77979492 0.04239258 7.70483398 0.05102539 C8.6065332 0.05553711 9.50823242 0.06004883 10.43725586 0.06469727 C12.67234712 0.07652315 14.90730835 0.09300319 17.14233398 0.11352539 C17.14233398 0.44352539 17.14233398 0.77352539 17.14233398 1.11352539 C15.9731543 1.13930664 14.80397461 1.16508789 13.59936523 1.19165039 C12.05115172 1.24794906 10.50297608 1.30529601 8.95483398 1.36352539 C7.80144531 1.38479492 7.80144531 1.38479492 6.62475586 1.40649414 C1.5649087 1.62365496 -1.13113258 2.37952395 -4.85766602 6.11352539 C-2.56663777 0.15685196 -2.56663777 0.15685196 0 0 Z " fill="#FBC14B" transform="translate(93.857666015625,23.886474609375)"/>
</svg>
