<svg width="18" height="18" viewBox="0 0 18 18" fill="none" xmlns="http://www.w3.org/2000/svg">
<g id="Compact wallet used for keeping money. 1" clip-path="url(#clip0_211_784)">
<path id="Vector" d="M14.2277 15.4825H1.99209C1.46504 15.4829 0.959341 15.2743 0.5859 14.9024C0.212459 14.5305 0.00175669 14.0256 0 13.4986L0 4.19577C0.00175669 3.66872 0.212459 3.16388 0.5859 2.79196C0.959341 2.42004 1.46504 2.2114 1.99209 2.21179H14.2277C14.7548 2.2114 15.2605 2.42004 15.6339 2.79196C16.0073 3.16388 16.2181 3.66872 16.2198 4.19577V13.4978C16.2182 14.025 16.0076 14.53 15.6342 14.9021C15.2607 15.2742 14.7549 15.4829 14.2277 15.4825Z" fill="#CFD8DC"/>
<path id="Vector_2" d="M16.4649 11.7961H12.1644C10.7415 11.7961 9.58398 10.6386 9.58398 9.21568C9.58398 7.79276 10.7415 6.63525 12.1644 6.63525H16.4649C16.7906 6.63584 17.1029 6.76551 17.3333 6.99587C17.5636 7.22623 17.6933 7.5385 17.6939 7.86427V10.5678C17.6939 11.2446 17.1424 11.7961 16.4649 11.7961Z" fill="#607D8B"/>
<path id="Vector_3" d="M12.1649 9.95304C12.5721 9.95304 12.9021 9.62296 12.9021 9.21578C12.9021 8.8086 12.5721 8.47852 12.1649 8.47852C11.7577 8.47852 11.4276 8.8086 11.4276 9.21578C11.4276 9.62296 11.7577 9.95304 12.1649 9.95304Z" fill="#00BCD4"/>
</g>
<defs>
<clipPath id="clip0_211_784">
<rect width="17.6943" height="17.6943" fill="white"/>
</clipPath>
</defs>
</svg>
