<svg width="26" height="26" viewBox="0 0 26 26" fill="none" xmlns="http://www.w3.org/2000/svg">
<g id="Image">
<g id="Vector">
<path fill-rule="evenodd" clip-rule="evenodd" d="M11.75 5.8125C9.85152 5.8125 8.3125 7.35152 8.3125 9.25C8.3125 11.1485 9.85152 12.6875 11.75 12.6875C13.6485 12.6875 15.1875 11.1485 15.1875 9.25C15.1875 7.35152 13.6485 5.8125 11.75 5.8125ZM10.1875 9.25C10.1875 8.38706 10.8871 7.6875 11.75 7.6875C12.6129 7.6875 13.3125 8.38706 13.3125 9.25C13.3125 10.1129 12.6129 10.8125 11.75 10.8125C10.8871 10.8125 10.1875 10.1129 10.1875 9.25Z" fill="black"/>
<path fill-rule="evenodd" clip-rule="evenodd" d="M18.5794 0.96716C17.1517 0.812482 15.3522 0.81249 13.0566 0.8125H12.9434C10.6478 0.81249 8.84827 0.812482 7.4206 0.96716C5.96367 1.12501 4.7832 1.45291 3.77529 2.18519C3.16511 2.62851 2.62851 3.16511 2.18519 3.77529C1.45291 4.7832 1.12501 5.96367 0.96716 7.4206C0.812482 8.84826 0.81249 10.6478 0.8125 12.9434V13.0566C0.81249 15.3522 0.812482 17.1517 0.96716 18.5794C1.12501 20.0363 1.45291 21.2168 2.18519 22.2247C2.20128 22.2468 2.21749 22.2689 2.23382 22.2908C2.66756 22.8737 3.18726 23.3876 3.77529 23.8148C4.7832 24.5471 5.96367 24.875 7.4206 25.0328C8.84824 25.1875 10.6477 25.1875 12.9433 25.1875H13.0566C15.3522 25.1875 17.1518 25.1875 18.5794 25.0328C20.0363 24.875 21.2168 24.5471 22.2247 23.8148C22.8349 23.3715 23.3715 22.8349 23.8148 22.2247C24.9022 20.7281 25.1128 18.8183 25.1686 16.1257C25.1875 15.2103 25.1875 14.1754 25.1875 13.0075V12.9434C25.1875 10.6478 25.1875 8.84824 25.0328 7.4206C24.875 5.96367 24.5471 4.7832 23.8148 3.77529C23.3715 3.16511 22.8349 2.62851 22.2247 2.18519C21.2168 1.45291 20.0363 1.12501 18.5794 0.96716ZM4.87739 3.7021C5.5124 3.24074 6.32517 2.97181 7.62256 2.83125C8.93749 2.68879 10.6355 2.6875 13 2.6875C15.3645 2.6875 17.0625 2.68879 18.3774 2.83125C19.6748 2.97181 20.4876 3.24074 21.1226 3.7021C21.5736 4.02977 21.9702 4.42639 22.2979 4.87739C22.7593 5.5124 23.0282 6.32517 23.1688 7.62256C23.3112 8.93749 23.3125 10.6355 23.3125 13C23.3125 13.3187 23.3125 13.6257 23.3121 13.9216C23.1798 13.8094 23.0544 13.7108 22.931 13.6233C19.8422 11.4301 15.5813 12.0109 13.1922 14.9508C12.9939 15.1947 12.804 15.4804 12.5889 15.8367L12.4327 15.8055C11.0588 15.5305 10.2175 15.3622 9.4277 15.379C7.31711 15.4238 5.33294 16.3942 4.00179 18.0327C3.66376 18.4487 3.37847 18.9359 3.03427 19.5976C2.94822 19.2435 2.88153 18.8415 2.83125 18.3774C2.68879 17.0625 2.6875 15.3645 2.6875 13C2.6875 10.6355 2.68879 8.93749 2.83125 7.62256C2.97181 6.32517 3.24074 5.5124 3.7021 4.87739C4.02977 4.42639 4.42639 4.02977 4.87739 3.7021ZM21.8455 15.1521C22.1549 15.3718 22.513 15.716 23.2841 16.4852C23.2126 18.9486 22.965 20.2045 22.2979 21.1226C21.9702 21.5736 21.5736 21.9702 21.1226 22.2979C20.4876 22.7593 19.6748 23.0282 18.3774 23.1688C17.0625 23.3112 15.3645 23.3125 13 23.3125C12.0727 23.3125 11.248 23.3123 10.5086 23.3035L13.407 18.1755C13.5695 17.8881 13.7106 17.6385 13.8366 17.4181C14.2359 16.7197 14.4518 16.3737 14.6472 16.1333C16.4132 13.9604 19.5625 13.5311 21.8455 15.1521ZM8.43385 23.1637C8.42068 23.187 8.40863 23.2106 8.39765 23.2345C8.12483 23.2169 7.86707 23.1952 7.62256 23.1688C6.32517 23.0282 5.5124 22.7593 4.87739 22.2979C4.60093 22.097 4.34491 21.8703 4.11268 21.621C4.8149 20.2165 5.10522 19.648 5.45705 19.215C6.44095 18.0039 7.90751 17.2867 9.46751 17.2535C9.9486 17.2433 10.4804 17.3309 11.6053 17.5527L8.43385 23.1637Z" fill="black"/>
</g>
</g>
</svg>
