<svg width="25" height="24" viewBox="0 0 25 24" fill="none" xmlns="http://www.w3.org/2000/svg">
<g id="Website">
<path id="Vector" fill-rule="evenodd" clip-rule="evenodd" d="M9.21828 8.77276C9.6577 6.05431 10.4603 3.2833 10.8393 2.05261C11.3791 1.9632 11.9338 1.91663 12.5 1.91663C13.0661 1.91663 13.6208 1.96321 14.1606 2.05261C14.5397 3.2833 15.3422 6.05431 15.7816 8.77276C14.6255 8.96168 13.4928 9.08329 12.5 9.08329C11.5071 9.08329 10.3745 8.96168 9.21828 8.77276ZM17.257 8.50015C16.8873 6.22807 16.2799 3.94268 15.8568 2.48871C18.3117 3.3552 20.332 5.14618 21.4979 7.44388C20.4085 7.75893 18.8781 8.16875 17.257 8.50015ZM17.4621 9.98913C19.2529 9.6271 20.9361 9.17096 22.0776 8.83746C22.4056 9.83138 22.5833 10.8943 22.5833 12C22.5833 12.5661 22.5367 13.1208 22.4473 13.6607C21.4622 13.964 19.4852 14.5404 17.3368 14.9838C17.4868 13.9576 17.5833 12.9357 17.5833 12C17.5833 11.3597 17.5382 10.6805 17.4621 9.98913ZM17.0671 16.5671C18.9674 16.2015 20.7844 15.7138 22.0112 15.3568C20.9989 18.225 18.725 20.4989 15.8568 21.5112C16.2138 20.2844 16.7015 18.4674 17.0671 16.5671ZM15.4838 16.8368C15.0404 18.9852 14.464 20.9622 14.1607 21.9473C13.6208 22.0367 13.0661 22.0833 12.5 22.0833C11.9338 22.0833 11.3791 22.0367 10.8393 21.9473C10.5359 20.9622 9.95952 18.9852 9.51616 16.8368C10.5423 16.9868 11.5642 17.0833 12.5 17.0833C13.4357 17.0833 14.4576 16.9868 15.4838 16.8368ZM7.93285 16.5671C8.29842 18.4674 8.78616 20.2844 9.1431 21.5112C6.27496 20.4989 4.00102 18.225 2.98869 15.3568C4.21547 15.7138 6.03256 16.2015 7.93285 16.5671ZM7.66313 14.9838C5.51476 14.5404 3.53768 13.964 2.55261 13.6606C2.46321 13.1208 2.41663 12.5661 2.41663 12C2.41663 10.8943 2.59432 9.83138 2.92231 8.83746C4.06378 9.17096 5.74699 9.6271 7.53785 9.98913C7.46175 10.6805 7.41663 11.3597 7.41663 12C7.41663 12.9357 7.51308 13.9576 7.66313 14.9838ZM7.74292 8.50015C6.12183 8.16875 4.59138 7.75893 3.50203 7.44388C4.66791 5.14617 6.68821 3.35519 9.14308 2.4887C8.72003 3.94268 8.11264 6.22807 7.74292 8.50015ZM8.91663 12C8.91663 11.4571 8.95303 10.8708 9.01737 10.2598C10.2097 10.4532 11.4132 10.5833 12.5 10.5833C13.5867 10.5833 14.7903 10.4532 15.9825 10.2598C16.0469 10.8708 16.0833 11.4571 16.0833 12C16.0833 12.9901 15.9623 14.1198 15.774 15.274C14.6198 15.4623 13.4901 15.5833 12.5 15.5833C11.5098 15.5833 10.3802 15.4623 9.22591 15.274C9.03758 14.1198 8.91663 12.9901 8.91663 12ZM12.5 0.416626C11.6791 0.416626 10.8775 0.502119 10.1037 0.664945C6.31225 1.46274 3.2062 4.11238 1.77247 7.62267C1.22048 8.97414 0.916626 10.4525 0.916626 12C0.916626 12.8208 1.00212 13.6224 1.16494 14.3962C2.10657 18.8712 5.62871 22.3933 10.1037 23.335C10.8775 23.4978 11.6791 23.5833 12.5 23.5833C13.3208 23.5833 14.1224 23.4978 14.8963 23.335C19.3712 22.3933 22.8933 18.8712 23.835 14.3962C23.9978 13.6224 24.0833 12.8208 24.0833 12C24.0833 10.4537 23.7799 8.97645 23.2287 7.62583C21.7956 4.11397 18.6888 1.46298 14.8962 0.664946C14.1224 0.502119 13.3208 0.416626 12.5 0.416626Z" fill="#2D264B"/>
</g>
</svg>
