<svg width="20" height="20" viewBox="0 0 20 20" fill="none" xmlns="http://www.w3.org/2000/svg">
<g id="Message 1">
<path id="Vector" d="M19.1663 8.16671C19.1663 5.5998 19.1663 4.31635 18.6668 3.33592C18.2274 2.47351 17.5262 1.77235 16.6638 1.33293C15.6834 0.833374 14.3999 0.833374 11.833 0.833374H8.16634C5.59943 0.833374 4.31598 0.833374 3.33555 1.33293C2.47314 1.77235 1.77198 2.47351 1.33256 3.33592C0.833008 4.31635 0.833008 5.5998 0.833008 8.16671V12.0427C0.833008 13.9521 2.38092 15.5 4.29036 15.5H4.84197C5.55614 15.5 6.04449 16.2213 5.77925 16.8844C5.40482 17.8205 6.48288 18.6668 7.30328 18.0808L9.69646 16.3714C9.72087 16.354 9.73307 16.3452 9.74507 16.3368C10.5096 15.7981 11.4206 15.5061 12.3558 15.5001C12.3705 15.5 12.3855 15.5 12.4155 15.5H12.9185C14.4669 15.5 15.2411 15.5 15.8726 15.3149C17.3706 14.8757 18.542 13.7043 18.9812 12.2063C19.1663 11.5748 19.1663 10.8006 19.1663 9.25224V8.16671Z" stroke="black" stroke-width="1.5"/>
<g id="Vector_2">
<path d="M7.24935 8.16667C7.24935 8.67293 6.83894 9.08333 6.33268 9.08333C5.82642 9.08333 5.41602 8.67293 5.41602 8.16667C5.41602 7.66041 5.82642 7.25 6.33268 7.25C6.83894 7.25 7.24935 7.66041 7.24935 8.16667Z" fill="black"/>
<path d="M10.916 8.16667C10.916 8.67293 10.5056 9.08333 9.99935 9.08333C9.49309 9.08333 9.08268 8.67293 9.08268 8.16667C9.08268 7.66041 9.49309 7.25 9.99935 7.25C10.5056 7.25 10.916 7.66041 10.916 8.16667Z" fill="black"/>
<path d="M14.5827 8.16667C14.5827 8.67293 14.1723 9.08333 13.666 9.08333C13.1598 9.08333 12.7493 8.67293 12.7493 8.16667C12.7493 7.66041 13.1598 7.25 13.666 7.25C14.1723 7.25 14.5827 7.66041 14.5827 8.16667Z" fill="black"/>
</g>
</g>
</svg>
