<svg width="25" height="24" viewBox="0 0 25 24" fill="none" xmlns="http://www.w3.org/2000/svg">
<g id="Website">
<path id="Vector" fill-rule="evenodd" clip-rule="evenodd" d="M9.21864 8.77276C9.65806 6.05431 10.4606 3.2833 10.8396 2.05261C11.3795 1.9632 11.9342 1.91663 12.5003 1.91663C13.0664 1.91663 13.6212 1.96321 14.161 2.05261C14.54 3.2833 15.3426 6.05431 15.782 8.77276C14.6258 8.96168 13.4932 9.08329 12.5003 9.08329C11.5074 9.08329 10.3748 8.96168 9.21864 8.77276ZM17.2574 8.50015C16.8876 6.22807 16.2803 3.94268 15.8572 2.48871C18.3121 3.3552 20.3324 5.14618 21.4983 7.44388C20.4089 7.75893 18.8784 8.16875 17.2574 8.50015ZM17.4624 9.98913C19.2533 9.6271 20.9365 9.17096 22.078 8.83746C22.406 9.83138 22.5837 10.8943 22.5837 12C22.5837 12.5661 22.5371 13.1208 22.4477 13.6607C21.4626 13.964 19.4855 14.5404 17.3372 14.9838C17.4872 13.9576 17.5837 12.9357 17.5837 12C17.5837 11.3597 17.5385 10.6805 17.4624 9.98913ZM17.0674 16.5671C18.9677 16.2015 20.7848 15.7138 22.0116 15.3568C20.9993 18.225 18.7253 20.4989 15.8572 21.5112C16.2141 20.2844 16.7019 18.4674 17.0674 16.5671ZM15.4841 16.8368C15.0408 18.9852 14.4644 20.9622 14.161 21.9473C13.6212 22.0367 13.0664 22.0833 12.5003 22.0833C11.9342 22.0833 11.3795 22.0367 10.8396 21.9473C10.5362 20.9622 9.95989 18.9852 9.51652 16.8368C10.5427 16.9868 11.5646 17.0833 12.5003 17.0833C13.4361 17.0833 14.4579 16.9868 15.4841 16.8368ZM7.93322 16.5671C8.29879 18.4674 8.78653 20.2844 9.14347 21.5112C6.27533 20.4989 4.00138 18.225 2.98906 15.3568C4.21584 15.7138 6.03292 16.2015 7.93322 16.5671ZM7.6635 14.9838C5.51512 14.5404 3.53805 13.964 2.55298 13.6606C2.46357 13.1208 2.41699 12.5661 2.41699 12C2.41699 10.8943 2.59468 9.83138 2.92268 8.83746C4.06414 9.17096 5.74735 9.6271 7.53821 9.98913C7.46212 10.6805 7.41699 11.3597 7.41699 12C7.41699 12.9357 7.51344 13.9576 7.6635 14.9838ZM7.74329 8.50015C6.1222 8.16875 4.59174 7.75893 3.50239 7.44388C4.66828 5.14617 6.68857 3.35519 9.14345 2.48871C8.72039 3.94268 8.113 6.22807 7.74329 8.50015ZM8.91699 12C8.91699 11.4571 8.9534 10.8708 9.01773 10.2598C10.21 10.4532 11.4136 10.5833 12.5003 10.5833C13.5871 10.5833 14.7906 10.4532 15.9829 10.2598C16.0473 10.8708 16.0837 11.4571 16.0837 12C16.0837 12.9901 15.9627 14.1198 15.7744 15.274C14.6201 15.4623 13.4904 15.5833 12.5003 15.5833C11.5102 15.5833 10.3805 15.4623 9.22627 15.274C9.03794 14.1198 8.91699 12.9901 8.91699 12ZM12.5003 0.416626C11.6795 0.416626 10.8779 0.502119 10.104 0.664945C6.31261 1.46274 3.20657 4.11238 1.77283 7.62267C1.22084 8.97414 0.916992 10.4525 0.916992 12C0.916992 12.8208 1.00249 13.6224 1.16531 14.3962C2.10693 18.8712 5.62907 22.3933 10.104 23.335C10.8779 23.4978 11.6795 23.5833 12.5003 23.5833C13.3211 23.5833 14.1228 23.4978 14.8966 23.335C19.3716 22.3933 22.8937 18.8712 23.8353 14.3962C23.9982 13.6224 24.0837 12.8208 24.0837 12C24.0837 10.4537 23.7803 8.97645 23.2291 7.62583C21.7959 4.11397 18.6892 1.46298 14.8966 0.664946C14.1228 0.502119 13.3211 0.416626 12.5003 0.416626Z" fill="url(#paint0_linear_1012_212)"/>
</g>
<defs>
<linearGradient id="paint0_linear_1012_212" x1="0.392668" y1="10.3439" x2="24.8773" y2="12.8102" gradientUnits="userSpaceOnUse">
<stop offset="3.01917e-07" stop-color="#006CD4"/>
<stop offset="0.2954" stop-color="#0675D5"/>
<stop offset="0.7849" stop-color="#168FD6"/>
<stop offset="1" stop-color="#1E9CD7"/>
</linearGradient>
</defs>
</svg>
