<svg width="17" height="18" viewBox="0 0 17 18" fill="none" xmlns="http://www.w3.org/2000/svg">
<g id="iconamoon:delivery-fast-light" clip-path="url(#clip0_139_1474)">
<g id="Group">
<path id="Vector" d="M1.59998 2.49998V1.97498C1.46074 1.97498 1.32721 2.03029 1.22875 2.12874C1.13029 2.2272 1.07498 2.36074 1.07498 2.49998H1.59998ZM9.29998 2.49998H9.82498C9.82498 2.36074 9.76967 2.2272 9.67121 2.12874C9.57276 2.03029 9.43922 1.97498 9.29998 1.97498V2.49998ZM9.29998 6.69998V6.17498C9.16074 6.17498 9.02721 6.23029 8.92875 6.32874C8.83029 6.4272 8.77498 6.56074 8.77498 6.69998H9.29998ZM1.59998 3.02498H9.29998V1.97498H1.59998V3.02498ZM8.77498 2.49998V13.7H9.82498V2.49998H8.77498ZM2.12498 12.3V2.49998H1.07498V12.3H2.12498ZM9.29998 7.22498H12.8V6.17498H9.29998V7.22498ZM15.075 9.49998V12.3H16.125V9.49998H15.075ZM9.82498 13.7V6.69998H8.77498V13.7H9.82498ZM13.4188 14.3188C13.3375 14.4001 13.2411 14.4645 13.1349 14.5085C13.0287 14.5525 12.9149 14.5751 12.8 14.5751C12.6851 14.5751 12.5713 14.5525 12.4651 14.5085C12.3589 14.4645 12.2624 14.4001 12.1812 14.3188L11.4392 15.0608C11.8002 15.4218 12.2898 15.6246 12.8003 15.6246C13.3109 15.6246 13.8005 15.4218 14.1615 15.0608L13.4188 14.3188ZM12.1812 13.0812C12.2624 12.9999 12.3589 12.9354 12.4651 12.8914C12.5713 12.8475 12.6851 12.8248 12.8 12.8248C12.9149 12.8248 13.0287 12.8475 13.1349 12.8914C13.2411 12.9354 13.3375 12.9999 13.4188 13.0812L14.1608 12.3392C13.7998 11.9782 13.3102 11.7754 12.7996 11.7754C12.2891 11.7754 11.7995 11.9782 11.4385 12.3392L12.1812 13.0812ZM5.01878 14.3188C4.93753 14.4001 4.84106 14.4645 4.73488 14.5085C4.62871 14.5525 4.51491 14.5751 4.39998 14.5751C4.28506 14.5751 4.17126 14.5525 4.06508 14.5085C3.95891 14.4645 3.86244 14.4001 3.78118 14.3188L3.03918 15.0608C3.40019 15.4218 3.88981 15.6246 4.40033 15.6246C4.91086 15.6246 5.40048 15.4218 5.76148 15.0608L5.01878 14.3188ZM3.78118 13.0812C3.86244 12.9999 3.95891 12.9354 4.06508 12.8914C4.17126 12.8475 4.28506 12.8248 4.39998 12.8248C4.51491 12.8248 4.62871 12.8475 4.73488 12.8914C4.84106 12.9354 4.93753 12.9999 5.01878 13.0812L5.76078 12.3392C5.39978 11.9782 4.91016 11.7754 4.39963 11.7754C3.8891 11.7754 3.39949 11.9782 3.03848 12.3392L3.78118 13.0812ZM13.4188 13.0812C13.5896 13.252 13.675 13.4753 13.675 13.7H14.725C14.725 13.2079 14.5367 12.7144 14.1615 12.3385L13.4188 13.0812ZM13.675 13.7C13.675 13.9247 13.5896 14.148 13.4188 14.3188L14.1615 15.0608C14.3406 14.8823 14.4819 14.6702 14.5787 14.4367C14.6756 14.2032 14.7253 13.9528 14.725 13.7H13.675ZM11.4 13.175H9.29998V14.225H11.4V13.175ZM12.1812 14.3188C12.0996 14.2377 12.035 14.1413 11.991 14.0351C11.947 13.9289 11.9246 13.8149 11.925 13.7H10.875C10.875 14.1921 11.0633 14.6856 11.4385 15.0615L12.1812 14.3188ZM11.925 13.7C11.925 13.4753 12.0104 13.252 12.1812 13.0812L11.4385 12.3392C11.2594 12.5176 11.1181 12.7297 11.0212 12.9632C10.9244 13.1968 10.8747 13.4472 10.875 13.7H11.925ZM3.78118 14.3188C3.69962 14.2377 3.63498 14.1413 3.591 14.0351C3.54701 13.9289 3.52458 13.8149 3.52498 13.7H2.47498C2.47498 14.1921 2.66328 14.6856 3.03848 15.0615L3.78118 14.3188ZM3.52498 13.7C3.52498 13.4753 3.61038 13.252 3.78118 13.0812L3.03918 12.3392C2.8601 12.5176 2.71805 12.7297 2.62123 12.9632C2.5244 13.1968 2.4747 13.4472 2.47498 13.7H3.52498ZM9.29998 13.175H5.79998V14.225H9.29998V13.175ZM5.01878 13.0812C5.18958 13.252 5.27498 13.4753 5.27498 13.7H6.32498C6.32498 13.2079 6.13668 12.7144 5.76148 12.3385L5.01878 13.0812ZM5.27498 13.7C5.27498 13.9247 5.18958 14.148 5.01878 14.3188L5.76078 15.0608C5.93987 14.8823 6.08191 14.6702 6.17874 14.4367C6.27556 14.2032 6.32526 13.9528 6.32498 13.7H5.27498ZM15.075 12.3C15.075 12.783 14.683 13.175 14.2 13.175V14.225C14.7105 14.225 15.2002 14.0222 15.5612 13.6612C15.9222 13.3001 16.125 12.8105 16.125 12.3H15.075ZM12.8 7.22498C13.4033 7.22498 13.982 7.46466 14.4086 7.89131C14.8353 8.31795 15.075 8.89661 15.075 9.49998H16.125C16.125 8.61813 15.7747 7.7724 15.1511 7.14885C14.5276 6.52529 13.6818 6.17498 12.8 6.17498V7.22498ZM1.07498 12.3C1.07498 12.8105 1.27779 13.3001 1.6388 13.6612C1.99981 14.0222 2.48944 14.225 2.99998 14.225V13.175C2.51698 13.175 2.12498 12.783 2.12498 12.3H1.07498Z" fill="black"/>
<path id="Vector_2" d="M1.59998 6H3.69998M1.59998 8.8H5.09998" stroke="black" stroke-width="2.1" stroke-linecap="round" stroke-linejoin="round"/>
</g>
</g>
<defs>
<clipPath id="clip0_139_1474">
<rect width="16.8" height="16.8" fill="white" transform="translate(0.199982 0.400024)"/>
</clipPath>
</defs>
</svg>
