<svg width="12" height="21" viewBox="0 0 12 21" fill="none" xmlns="http://www.w3.org/2000/svg">
<path fill-rule="evenodd" clip-rule="evenodd" d="M6.75055 1C6.75055 0.585786 6.41477 0.25 6.00055 0.25C5.58634 0.25 5.25055 0.585786 5.25055 1L5.25056 11.25H3.13592C0.853868 11.25 -0.435234 13.8692 0.956808 15.6775L3.82145 19.3987C4.92228 20.8288 7.07885 20.8288 8.17968 19.3988L11.0443 15.6775C12.4364 13.8692 11.1473 11.25 8.86521 11.25H6.75056L6.75055 1ZM2.14542 14.7625C1.51267 13.9405 2.09863 12.75 3.13592 12.75H5.99557L6.00056 12.75L6.00554 12.75H8.86521C9.90251 12.75 10.4885 13.9405 9.85572 14.7625L6.99108 18.4838C6.4907 19.1338 5.51044 19.1338 5.01006 18.4838L2.14542 14.7625Z" fill="#2D264B"/>
</svg>
