<svg width="16" height="16" viewBox="0 0 16 16" fill="none" xmlns="http://www.w3.org/2000/svg">
<path fill-rule="evenodd" clip-rule="evenodd" d="M11.1524 0.833374C10.723 0.833374 10.3683 1.01304 10.0325 1.2692C9.71445 1.51188 9.36128 1.86508 8.93775 2.28864L5.2838 5.94253C5.00321 6.22266 4.78135 6.44416 4.64529 6.72726C4.50922 7.01036 4.47486 7.32197 4.4314 7.71607L4.4196 7.82257C4.33831 8.55402 4.2713 9.15694 4.28664 9.63186C4.30268 10.1286 4.41002 10.5835 4.76561 10.9391C5.12121 11.2947 5.57617 11.4021 6.07287 11.4181C6.54779 11.4334 7.15069 11.3664 7.88213 11.2851L7.98869 11.2733C8.38276 11.2299 8.69438 11.1955 8.97747 11.0594C9.26057 10.9234 9.48206 10.7015 9.76219 10.4209L13.4161 6.76699C13.8396 6.34345 14.1928 5.99028 14.4355 5.6722C14.6917 5.33646 14.8714 4.98175 14.8714 4.55233C14.8714 4.1229 14.6917 3.76819 14.4355 3.43245C14.1928 3.11437 13.8397 2.7612 13.4161 2.33767L13.3671 2.28866C12.9435 1.86509 12.5904 1.51189 12.2723 1.2692C11.9365 1.01304 11.5818 0.833374 11.1524 0.833374ZM13.0372 5.72998L9.97475 2.66756C10.2452 2.40112 10.4543 2.20519 10.6391 2.06422C10.8859 1.87593 11.0295 1.83337 11.1524 1.83337C11.2753 1.83337 11.4189 1.87593 11.6657 2.06422C11.924 2.26131 12.23 2.56582 12.6845 3.02026C13.1389 3.4747 13.4434 3.78071 13.6405 4.03903C13.8288 4.28581 13.8714 4.42946 13.8714 4.55233C13.8714 4.67519 13.8288 4.81884 13.6405 5.06562C13.4995 5.25038 13.3036 5.45955 13.0372 5.72998ZM9.26679 3.37381L12.3309 6.43794L9.10327 9.66559C8.75164 10.0172 8.65447 10.1052 8.54428 10.1581C8.4341 10.2111 8.30471 10.232 7.81047 10.2869C7.03048 10.3736 6.49961 10.4314 6.10514 10.4186C5.7241 10.4063 5.57026 10.3296 5.47272 10.232C5.37518 10.1345 5.29842 9.98064 5.28612 9.59959C5.27338 9.20512 5.33112 8.67425 5.41779 7.89426C5.47271 7.40002 5.49363 7.27063 5.54659 7.16045C5.59955 7.05026 5.68751 6.95309 6.03914 6.60146L9.26679 3.37381Z" fill="#2D264B"/>
<path d="M6.00664 2.61902C6.28277 2.61571 6.50392 2.38918 6.50061 2.11306C6.4973 1.83694 6.27078 1.61578 5.99466 1.61909C4.37698 1.63848 3.26661 1.72699 2.41414 2.34635C2.08871 2.58279 1.80252 2.86897 1.56609 3.1944C1.17553 3.73195 1.00066 4.36154 0.91647 5.13857C0.833975 5.89999 0.833979 6.85972 0.833984 8.08408V8.14441C0.833979 9.36877 0.833975 10.3285 0.91647 11.0899C1.00066 11.867 1.17553 12.4965 1.56609 13.0341C1.80252 13.3595 2.08871 13.6457 2.41414 13.8821C2.95169 14.2727 3.58128 14.4476 4.3583 14.5318C5.11971 14.6143 6.07943 14.6143 7.30375 14.6142H7.36417C8.58849 14.6143 9.54825 14.6143 10.3097 14.5318C11.0867 14.4476 11.7163 14.2727 12.2538 13.8821C12.5793 13.6457 12.8654 13.3595 13.1019 13.0341C13.7212 12.1816 13.8098 11.0713 13.8291 9.45357C13.8325 9.17745 13.6113 8.95093 13.3352 8.94762C13.059 8.94431 12.8325 9.16547 12.8292 9.44159C12.8092 11.1088 12.697 11.8901 12.2929 12.4463C12.1181 12.6868 11.9066 12.8984 11.666 13.0731C11.3274 13.3192 10.8939 13.4626 10.202 13.5376C9.50066 13.6136 8.59503 13.6142 7.33398 13.6142C6.07294 13.6142 5.16731 13.6136 4.46601 13.5376C3.77407 13.4626 3.3406 13.3192 3.00193 13.0731C2.76139 12.8984 2.54986 12.6868 2.3751 12.4463C2.12905 12.1076 1.98562 11.6742 1.91065 10.9822C1.83467 10.2809 1.83398 9.3753 1.83398 8.11425C1.83398 6.8532 1.83467 5.94758 1.91065 5.24628C1.98562 4.55434 2.12905 4.12086 2.3751 3.78219C2.54986 3.54165 2.76139 3.33013 3.00193 3.15537C3.55816 2.75124 4.33944 2.639 6.00664 2.61902Z" fill="#2D264B"/>
</svg>
