<svg width="36" height="36" viewBox="0 0 36 36" fill="none" xmlns="http://www.w3.org/2000/svg">
<g id="fluent:handshake-16-regular">
<path id="Vector" d="M18.4612 4.51355C18.2987 4.51354 18.1381 4.54873 17.9906 4.6167C17.843 4.68467 17.7118 4.78381 17.6062 4.9073L17.4937 4.9883C14.1075 3.9938 10.2667 4.7633 7.58696 7.29905C5.20871 9.5468 4.29971 12.6563 4.85771 15.5655L4.82396 15.597L3.31421 17.0258C3.00661 17.3096 2.76112 17.654 2.59321 18.0374C2.42531 18.4208 2.33862 18.8348 2.33862 19.2533C2.33862 19.6718 2.42531 20.0858 2.59321 20.4692C2.76112 20.8526 3.00661 21.197 3.31421 21.4808C4.08371 22.212 5.14121 22.509 6.14246 22.3718C6.28646 22.896 6.57671 23.3933 7.01096 23.805C7.59821 24.3608 8.35196 24.6646 9.12146 24.7186C9.17771 25.4453 9.49946 26.1586 10.089 26.7143C10.674 27.2701 11.4277 27.5738 12.1972 27.6278C12.2535 28.3546 12.5752 29.0678 13.1647 29.6236C13.7516 30.1659 14.5073 30.4895 15.3048 30.5399C16.1023 30.5903 16.8928 30.3644 17.5432 29.9003L18.2857 30.6023C19.5907 31.8398 21.7125 31.8398 23.0197 30.6023C23.6047 30.0466 23.9287 29.3401 23.9872 28.6156C24.7522 28.5593 25.4992 28.2556 26.0842 27.7021C26.6692 27.1486 26.9932 26.4398 27.0517 25.7153C27.8055 25.6546 28.5412 25.3508 29.1217 24.8041C29.574 24.3743 29.871 23.85 30.006 23.2988C30.996 23.418 32.0287 23.1188 32.787 22.4033C33.0946 22.1195 33.3401 21.7751 33.508 21.3917C33.6759 21.0083 33.7626 20.5943 33.7626 20.1758C33.7626 19.7573 33.6759 19.3433 33.508 18.9599C33.3401 18.5765 33.0946 18.2321 32.787 17.9483L31.4505 16.6838L31.7047 15.7388C32.2954 13.5495 31.9969 11.2155 30.8745 9.2453C29.2207 6.3158 26.019 4.5203 22.572 4.5203H20.2792L19.9687 4.51355H18.4612ZM28.2982 16.7918L29.3917 17.8718C29.4599 17.9382 29.5363 17.9956 29.619 18.0428L31.1512 19.4918C31.246 19.5782 31.3218 19.6835 31.3736 19.8009C31.4255 19.9183 31.4522 20.0452 31.4522 20.1735C31.4522 20.3019 31.4255 20.4288 31.3736 20.5462C31.3218 20.6636 31.246 20.7689 31.1512 20.8553C30.9556 21.0372 30.6983 21.1383 30.4312 21.1383C30.1641 21.1383 29.9069 21.0372 29.7112 20.8553L27.1462 18.4321C26.9238 18.2266 26.6322 18.1126 26.3295 18.1126C26.0267 18.1126 25.7351 18.2266 25.5127 18.4321L25.4857 18.4545C25.3794 18.5535 25.2946 18.6733 25.2367 18.8065C25.1787 18.9396 25.1488 19.0833 25.1488 19.2285C25.1488 19.3738 25.1787 19.5175 25.2367 19.6506C25.2946 19.7838 25.3794 19.9036 25.4857 20.0026L27.486 21.8925C27.5799 21.9795 27.6548 22.085 27.7061 22.2023C27.7573 22.3196 27.7838 22.4463 27.7838 22.5743C27.7838 22.7023 27.7573 22.829 27.7061 22.9463C27.6548 23.0636 27.5799 23.1691 27.486 23.2561C27.308 23.4225 27.078 23.5223 26.8349 23.5387C26.5918 23.5551 26.3504 23.4871 26.1517 23.3461C25.9252 23.1861 25.6506 23.109 25.3739 23.1279C25.0973 23.1467 24.8356 23.2603 24.633 23.4496C24.437 23.632 24.318 23.8825 24.3005 24.1497C24.2829 24.4169 24.368 24.6807 24.5385 24.8873C24.6892 25.0699 24.764 25.3036 24.7472 25.5398C24.7304 25.776 24.6235 25.9968 24.4485 26.1563C24.2681 26.325 24.0343 26.4253 23.7877 26.4397C23.5411 26.454 23.2973 26.3817 23.0985 26.2351C22.8735 26.0701 22.5983 25.9882 22.3197 26.0034C22.0411 26.0186 21.7764 26.1299 21.5707 26.3183C21.3715 26.5005 21.2501 26.7525 21.2316 27.0219C21.2132 27.2912 21.2992 27.5574 21.4717 27.7651C21.7867 28.1476 21.7575 28.7033 21.384 29.0565C21.1846 29.24 20.9236 29.3418 20.6527 29.3418C20.3818 29.3418 20.1208 29.24 19.9215 29.0565L19.197 28.3726L19.386 28.1948C19.6936 27.911 19.9391 27.5666 20.107 27.1832C20.2749 26.7998 20.3616 26.3858 20.3616 25.9673C20.3616 25.5488 20.2749 25.1348 20.107 24.7514C19.9391 24.368 19.6936 24.0236 19.386 23.7398C18.8111 23.1976 18.0642 22.8743 17.2755 22.8263C17.2139 22.0635 16.8687 21.3514 16.308 20.8306C15.734 20.288 14.988 19.964 14.1997 19.9148C14.1381 19.152 13.7929 18.4399 13.2322 17.9191C12.857 17.5692 12.4083 17.3076 11.9189 17.1534C11.4296 16.9993 10.912 16.9564 10.404 17.028C10.2488 16.4815 9.94872 15.987 9.53546 15.597C9.20414 15.2863 8.81424 15.0447 8.38852 14.8863C7.96281 14.728 7.50981 14.656 7.05596 14.6745C6.93589 13.6013 7.06916 12.5148 7.44507 11.5023C7.82098 10.4899 8.42905 9.57967 9.22046 8.8448C9.99567 8.12162 10.9104 7.56439 11.9086 7.20728C12.9068 6.85017 13.9674 6.70071 15.0255 6.76805L12.5617 8.54555C12.1836 8.81397 11.8647 9.15723 11.6248 9.55402C11.3849 9.95082 11.2291 10.3927 11.1671 10.8522C11.1051 11.3117 11.1381 11.7791 11.2642 12.2253C11.3904 12.6715 11.6068 13.087 11.9002 13.446C12.492 14.171 13.3371 14.644 14.2645 14.7693C15.1919 14.8946 16.1322 14.6629 16.8952 14.121L19.926 11.9385H23.166L28.2982 16.7918ZM13.878 10.368L18.8797 6.76355H19.971L20.2522 6.7703H22.5697C25.2517 6.7703 27.6817 8.1653 28.9147 10.3523C29.709 11.754 29.9452 13.3673 29.5942 14.9108L24.615 10.0103C24.4047 9.80411 24.122 9.68859 23.8275 9.68855H19.5592C19.3235 9.68847 19.0936 9.76245 18.9022 9.90005L15.5812 12.2963C15.2854 12.5019 14.9233 12.5891 14.5663 12.5408C14.2094 12.4924 13.8835 12.3121 13.653 12.0353C13.5514 11.9141 13.4762 11.7731 13.4322 11.6211C13.3882 11.4692 13.3765 11.3098 13.3976 11.1531C13.4188 10.9964 13.4725 10.8458 13.5552 10.711C13.6379 10.5762 13.7478 10.4602 13.878 10.3703M16.3125 25.2856C16.5084 25.104 16.7658 25.0033 17.0329 25.0037C17.3 25.0041 17.5571 25.1056 17.7525 25.2878C17.8473 25.3743 17.9231 25.4795 17.9749 25.5969C18.0267 25.7143 18.0535 25.8412 18.0535 25.9696C18.0535 26.0979 18.0267 26.2248 17.9749 26.3422C17.9231 26.4596 17.8473 26.5649 17.7525 26.6513L16.2405 28.08C16.0448 28.2619 15.7876 28.363 15.5205 28.363C15.2533 28.363 14.9961 28.2619 14.8005 28.08C14.7056 27.9936 14.6299 27.8883 14.578 27.7709C14.5262 27.6535 14.4994 27.5266 14.4994 27.3983C14.4994 27.27 14.5262 27.1431 14.578 27.0257C14.6299 26.9083 14.7056 26.803 14.8005 26.7165L16.3125 25.2856ZM14.679 23.7376L13.1647 25.1708C12.9689 25.3533 12.7112 25.4548 12.4436 25.4548C12.1759 25.4548 11.9182 25.3533 11.7225 25.1708C11.6298 25.0861 11.5553 24.9834 11.5037 24.8689C11.4521 24.7545 11.4243 24.6307 11.4222 24.5051C11.4201 24.3796 11.4437 24.255 11.4914 24.1388C11.5392 24.0227 11.6101 23.9175 11.7 23.8298L11.7225 23.8073L13.2322 22.3785L13.2547 22.356C13.452 22.183 13.7065 22.0894 13.9689 22.0936C14.2313 22.0977 14.4828 22.1993 14.6745 22.3785C14.7689 22.4646 14.8443 22.5694 14.8961 22.6862C14.9479 22.803 14.9749 22.9293 14.9753 23.0571C14.9757 23.1848 14.9496 23.3113 14.8986 23.4284C14.8476 23.5456 14.7728 23.6508 14.679 23.7376ZM11.5965 20.8328L10.089 22.2593L10.0642 22.2818C9.86709 22.4542 9.613 22.5474 9.35113 22.5433C9.08926 22.5391 8.83825 22.4379 8.64671 22.2593C8.55188 22.1728 8.47612 22.0676 8.42429 21.9502C8.37245 21.8328 8.34568 21.7059 8.34568 21.5776C8.34568 21.4492 8.37245 21.3223 8.42429 21.2049C8.47612 21.0875 8.55188 20.9822 8.64671 20.8958L10.1542 19.4693C10.3501 19.2861 10.6083 19.1842 10.8765 19.1842C11.1446 19.1842 11.4028 19.2861 11.5987 19.4693C11.6914 19.554 11.7659 19.6567 11.8175 19.7712C11.8691 19.8856 11.8968 20.0094 11.8989 20.135C11.901 20.2605 11.8775 20.3851 11.8297 20.5013C11.782 20.6174 11.711 20.7226 11.6212 20.8103L11.5965 20.8328ZM7.90196 18.5063L6.39221 19.935C6.19656 20.1169 5.93934 20.218 5.67221 20.218C5.40509 20.218 5.14786 20.1169 4.95221 19.935C4.85738 19.8486 4.78162 19.7433 4.72979 19.6259C4.67795 19.5085 4.65118 19.3816 4.65118 19.2533C4.65118 19.125 4.67795 18.9981 4.72979 18.8807C4.78162 18.7633 4.85738 18.658 4.95221 18.5715L6.45971 17.1428C6.65548 16.9603 6.91318 16.8588 7.18084 16.8588C7.44849 16.8588 7.70619 16.9603 7.90196 17.1428C7.9968 17.2292 8.07255 17.3345 8.12439 17.4519C8.17622 17.5693 8.20299 17.6962 8.20299 17.8245C8.20299 17.9529 8.17622 18.0798 8.12439 18.1972C8.07255 18.3146 7.9968 18.4199 7.90196 18.5063Z" fill="white"/>
</g>
</svg>
