<svg width="29" height="28" viewBox="0 0 29 28" fill="none" xmlns="http://www.w3.org/2000/svg">
<g id="Image 2">
<path id="Vector" fill-rule="evenodd" clip-rule="evenodd" d="M8.17667 0.362782C9.7947 0.187479 11.8341 0.187489 14.4359 0.1875H14.5641C17.1659 0.187489 19.2053 0.187479 20.8233 0.362782C22.4745 0.541676 23.8124 0.913293 24.9547 1.74322C25.6462 2.24565 26.2544 2.85379 26.7568 3.54533C27.5867 4.68763 27.9583 6.0255 28.1372 7.67667C28.3125 9.29467 28.3125 11.3342 28.3125 13.9359V14.0085C28.3125 15.3321 28.3125 16.505 28.291 17.5424C28.2279 20.594 27.9891 22.7585 26.7568 24.4547C26.2544 25.1462 25.6462 25.7544 24.9547 26.2568C23.8124 27.0867 22.4745 27.4583 20.8233 27.6372C19.2053 27.8125 17.1659 27.8125 14.5642 27.8125H14.4359C11.8342 27.8125 9.79467 27.8125 8.17667 27.6372C6.5255 27.4583 5.18762 27.0867 4.04533 26.2568C3.37889 25.7726 2.7899 25.1902 2.29833 24.5296C2.27982 24.5047 2.26145 24.4798 2.24322 24.4547C1.41329 23.3124 1.04168 21.9745 0.862782 20.3233C0.687479 18.7053 0.687489 16.6659 0.6875 14.0641V13.9359C0.687489 11.3341 0.68748 9.2947 0.862782 7.67667C1.04168 6.0255 1.41329 4.68763 2.24322 3.54533C2.74565 2.8538 3.3538 2.24565 4.04533 1.74322C5.18763 0.913293 6.5255 0.541676 8.17667 0.362782ZM26.1809 16.4815L26.0916 16.3953C25.7006 16.0198 25.4118 15.7656 25.14 15.5727C22.0959 13.4113 17.8969 13.9837 15.5423 16.881C15.258 17.2308 14.9733 17.6971 14.5258 18.4798L13.7917 18.25C12.098 17.9113 11.2512 17.7419 10.474 17.7584C8.39395 17.8026 6.43854 18.7589 5.12668 20.3737C4.68935 20.912 4.33479 21.5848 3.71494 22.8206C3.79139 22.9559 3.87375 23.0836 3.96238 23.2056L4.00312 23.261C4.36645 23.7493 4.80179 24.1797 5.29438 24.5376C6.01405 25.0605 6.93519 25.3653 8.40556 25.5246C9.89582 25.686 11.8203 25.6875 14.5 25.6875C17.1797 25.6875 19.1042 25.686 20.5944 25.5246C22.0648 25.3653 22.986 25.0605 23.7056 24.5376C24.2168 24.1663 24.6663 23.7168 25.0376 23.2056C25.8333 22.1104 26.1025 20.5912 26.1665 17.4984C26.1732 17.1741 26.1778 16.8356 26.1809 16.4815ZM13.0833 12.5833C11.5185 12.5833 10.25 11.3148 10.25 9.75C10.25 8.18519 11.5185 6.91667 13.0833 6.91667C14.6481 6.91667 15.9167 8.18519 15.9167 9.75C15.9167 11.3148 14.6481 12.5833 13.0833 12.5833Z" fill="url(#paint0_linear_655_2101)"/>
</g>
<defs>
<linearGradient id="paint0_linear_655_2101" x1="0.0622711" y1="12.0252" x2="29.2588" y2="14.9662" gradientUnits="userSpaceOnUse">
<stop offset="3.01917e-07" stop-color="#006CD4"/>
<stop offset="0.2954" stop-color="#0675D5"/>
<stop offset="0.7849" stop-color="#168FD6"/>
<stop offset="1" stop-color="#1E9CD7"/>
</linearGradient>
</defs>
</svg>
