<svg width="25" height="25" viewBox="0 0 25 25" fill="none" xmlns="http://www.w3.org/2000/svg">
<g id="Home 4">
<path id="Vector" d="M2.49753 16.1379L3.21083 15.9062L2.49753 16.1379ZM1.29449 9.45583L2.0158 9.66128L1.29449 9.45583ZM6.31814 4.37931L5.8773 3.77255L6.31814 4.37931ZM1.41722 9.07811L2.12153 9.33587H2.12153L1.41722 9.07811ZM5.77319 22.4844L5.35489 23.1069L5.77319 22.4844ZM5.45189 22.251L4.9891 22.8412L5.45189 22.251ZM22.5025 16.1379L21.7892 15.9062L22.5025 16.1379ZM19.5481 22.251L20.0109 22.8412L19.5481 22.251ZM19.2268 22.4844L19.6451 23.1069L19.2268 22.4844ZM18.6819 4.37931L19.1227 3.77255L18.6819 4.37931ZM23.5828 9.07811L22.8785 9.33587L23.5828 9.07811ZM23.7055 9.45583L22.9842 9.66128L23.7055 9.45583ZM12.6986 1.17027L12.6711 1.91976L12.6986 1.17027ZM12.3014 1.17027L12.3289 1.91976L12.3014 1.17027ZM11.75 20.4713C11.75 20.8855 12.0858 21.2213 12.5 21.2213C12.9142 21.2213 13.25 20.8855 13.25 20.4713H11.75ZM13.25 18.3046C13.25 17.8904 12.9142 17.5546 12.5 17.5546C12.0858 17.5546 11.75 17.8904 11.75 18.3046H13.25ZM16.8333 23.2735L16.9235 24.018L16.8333 23.2735ZM3.21083 15.9062C2.65403 14.1925 2.25581 12.9636 2.04668 11.9649C1.84117 10.9835 1.83518 10.2954 2.0158 9.66128L0.573179 9.25037C0.301566 10.2039 0.345343 11.1588 0.578526 12.2724C0.808103 13.3687 1.23752 14.687 1.78424 16.3697L3.21083 15.9062ZM5.8773 3.77255C4.44596 4.81248 3.32367 5.62662 2.49351 6.37865C1.65031 7.14251 1.05365 7.88925 0.712899 8.82036L2.12153 9.33587C2.34813 8.7167 2.75741 8.16356 3.50057 7.49033C4.25677 6.80529 5.30127 6.04517 6.75898 4.98608L5.8773 3.77255ZM2.0158 9.66128C2.04705 9.55156 2.08232 9.44301 2.12153 9.33587L0.712899 8.82036C0.661085 8.96194 0.61448 9.10537 0.573179 9.25037L2.0158 9.66128ZM1.78424 16.3697C2.33096 18.0523 2.75845 19.3713 3.21714 20.3932C3.68305 21.4312 4.20887 22.2294 4.9891 22.8412L5.91467 21.6608C5.39583 21.254 4.99624 20.6938 4.58561 19.7789C4.16778 18.8481 3.76762 17.6198 3.21083 15.9062L1.78424 16.3697ZM6.19149 21.8619C6.09679 21.7983 6.00446 21.7312 5.91467 21.6608L4.9891 22.8412C5.10774 22.9342 5.22976 23.0229 5.35489 23.1069L6.19149 21.8619ZM21.7892 15.9062C21.2324 17.6198 20.8322 18.8481 20.4144 19.7789C20.0038 20.6938 19.6042 21.254 19.0853 21.6608L20.0109 22.8412C20.7911 22.2294 21.317 21.4312 21.7829 20.3932C22.2416 19.3713 22.669 18.0523 23.2158 16.3697L21.7892 15.9062ZM19.0853 21.6608C18.9956 21.7312 18.9032 21.7983 18.8085 21.8619L19.6451 23.1069C19.7703 23.0229 19.8923 22.9342 20.0109 22.8412L19.0853 21.6608ZM18.241 4.98608C19.6987 6.04517 20.7432 6.80529 21.4994 7.49033C22.2426 8.16356 22.6519 8.7167 22.8785 9.33587L24.2871 8.82036C23.9464 7.88925 23.3497 7.14251 22.5065 6.37865C21.6763 5.62662 20.554 4.81248 19.1227 3.77255L18.241 4.98608ZM23.2158 16.3697C23.7625 14.687 24.1919 13.3687 24.4215 12.2724C24.6547 11.1588 24.6984 10.2039 24.4268 9.25037L22.9842 9.66128C23.1648 10.2954 23.1588 10.9835 22.9533 11.9649C22.7442 12.9636 22.346 14.1925 21.7892 15.9062L23.2158 16.3697ZM22.8785 9.33587C22.9177 9.44301 22.953 9.55155 22.9842 9.66128L24.4268 9.25037C24.3855 9.10537 24.3389 8.96194 24.2871 8.82036L22.8785 9.33587ZM19.1227 3.77255C17.6914 2.73262 16.5703 1.91684 15.5985 1.3597C14.6115 0.793815 13.7169 0.45712 12.7261 0.420771L12.6711 1.91976C13.33 1.94393 13.9825 2.16225 14.8524 2.661C15.7376 3.16851 16.7833 3.92699 18.241 4.98608L19.1227 3.77255ZM6.75898 4.98608C8.21669 3.92699 9.26238 3.16851 10.1476 2.661C11.0175 2.16225 11.67 1.94393 12.3289 1.91976L12.2739 0.420771C11.2831 0.45712 10.3885 0.793815 9.4015 1.3597C8.42974 1.91684 7.30864 2.73262 5.8773 3.77255L6.75898 4.98608ZM12.7261 0.420771C12.5754 0.415244 12.4246 0.415244 12.2739 0.420771L12.3289 1.91976C12.4429 1.91558 12.5571 1.91558 12.6711 1.91976L12.7261 0.420771ZM16.0833 18.3046V22.6379H17.5833V18.3046H16.0833ZM8.91667 22.6379V18.3046H7.41667V22.6379H8.91667ZM12.5 14.7213C14.479 14.7213 16.0833 16.3256 16.0833 18.3046H17.5833C17.5833 15.4971 15.3075 13.2213 12.5 13.2213V14.7213ZM12.5 13.2213C9.69256 13.2213 7.41667 15.4971 7.41667 18.3046H8.91667C8.91667 16.3256 10.521 14.7213 12.5 14.7213V13.2213ZM13.25 20.4713V18.3046H11.75V20.4713H13.25ZM12.5 24.1551C14.3487 24.1551 15.7812 24.1564 16.9235 24.018L16.7431 22.5289C15.7119 22.6539 14.386 22.6551 12.5 22.6551V24.1551ZM16.9235 24.018C17.9853 23.8894 18.8601 23.6344 19.6451 23.1069L18.8085 21.8619C18.2861 22.2129 17.6645 22.4173 16.7431 22.5289L16.9235 24.018ZM16.0833 22.6379V23.2735H17.5833V22.6379H16.0833ZM12.5 22.6551C10.614 22.6551 9.28816 22.6539 8.25687 22.5289L8.07648 24.018C9.21882 24.1564 10.6513 24.1551 12.5 24.1551V22.6551ZM8.25687 22.5289C7.33553 22.4173 6.71391 22.2129 6.19149 21.8619L5.35489 23.1069C6.13988 23.6344 7.01472 23.8894 8.07648 24.018L8.25687 22.5289ZM7.41667 22.6379V23.2735H8.91667V22.6379H7.41667Z" fill="url(#paint0_linear_1012_1285)"/>
</g>
<defs>
<linearGradient id="paint0_linear_1012_1285" x1="0.621717" y1="10.6961" x2="24.6318" y2="13.1679" gradientUnits="userSpaceOnUse">
<stop offset="3.01917e-07" stop-color="#006CD4"/>
<stop offset="0.2954" stop-color="#0675D5"/>
<stop offset="0.7849" stop-color="#168FD6"/>
<stop offset="1" stop-color="#1E9CD7"/>
</linearGradient>
</defs>
</svg>
