<svg width="50" height="50" viewBox="0 0 50 50" fill="none" xmlns="http://www.w3.org/2000/svg">
<path d="M10.5935 35.2695C14.8201 34.0547 25.8045 30.5625 40.2537 31.3711C40.7107 31.3984 40.7615 32.0547 40.3162 32.1445C33.6092 33.5234 16.699 37.0937 11.9685 38.9531C11.2146 39.25 10.3631 38.9258 9.99978 38.1992C9.88259 37.9609 9.75759 37.7109 9.63259 37.4648C9.52902 37.2605 9.47194 37.0358 9.46547 36.8069C9.45899 36.5779 9.50326 36.3503 9.59511 36.1405C9.68697 35.9306 9.82412 35.7437 9.99674 35.5931C10.1694 35.4426 10.3732 35.332 10.5935 35.2695Z" fill="#F44336"/>
<path d="M2.71877 44.2578C9.3633 42.6016 37.25 35.6133 48.0469 35.7266C48.5156 35.7305 48.586 36.3984 48.1289 36.5C39.7305 38.3164 10.7774 45.0352 4.14065 48.2852C3.29299 48.6992 2.27737 48.2578 1.98049 47.3633L1.66799 46.4297C1.32815 45.4023 1.83596 44.4766 2.71877 44.2578ZM2.53908 10.6758C1.1719 11.2539 1.37112 8.54687 2.31643 7.8125C5.05471 5.68359 11.75 3.17969 15.625 1.63281C16.4219 1.3164 17.2031 2.13281 16.8555 2.91797C14.7461 7.6875 8.5469 21.582 4.68752 33.875C4.4883 34.5078 3.19143 34.543 3.12502 33.8789C2.77346 30.2852 5.27346 20.375 10.5899 8.78906C10.7813 8.375 10.3633 7.92969 9.91799 8.03125C8.3594 8.39844 5.96877 9.23047 2.53908 10.6758ZM43.6719 3.39844C43.5977 3.3789 43.1289 3.2539 42.9531 3.24609C31.2422 2.83984 25.7774 6.55859 25.5821 6.71484C24.9102 7.25781 24.8047 8.24219 25.3477 8.91015C25.7813 9.44531 26.2227 9.51172 26.4571 9.50781C26.5547 9.5039 26.6406 9.5664 26.668 9.66406C27.1485 11.582 27.2305 14.3281 26.375 17.5469C24.8946 23.1016 21.6641 26.1719 19.9961 26.1719C19.9024 26.1719 19.8125 26.1602 19.7305 26.1367C19.0508 25.957 18.3555 24.8828 17.961 23.4023C17.3711 21.1719 17.4688 18.25 18.2305 15.3828C19.2656 11.4844 21.168 8.8125 22.7852 7.5664C23.5274 6.99609 24.1211 6.2539 24.5547 5.42187C24.5586 5.41797 24.5586 5.41015 24.5625 5.40625C24.7578 5.03125 25.668 3.26562 24.6055 3.24219C20.7656 3.24219 16.5742 7.93359 14.836 14.4766C12.918 21.6953 14.7071 28.4336 18.8321 29.5312C19.2149 29.6328 19.6055 29.6836 20.0039 29.6836C23.8438 29.6836 28.0352 24.9922 29.7735 18.4492C30.7422 14.8086 30.7617 11.293 30.0156 8.5625C29.9258 8.23828 30.1055 7.90234 30.4258 7.79297C31.5938 7.39062 33.8477 6.98047 35.8164 6.69922C36.125 6.65625 36.336 7.00781 36.1446 7.2539C34.6992 9.16015 33.4883 11.6445 32.7344 14.4805C30.8164 21.6992 32.6055 28.4375 36.7305 29.5352C37.1133 29.6367 37.5039 29.6875 37.9024 29.6875C41.7422 29.6875 45.9336 24.9961 47.6719 18.4531C49.586 11.2344 47.7969 4.49219 43.6719 3.39844ZM44.2696 17.5469C42.793 23.1016 39.5664 26.1719 37.8985 26.1719C37.8047 26.1719 37.7149 26.1602 37.6328 26.1367C36.9531 25.957 36.2578 24.8828 35.8633 23.4023C35.2735 21.1719 35.3711 18.25 36.1328 15.3828C37.6094 9.83203 40.836 6.75781 42.5078 6.75781C42.6016 6.75781 42.6875 6.76953 42.7735 6.79297C44.2031 7.17578 45.8633 11.5508 44.2696 17.5469Z" fill="#F44336" stroke="#F44336" stroke-miterlimit="10"/>
</svg>
