<svg width="20" height="18" viewBox="0 0 20 18" fill="none" xmlns="http://www.w3.org/2000/svg">
<g id="Heart 2">
<g id="Vector">
<path d="M6.13932 4.14263C6.49425 4.00775 6.67264 3.61068 6.53776 3.25575C6.40288 2.90082 6.00581 2.72243 5.65088 2.85731C5.12769 3.05612 4.62187 3.37936 4.14867 3.84852C3.54886 4.44321 3.14924 5.11851 2.92592 5.84271C2.81403 6.20555 3.01747 6.59039 3.3803 6.70227C3.74314 6.81416 4.12798 6.61073 4.23987 6.24789C4.39566 5.74266 4.67516 5.26279 5.11676 4.82495C5.46352 4.48116 5.80867 4.26828 6.13932 4.14263Z" fill="black"/>
<path fill-rule="evenodd" clip-rule="evenodd" d="M18.1093 1.6076C16.8923 0.366588 15.5376 -0.0173337 14.2654 0.0758031C13.0275 0.166421 11.9128 0.703377 11.0986 1.21985C10.4565 1.62715 9.54258 1.62715 8.9005 1.21986C8.08631 0.703383 6.97156 0.166434 5.73372 0.0758172C4.46149 -0.0173178 3.10676 0.366601 1.88983 1.60761C0.45316 3.0727 0.00241879 4.88131 0.183418 6.71077C0.362331 8.51913 1.15555 10.3574 2.21349 11.9863C3.27425 13.6196 4.62926 15.086 5.98864 16.1507C7.31813 17.192 8.76466 17.9375 9.99957 17.9375C11.2345 17.9375 12.681 17.192 14.0105 16.1507C15.3699 15.086 16.7249 13.6196 17.7856 11.9863C18.8436 10.3574 19.6368 8.51913 19.8157 6.71076C19.9967 4.88131 19.546 3.0727 18.1093 1.6076ZM11.8351 2.38095C12.5551 1.92423 13.4463 1.51445 14.3658 1.44713C15.2508 1.38234 16.2048 1.62929 17.1275 2.57031C18.2305 3.69509 18.5957 5.07655 18.4474 6.57539C18.297 8.09531 17.6157 9.72352 16.6325 11.2374C15.6521 12.7469 14.3993 14.0996 13.1626 15.0682C11.8961 16.0602 10.7585 16.5625 9.99957 16.5625C9.24067 16.5625 8.10303 16.0602 6.8365 15.0682C5.59987 14.0996 4.34703 12.7469 3.36662 11.2374C2.38338 9.72352 1.70211 8.09531 1.55174 6.57539C1.40345 5.07655 1.76862 3.69509 2.87158 2.57031C3.79432 1.62931 4.74827 1.38236 5.63334 1.44715C6.55281 1.51446 7.44398 1.92423 8.16398 2.38095C9.25566 3.07345 10.7434 3.07345 11.8351 2.38095Z" fill="black"/>
</g>
</g>
</svg>
