<svg width="10" height="13" viewBox="0 0 10 13" fill="none" xmlns="http://www.w3.org/2000/svg">
<g id="Location">
<path id="Vector" fill-rule="evenodd" clip-rule="evenodd" d="M6.62217 11.4919C7.96953 9.77372 9.66671 7.27754 9.66671 5.60499C9.66671 2.83156 7.57737 0.583252 5.00004 0.583252C2.42271 0.583252 0.333374 2.83156 0.333374 5.60499C0.333374 7.27754 2.03055 9.77372 3.37791 11.4919C4.08085 12.3883 4.43232 12.8364 5.00004 12.8364C5.56776 12.8364 5.91923 12.3883 6.62217 11.4919ZM5.00004 7.58325C4.03354 7.58325 3.25004 6.79975 3.25004 5.83325C3.25004 4.86675 4.03354 4.08325 5.00004 4.08325C5.96654 4.08325 6.75004 4.86675 6.75004 5.83325C6.75004 6.79975 5.96654 7.58325 5.00004 7.58325Z" fill="black"/>
</g>
</svg>
