<svg width="24" height="25" viewBox="0 0 24 25" fill="none" xmlns="http://www.w3.org/2000/svg">
<path d="M10 21.5V20.75V21.5ZM9 21.5V22.25V21.5ZM3 15.5H3.75H3ZM3 9.5H2.25H3ZM9 3.5V2.75V3.5ZM10 3.5V4.25V3.5ZM3.06156 7.71783L2.32079 7.6005L2.32079 7.6005L3.06156 7.71783ZM7.21783 3.56156L7.33515 4.30232L7.21783 3.56156ZM7.21783 21.4384L7.1005 22.1792H7.1005L7.21783 21.4384ZM3.06156 17.2822L2.32079 17.3995L2.32079 17.3995L3.06156 17.2822ZM13.4504 21.1C13.7816 20.8513 13.8484 20.3811 13.5997 20.0499C13.3509 19.7187 12.8808 19.6519 12.5496 19.9007L13.4504 21.1ZM12.5496 5.09931C12.8808 5.34808 13.3509 5.28126 13.5997 4.95007C13.8484 4.61888 13.7816 4.14873 13.4504 3.89996L12.5496 5.09931ZM7 11.75C6.58579 11.75 6.25 12.0858 6.25 12.5C6.25 12.9142 6.58579 13.25 7 13.25V11.75ZM20 12.5V13.25V12.5ZM17.466 7.91232C17.1414 7.65497 16.6697 7.70946 16.4123 8.03403C16.155 8.3586 16.2095 8.83034 16.534 9.08768L17.466 7.91232ZM18.763 9.89785L19.2289 9.31016L18.763 9.89785ZM18.763 15.1022L19.2289 15.6898L18.763 15.1022ZM16.534 15.9123C16.2095 16.1697 16.155 16.6414 16.4123 16.966C16.6697 17.2905 17.1414 17.345 17.466 17.0877L16.534 15.9123ZM20.9801 12.2493L21.7208 12.1313V12.1313L20.9801 12.2493ZM20.9801 12.7507L21.7208 12.8687V12.8687L20.9801 12.7507ZM21 12.5H21.75H21ZM10 20.75H9V22.25H10V20.75ZM3.75 15.5L3.75 9.5H2.25L2.25 15.5H3.75ZM9 4.25L10 4.25V2.75L9 2.75V4.25ZM3.75 9.5C3.75 8.54233 3.75233 8.15082 3.80232 7.83515L2.32079 7.6005C2.24767 8.06216 2.25 8.59965 2.25 9.5H3.75ZM9 2.75C8.09966 2.75 7.56216 2.74767 7.1005 2.82079L7.33515 4.30232C7.65082 4.25233 8.04233 4.25 9 4.25V2.75ZM3.80232 7.83515C4.09035 6.01661 5.51661 4.59035 7.33515 4.30232L7.1005 2.82079C4.64012 3.21048 2.71048 5.14012 2.32079 7.6005L3.80232 7.83515ZM9 20.75C8.04233 20.75 7.65082 20.7477 7.33515 20.6977L7.1005 22.1792C7.56216 22.2523 8.09965 22.25 9 22.25V20.75ZM2.25 15.5C2.25 16.4003 2.24767 16.9378 2.32079 17.3995L3.80232 17.1648C3.75233 16.8492 3.75 16.4577 3.75 15.5H2.25ZM7.33515 20.6977C5.51661 20.4096 4.09035 18.9834 3.80232 17.1648L2.32079 17.3995C2.71048 19.8599 4.64012 21.7895 7.1005 22.1792L7.33515 20.6977ZM10 22.25C11.2936 22.25 12.4894 21.8219 13.4504 21.1L12.5496 19.9007C11.8393 20.4342 10.9576 20.75 10 20.75V22.25ZM10 4.25C10.9576 4.25 11.8393 4.56583 12.5496 5.09931L13.4504 3.89996C12.4894 3.17806 11.2936 2.75 10 2.75V4.25ZM7 13.25L20 13.25V11.75L7 11.75V13.25ZM16.534 9.08768L18.297 10.4855L19.2289 9.31016L17.466 7.91232L16.534 9.08768ZM18.297 14.5145L16.534 15.9123L17.466 17.0877L19.2289 15.6898L18.297 14.5145ZM18.297 10.4855C19.0143 11.0543 19.5012 11.4418 19.8289 11.7682C20.1532 12.0913 20.2225 12.2612 20.2395 12.3673L21.7208 12.1313C21.6294 11.5582 21.2932 11.1096 20.8875 10.7055C20.4852 10.3047 19.9176 9.85616 19.2289 9.31016L18.297 10.4855ZM19.2289 15.6898C19.9175 15.1438 20.4852 14.6953 20.8875 14.2945C21.2932 13.8904 21.6294 13.4418 21.7208 12.8687L20.2395 12.6327C20.2225 12.7388 20.1532 12.9087 19.8289 13.2318C19.5012 13.5582 19.0143 13.9457 18.297 14.5145L19.2289 15.6898ZM20.2395 12.3673C20.2465 12.4117 20.25 12.4559 20.25 12.5H21.75C21.75 12.3766 21.7402 12.2534 21.7208 12.1313L20.2395 12.3673ZM20.25 12.5C20.25 12.5441 20.2465 12.5883 20.2395 12.6327L21.7208 12.8687C21.7402 12.7466 21.75 12.6234 21.75 12.5H20.25ZM20 13.25H21V11.75H20V13.25Z" fill="#FF3D00"/>
</svg>
