<svg width="26" height="20" viewBox="0 0 26 20" fill="none" xmlns="http://www.w3.org/2000/svg">
<g id="Ticket Expired">
<path id="Vector" d="M12.9311 18.6667L7.38834 18.6667C5.79171 18.6667 4.3177 17.8105 3.52663 16.4237L3.32366 16.0678C3.26977 15.9734 3.22824 15.8723 3.20009 15.7673C3.07368 15.2955 3.22903 14.793 3.59965 14.4749L4.16836 13.9867C5.73516 12.6419 5.04917 10.0817 3.01985 9.70043L2.44427 9.59229C1.86582 9.48361 1.40096 9.05283 1.24863 8.48432C0.560392 5.91578 2.08468 3.27564 4.65322 2.5874V2.5874C6.3358 2.13655 7.1771 1.91113 7.8572 2.25269C7.92654 2.28751 7.9938 2.32634 8.05862 2.36898C8.69448 2.78719 8.9199 3.62848 9.37075 5.31107L9.86922 7.17137L10.7644 10.6472M10.7644 18.6667H20.0329C22.6921 18.6667 24.8477 16.511 24.8477 13.8519C24.8477 13.2633 24.5102 12.7269 23.9796 12.4722L23.4516 12.2188C21.5901 11.3253 21.5901 8.6748 23.4516 7.78129L23.9796 7.52786C24.5102 7.27317 24.8477 6.73675 24.8477 6.14819C24.8477 3.48904 22.6921 1.33337 20.0329 1.33337H14.7644C12.8788 1.33337 11.936 1.33337 11.3502 1.91916C10.7644 2.50495 10.7644 3.44776 10.7644 5.33337V11.0834" stroke="#2D264B" stroke-width="1.5" stroke-linecap="round"/>
<path id="Vector_2" d="M10.7644 5.66675L10.7644 18.6667" stroke="#2D264B" stroke-width="1.5" stroke-linecap="round" stroke-dasharray="2 3"/>
</g>
</svg>
