<svg width="26" height="20" viewBox="0 0 26 20" fill="none" xmlns="http://www.w3.org/2000/svg">
<g id="Ticket Expired">
<path id="Vector" d="M12.9312 18.6666L7.38846 18.6666C5.79183 18.6666 4.31782 17.8104 3.52675 16.4235L3.32378 16.0677C3.2699 15.9732 3.22837 15.8722 3.20022 15.7672C3.0738 15.2954 3.22915 14.7929 3.59978 14.4748L4.16848 13.9866C5.73528 12.6418 5.04929 10.0816 3.01997 9.70031L2.44439 9.59216C1.86595 9.48348 1.40108 9.05271 1.24875 8.4842C0.560514 5.91566 2.0848 3.27552 4.65334 2.58728V2.58728C6.33592 2.13643 7.17722 1.91101 7.85733 2.25257C7.92667 2.28739 7.99392 2.32622 8.05875 2.36886C8.6946 2.78707 8.92003 3.62836 9.37087 5.31095L9.86934 7.17125L10.7645 10.6471M10.7645 18.6666H20.033C22.6922 18.6666 24.8478 16.5109 24.8478 13.8518C24.8478 13.2632 24.5103 12.7268 23.9797 12.4721L23.4517 12.2187C21.5902 11.3252 21.5902 8.67468 23.4517 7.78117L23.9797 7.52773C24.5103 7.27304 24.8478 6.73663 24.8478 6.14807C24.8478 3.48892 22.6922 1.33325 20.033 1.33325H14.7645C12.8789 1.33325 11.9361 1.33325 11.3503 1.91904C10.7645 2.50482 10.7645 3.44763 10.7645 5.33325V11.0833" stroke="url(#paint0_linear_1012_821)" stroke-width="1.5" stroke-linecap="round"/>
<path id="Vector_2" d="M10.7646 5.6665L10.7646 18.6665" stroke="url(#paint1_linear_1012_821)" stroke-width="1.5" stroke-linecap="round" stroke-dasharray="2 3"/>
</g>
<defs>
<linearGradient id="paint0_linear_1012_821" x1="0.545644" y1="8.76083" x2="25.4419" y2="12.1991" gradientUnits="userSpaceOnUse">
<stop offset="3.01917e-07" stop-color="#006CD4"/>
<stop offset="0.2954" stop-color="#0675D5"/>
<stop offset="0.7849" stop-color="#168FD6"/>
<stop offset="1" stop-color="#1E9CD7"/>
</linearGradient>
<linearGradient id="paint1_linear_1012_821" x1="10.742" y1="11.2372" x2="11.8096" y2="11.2455" gradientUnits="userSpaceOnUse">
<stop offset="3.01917e-07" stop-color="#006CD4"/>
<stop offset="0.2954" stop-color="#0675D5"/>
<stop offset="0.7849" stop-color="#168FD6"/>
<stop offset="1" stop-color="#1E9CD7"/>
</linearGradient>
</defs>
</svg>
