<svg width="6" height="18" viewBox="0 0 6 18" fill="none" xmlns="http://www.w3.org/2000/svg">
<g id="Menu Kebab">
<g id="Vector">
<path fill-rule="evenodd" clip-rule="evenodd" d="M3.00004 0.041748C1.73439 0.041748 0.708374 1.06776 0.708374 2.33341C0.708374 3.59907 1.73439 4.62508 3.00004 4.62508C4.26569 4.62508 5.29171 3.59907 5.29171 2.33341C5.29171 1.06776 4.26569 0.041748 3.00004 0.041748ZM1.95837 2.33341C1.95837 1.75812 2.42474 1.29175 3.00004 1.29175C3.57534 1.29175 4.04171 1.75812 4.04171 2.33341C4.04171 2.90871 3.57534 3.37508 3.00004 3.37508C2.42474 3.37508 1.95837 2.90871 1.95837 2.33341Z" fill="black"/>
<path fill-rule="evenodd" clip-rule="evenodd" d="M3.00004 6.70841C1.73439 6.70841 0.708374 7.73443 0.708374 9.00008C0.708374 10.2657 1.73439 11.2917 3.00004 11.2917C4.26569 11.2917 5.29171 10.2657 5.29171 9.00008C5.29171 7.73443 4.26569 6.70841 3.00004 6.70841ZM1.95837 9.00008C1.95837 8.42478 2.42474 7.95841 3.00004 7.95841C3.57534 7.95841 4.04171 8.42478 4.04171 9.00008C4.04171 9.57538 3.57534 10.0417 3.00004 10.0417C2.42474 10.0417 1.95837 9.57538 1.95837 9.00008Z" fill="black"/>
<path fill-rule="evenodd" clip-rule="evenodd" d="M3.00004 13.3751C1.73439 13.3751 0.708374 14.4011 0.708374 15.6667C0.708374 16.9324 1.73439 17.9584 3.00004 17.9584C4.26569 17.9584 5.29171 16.9324 5.29171 15.6667C5.29171 14.4011 4.26569 13.3751 3.00004 13.3751ZM1.95837 15.6667C1.95837 15.0915 2.42474 14.6251 3.00004 14.6251C3.57534 14.6251 4.04171 15.0915 4.04171 15.6667C4.04171 16.242 3.57534 16.7084 3.00004 16.7084C2.42474 16.7084 1.95837 16.242 1.95837 15.6667Z" fill="black"/>
</g>
</g>
</svg>
