<svg width="28" height="28" viewBox="0 0 28 28" fill="none" xmlns="http://www.w3.org/2000/svg">
<g id="proicons:more">
<g id="Group">
<path id="Vector" d="M7.00016 16.0417C8.12774 16.0417 9.04183 15.1276 9.04183 14C9.04183 12.8725 8.12774 11.9584 7.00016 11.9584C5.87258 11.9584 4.9585 12.8725 4.9585 14C4.9585 15.1276 5.87258 16.0417 7.00016 16.0417Z" fill="black"/>
<path id="Vector_2" d="M14.0002 16.0417C15.1277 16.0417 16.0418 15.1276 16.0418 14C16.0418 12.8725 15.1277 11.9584 14.0002 11.9584C12.8726 11.9584 11.9585 12.8725 11.9585 14C11.9585 15.1276 12.8726 16.0417 14.0002 16.0417Z" fill="black"/>
<path id="Vector_3" d="M21.0002 16.0417C22.1277 16.0417 23.0418 15.1276 23.0418 14C23.0418 12.8725 22.1277 11.9584 21.0002 11.9584C19.8726 11.9584 18.9585 12.8725 18.9585 14C18.9585 15.1276 19.8726 16.0417 21.0002 16.0417Z" fill="black"/>
</g>
</g>
</svg>
