<svg width="32" height="32" viewBox="0 0 32 32" fill="none" xmlns="http://www.w3.org/2000/svg">
<g id="Location with pin point navigation isolated on white background 1" clip-path="url(#clip0_261_517)">
<path id="Vector" d="M27.5801 31.6064H4.00199C3.50373 31.606 3.01103 31.5017 2.55534 31.3002C2.09965 31.0987 1.69097 30.8044 1.35538 30.4361C1.0198 30.0678 0.764681 29.6336 0.606309 29.1612C0.447936 28.6888 0.38979 28.1885 0.43558 27.6924L2.31839 7.57519C2.39798 6.68554 2.80862 5.85818 3.46906 5.25682C4.12949 4.65546 4.99161 4.32391 5.8848 4.32779H25.6986C26.5919 4.32397 27.454 4.65574 28.1142 5.25739C28.7745 5.85905 29.1847 6.68672 29.2637 7.57649L31.1465 27.6924C31.1919 28.1884 31.1335 28.6885 30.975 29.1608C30.8164 29.633 30.5613 30.0671 30.2258 30.4353C29.8903 30.8035 29.4818 31.0978 29.0263 31.2994C28.5708 31.5011 28.0783 31.6056 27.5801 31.6064Z" fill="#2196F3"/>
<path id="Vector_2" d="M30.1399 16.9423L20.0852 16.9579L1.43941 16.9696L1.19592 19.5738L17.597 19.5634L9.23108 31.6063H12.4017L20.7688 19.5608L30.3834 19.5464L30.1399 16.9423Z" fill="white"/>
<path id="Vector_3" d="M15.7908 17.2834C15.5582 17.284 15.3331 17.2008 15.1567 17.049C14.9158 16.8433 9.2804 11.9644 9.2804 6.94877C9.2804 3.31335 12.201 0.356323 15.7908 0.356323C19.3807 0.356323 22.3012 3.31335 22.3012 6.94877C22.3012 11.9657 16.6658 16.8446 16.4249 17.049C16.2486 17.2008 16.0235 17.284 15.7908 17.2834Z" fill="#EF5350"/>
<path id="Vector_4" d="M15.7908 4.26257C14.3546 4.26257 13.1866 5.43054 13.1866 6.86674C13.1866 8.30294 14.3546 9.47091 15.7908 9.47091C17.227 9.47091 18.395 8.30294 18.395 6.86674C18.395 5.43054 17.227 4.26257 15.7908 4.26257Z" fill="white"/>
</g>
<defs>
<clipPath id="clip0_261_517">
<rect width="31.25" height="31.25" fill="white" transform="translate(0.375 0.375)"/>
</clipPath>
</defs>
</svg>
