<svg width="20" height="20" viewBox="0 0 20 20" fill="none" xmlns="http://www.w3.org/2000/svg">
<g id="streamline:payment-cash-out-3-solid" clip-path="url(#clip0_164_288)">
<path id="Vector" fill-rule="evenodd" clip-rule="evenodd" d="M0 2.07143C0 0.892857 0.994286 0 2.14286 0H17.8571C19.0057 0 20 0.892857 20 2.07143V10.0714C20 11.25 19.0057 12.1429 17.8571 12.1429H2.14286C0.994286 12.1429 0 11.25 0 10.0714V2.07143ZM12.8571 6.07143C12.8571 6.82919 12.5561 7.55592 12.0203 8.09173C11.4845 8.62755 10.7578 8.92857 10 8.92857C9.24224 8.92857 8.51551 8.62755 7.97969 8.09173C7.44388 7.55592 7.14286 6.82919 7.14286 6.07143C7.14286 5.31367 7.44388 4.58694 7.97969 4.05112C8.51551 3.51531 9.24224 3.21429 10 3.21429C10.7578 3.21429 11.4845 3.51531 12.0203 4.05112C12.5561 4.58694 12.8571 5.31367 12.8571 6.07143ZM5 6.42857C5 6.28787 4.97229 6.14855 4.91844 6.01855C4.8646 5.88856 4.78568 5.77045 4.68619 5.67096C4.58669 5.57147 4.46858 5.49255 4.33859 5.4387C4.2086 5.38486 4.06927 5.35714 3.92857 5.35714C3.78787 5.35714 3.64855 5.38486 3.51855 5.4387C3.38856 5.49255 3.27045 5.57147 3.17096 5.67096C3.07147 5.77045 2.99254 5.88856 2.9387 6.01855C2.88486 6.14855 2.85714 6.28787 2.85714 6.42857C2.85714 6.71273 2.97003 6.98525 3.17096 7.18619C3.37189 7.38712 3.64441 7.5 3.92857 7.5C4.21273 7.5 4.48525 7.38712 4.68619 7.18619C4.88712 6.98525 5 6.71273 5 6.42857ZM16.0714 5.35714C16.3556 5.35714 16.6281 5.47003 16.829 5.67096C17.03 5.87189 17.1429 6.14441 17.1429 6.42857C17.1429 6.71273 17.03 6.98525 16.829 7.18619C16.6281 7.38712 16.3556 7.5 16.0714 7.5C15.7873 7.5 15.5147 7.38712 15.3138 7.18619C15.1129 6.98525 15 6.71273 15 6.42857C15 6.14441 15.1129 5.87189 15.3138 5.67096C15.5147 5.47003 15.7873 5.35714 16.0714 5.35714ZM7.32143 15C7.32143 14.7632 7.22736 14.5361 7.05992 14.3687C6.89247 14.2012 6.66537 14.1071 6.42857 14.1071C6.19177 14.1071 5.96467 14.2012 5.79723 14.3687C5.62978 14.5361 5.53571 14.7632 5.53571 15V17.8571C5.53571 18.0939 5.62978 18.321 5.79723 18.4885C5.96467 18.6559 6.19177 18.75 6.42857 18.75C6.66537 18.75 6.89247 18.6559 7.05992 18.4885C7.22736 18.321 7.32143 18.0939 7.32143 17.8571V15ZM13.5714 14.1071C14.0643 14.1071 14.4643 14.5071 14.4643 15V17.8571C14.4643 17.9744 14.4412 18.0905 14.3963 18.1988C14.3515 18.3072 14.2857 18.4056 14.2028 18.4885C14.1199 18.5714 14.0214 18.6372 13.9131 18.682C13.8048 18.7269 13.6887 18.75 13.5714 18.75C13.4542 18.75 13.3381 18.7269 13.2297 18.682C13.1214 18.6372 13.023 18.5714 12.9401 18.4885C12.8572 18.4056 12.7914 18.3072 12.7465 18.1988C12.7017 18.0905 12.6786 17.9744 12.6786 17.8571V15C12.6786 14.5071 13.0786 14.1071 13.5714 14.1071ZM10 15.1786C10.4929 15.1786 10.8929 15.5786 10.8929 16.0714V18.9286C10.8929 19.1654 10.7988 19.3925 10.6313 19.5599C10.4639 19.7274 10.2368 19.8214 10 19.8214C9.7632 19.8214 9.5361 19.7274 9.36866 19.5599C9.20121 19.3925 9.10714 19.1654 9.10714 18.9286V16.0714C9.10714 15.5786 9.50714 15.1786 10 15.1786Z" fill="url(#paint0_linear_164_288)"/>
</g>
<defs>
<linearGradient id="paint0_linear_164_288" x1="-0.452654" y1="8.49376" x2="20.6813" y2="10.6418" gradientUnits="userSpaceOnUse">
<stop offset="3.01917e-07" stop-color="#006CD4"/>
<stop offset="0.2954" stop-color="#0675D5"/>
<stop offset="0.7849" stop-color="#168FD6"/>
<stop offset="1" stop-color="#1E9CD7"/>
</linearGradient>
<clipPath id="clip0_164_288">
<rect width="20" height="20" fill="white"/>
</clipPath>
</defs>
</svg>
