<svg width="17" height="15" viewBox="0 0 17 15" fill="none" xmlns="http://www.w3.org/2000/svg">
<path d="M15.5833 0.947887H1.41667C0.634667 0.947887 0 1.57689 0 2.3518V12.6481C0 13.4231 0.634667 14.0521 1.41667 14.0521H15.5833C16.3653 14.0521 17 13.4231 17 12.6481V2.3518C16.9981 1.97783 16.8479 1.61989 16.5822 1.35665C16.3166 1.0934 15.9573 0.946381 15.5833 0.947887ZM2.42604 7.65226C2.28437 7.65226 1.92454 7.5786 1.89479 7.78968L1.76162 8.56814C1.75312 8.6496 1.67946 8.7346 1.59942 8.7346H1.03842C0.978917 8.7346 0.935 8.6758 0.944208 8.61701L1.42871 5.63068C1.43437 5.55205 1.50804 5.49326 1.58171 5.49326H2.7625C3.30933 5.49326 3.78675 5.69868 3.78675 6.3128C3.78675 7.15501 3.27038 7.65226 2.42604 7.65226ZM6.06475 8.5646C6.04988 8.64605 5.98258 8.73105 5.90254 8.73105H5.39467C5.33021 8.73105 5.30046 8.68147 5.30046 8.61347C5.30046 8.56955 5.31533 8.47535 5.33021 8.43214C5.12388 8.64429 4.84392 8.76905 4.54821 8.78064C3.97304 8.78064 3.6125 8.40947 3.6125 7.83926C3.6125 7.1458 4.165 6.5168 4.8875 6.5168C5.168 6.5168 5.41592 6.56072 5.58733 6.80935C5.593 6.73072 5.59937 6.56993 5.71129 6.56993H6.27158C6.33037 6.56993 6.375 6.62872 6.36579 6.68397L6.06475 8.5646ZM7.46583 9.4316C7.45088 9.45354 7.43111 9.47178 7.40803 9.48491C7.38495 9.49805 7.35917 9.50574 7.33267 9.50739H6.766C6.74107 9.50739 6.71714 9.49758 6.69938 9.48009C6.68162 9.46259 6.67146 9.43881 6.67108 9.41389C6.67108 9.32676 7.19596 8.60072 7.276 8.48951C7.22571 8.33439 6.64983 6.70805 6.64983 6.67335C6.64983 6.62376 6.69375 6.57135 6.74404 6.57135H7.29654C7.37021 6.57135 7.43537 6.62447 7.45875 6.68893L7.78387 7.78614L8.56588 6.64572C8.58078 6.62395 8.6006 6.606 8.62374 6.59333C8.64687 6.58065 8.67267 6.5736 8.69904 6.57276H9.26571C9.316 6.57276 9.35992 6.62518 9.35992 6.67476C9.35992 6.6953 9.35992 6.71018 9.34575 6.72435L7.46583 9.43301V9.4316ZM10.8148 7.65226C10.6732 7.65226 10.3133 7.5793 10.2836 7.78968L10.1504 8.63755C10.1355 8.68714 10.0909 8.73105 10.0321 8.73105H9.42721C9.37125 8.73105 9.32733 8.67226 9.333 8.61347L9.81112 5.62997C9.81962 5.55135 9.89329 5.49255 9.97333 5.49255H11.1449C11.6917 5.49255 12.1692 5.69797 12.1692 6.3121C12.1685 7.15501 11.6528 7.65226 10.8148 7.65226ZM14.4465 8.5646C14.4316 8.64605 14.3636 8.73105 14.2843 8.73105H13.7735C13.7084 8.73105 13.6793 8.68147 13.6793 8.61347C13.6793 8.56955 13.7006 8.47535 13.7091 8.43214C13.532 8.63685 13.2019 8.78064 12.9271 8.78064C12.3519 8.78064 11.9914 8.40947 11.9914 7.83926C11.9914 7.1458 12.5439 6.5168 13.2664 6.5168C13.5525 6.5168 13.8033 6.56072 13.9662 6.80935C13.9747 6.73072 13.9811 6.56993 14.0937 6.56993H14.654C14.7128 6.56993 14.7574 6.62872 14.7482 6.68397L14.4465 8.5646ZM16.0558 5.60447L15.5777 8.5646C15.5713 8.64605 15.4976 8.73105 15.424 8.73105H14.9373C14.9101 8.73087 14.884 8.72001 14.8647 8.70081C14.8453 8.68161 14.8343 8.65559 14.8339 8.62835L14.8424 8.61418L15.3205 5.57189C15.3262 5.52726 15.3708 5.49255 15.4147 5.49255H15.9609C16.0112 5.49255 16.0551 5.53647 16.0551 5.59526L16.0558 5.60447Z" fill="#009CDE"/>
</svg>
