<svg width="50" height="50" viewBox="0 0 50 50" fill="none" xmlns="http://www.w3.org/2000/svg">
<path d="M14.6402 9.14063C14.6402 9.14063 18.4527 7.16016 24.9058 7.16016C31.3589 7.16016 35.8316 8.77344 35.8316 8.77344C35.8316 8.77344 36.5659 7.01563 37.6636 6.42579C38.7612 5.83594 40.6714 5.54688 42.2847 6.20704C43.898 6.86719 47.9292 11.1563 48.1519 11.5234C48.3706 11.8906 48.5269 12.4219 48.4527 12.5664C48.3784 12.7148 44.5191 18.8633 44.5191 18.8633C44.5191 18.8633 45.105 20.2852 45.6753 22.2734C45.9175 23.125 47.562 27.543 46.6831 32.8242C45.8042 38.1055 42.0073 43.7461 35.2456 45.582C28.4995 47.4141 18.0152 47.7813 11.4175 44.4805C5.01906 41.2852 2.90968 36.3438 2.61671 31.2109C2.32375 26.0781 4.37453 21.7813 4.37453 21.7813L6.86671 18.3828C6.86671 18.3828 1.63234 13.2031 1.48781 12.7656C1.33937 12.3242 1.95656 11.4922 4.00734 9.73048C6.05812 7.96876 7.95656 6.40235 9.18703 6.00001C10.4527 5.58594 11.855 5.76954 12.7339 6.57813C13.6128 7.38282 14.6402 9.14063 14.6402 9.14063Z" fill="#FFD3B0"/>
<path d="M36.5273 9.76563C35.7968 10.1914 36.6445 11.7617 37.039 12.6992C37.7343 14.3477 38.8398 17.6133 40.6679 19.6641C42.7929 22.0469 45.5077 21.7891 45.5077 21.7891C45.5077 21.7891 44.957 19.918 44.7382 19.4805C44.7734 19.1524 46.3163 16.7305 46.7538 15.8867C47.1952 15.043 48.1093 13.6133 48.2929 12.8789C48.4765 12.1445 48.0351 12.3672 47.7812 12.4766C47.5234 12.5859 42.3554 15.668 42.3554 15.668C42.3554 15.668 41.1093 16.1445 40.707 15.7031C40.3046 15.2617 39.5702 13.2461 39.0195 11.9258C38.707 11.1758 37.8476 8.9961 36.5273 9.76563Z" fill="#FFA5A8"/>
<path d="M40.6717 15.8945C40.8904 16.5547 41.8006 16.6367 42.7068 16.4179C44.035 16.0976 44.8631 15.1992 45.7029 14.5742C46.8592 13.7226 48.0115 13.4726 48.2889 13.1719C48.5623 12.8711 48.6756 12.0156 48.0428 12.1836C47.41 12.3476 46.6131 12.4297 45.3201 13.2851C44.2068 14.0195 43.281 14.8125 42.4881 15.2109C41.7693 15.5664 40.4529 15.2422 40.6717 15.8945Z" fill="#FD7E89"/>
<path d="M9.76573 15.4297C9.90245 15.2656 11.3048 11.9102 11.6095 11.25C11.9103 10.5899 12.7657 8.77345 13.7267 9.57423C14.6876 10.375 13.4806 13.4805 12.2423 15.6524C11.004 17.8242 9.62901 19.832 8.69542 20.6836C8.16026 21.1719 7.15635 21.8399 6.02745 21.9492C5.36729 22.0156 4.23839 22.0313 4.23839 22.0313C4.23839 22.0313 4.53917 21.1524 4.89854 20.4102C5.01964 20.1563 5.3126 19.5586 5.42198 19.3086C5.42198 19.1172 4.57042 17.9063 3.99229 17.0274C3.67198 16.5391 1.67979 13.2852 1.65245 12.8985C1.6251 12.5117 2.1212 12.6797 2.64073 12.7891C3.16026 12.8985 6.62901 14.6055 6.62901 14.6055L9.76573 15.4297Z" fill="#FFA5A8"/>
<path d="M6.05106 15.207C7.21121 15.832 7.81668 16.2813 8.88309 16.1406C9.73465 16.0313 10.0667 15.5898 9.92606 15.2617C9.78934 14.9336 9.23856 15.043 8.85184 14.9609C7.96122 14.7695 7.24246 14.2227 6.54325 13.8594C5.58231 13.3633 4.56278 12.7031 3.41043 12.4844C2.43778 12.3008 1.2659 12.3203 1.53934 12.9531C1.81278 13.5859 2.71121 13.5 3.5745 13.9141C4.42996 14.3281 5.33621 14.8242 6.05106 15.207Z" fill="#FD7C88"/>
<path d="M14.3012 34.4844C13.6723 35.1602 14.1918 36.0274 15.1254 36.711C16.2543 37.5352 18.3168 39.1289 24.391 39.1289C30.7973 39.1289 32.9574 37.0938 33.6996 36.543C34.3676 36.0469 35.1723 35.1953 34.5395 34.5078C33.9067 33.8203 32.2856 35.0313 31.8442 35.2774C31.4027 35.5235 28.0238 37.2852 24.5317 37.2305C21.6996 37.1875 18.7582 36.2422 17.8793 35.8828C16.2543 35.2266 15.0434 33.6875 14.3012 34.4844Z" fill="#312F2C"/>
<path d="M24.7495 27.1133C21.6987 26.9649 17.187 29.1485 17.2417 33.0821C17.2964 37.0156 21.0347 37.7227 24.6089 37.8125C27.9644 37.8946 31.9487 36.4922 31.9214 32.9727C31.9019 29.7774 29.23 27.336 24.7495 27.1133Z" fill="#FD7E84"/>
<path d="M37.4258 26.9766C37.4258 28.6172 36.5469 30.1367 35.0742 30.1094C33.6836 30.082 32.6953 28.7813 32.6953 27.1406C32.6953 25.5 33.8203 24.1719 35.0742 24.1719C36.3281 24.1719 37.4258 25.3359 37.4258 26.9766ZM16.668 27.0859C16.668 28.7266 15.8438 30.0273 14.3711 30.0547C12.8711 30.082 11.9375 28.8086 11.9375 27.168C11.9375 25.5273 13.1055 24.1992 14.3555 24.1992C15.6055 24.1992 16.668 25.4453 16.668 27.0859ZM28.8477 32.6914C28.8477 34.332 28.4531 35.832 27.4727 35.8516C26.3164 35.8789 26.0977 34.4102 26.0977 32.7734C26.0977 31.1367 26.4844 29.9141 27.4727 29.9414C28.4844 29.9688 28.8477 31.0508 28.8477 32.6914ZM23.3164 32.5547C23.3164 34.1953 22.9219 35.6953 21.9414 35.7148C20.7852 35.7422 20.5664 34.2734 20.5664 32.6367C20.5664 31 20.9531 29.7773 21.9414 29.8047C22.9531 29.832 23.3164 30.9141 23.3164 32.5547Z" fill="#2C2F31"/>
</svg>
