<svg width="50" height="50" viewBox="0 0 50 50" fill="none" xmlns="http://www.w3.org/2000/svg">
<path d="M7.90619 18.4609C7.90619 18.4609 5.76556 19.8086 5.51947 21.1523C5.27337 22.5 5.76556 24.0898 6.43744 25.1289C7.10931 26.168 7.90619 27.0273 8.88666 27.3945C9.86713 27.7617 10.7226 27.6992 10.7226 27.6992C10.7226 27.6992 12.9882 30.2695 17.0234 33.7578C21.0585 37.2461 26.2031 41.4063 32.0156 44.6484C37.8281 47.8906 39.9101 48.6875 41.4999 48.6875C43.0898 48.6875 43.0312 46.3008 42.8476 45.5664C42.664 44.832 32.4452 33.4531 32.4452 33.4531L7.90619 18.4609Z" fill="#FF8E00"/>
<path d="M12.1916 24.3984L10.6604 22.7461C10.6604 22.7461 9.07053 19.7461 7.60178 19.7461C6.13303 19.7461 5.51975 21.1524 5.51975 21.1524C5.51975 21.1524 5.33615 19.6211 7.17209 16.6875C9.00803 13.7539 11.3322 11.4258 13.4143 9.95704C15.4963 8.48829 18.0627 6.77345 19.7776 5.79688C21.4924 4.82032 25.2229 3.59376 27.3674 2.85938C29.508 2.12501 34.1604 1.20704 36.301 1.63673C38.4416 2.06641 39.3596 3.53516 39.3596 5.06251C39.3596 6.58985 38.9924 7.63282 38.6877 7.93751C38.383 8.2422 36.3635 9.95704 36.3635 9.95704L12.1916 24.3984Z" fill="#F5B03E"/>
<path d="M16.4844 17.9492L12.6914 20.3984L11.1016 23.5195C11.1016 23.5195 11.4062 24.5586 11.8984 25.1094C12.3867 25.6602 16.4844 29.5859 19.418 32.0938C21.707 34.0508 26.5859 38.2031 26.5859 38.2031C26.5859 38.2031 26.7852 40.2891 27.0156 41.7539C27.1992 42.918 27.2109 44.8594 28.4375 44.8047C29.9844 44.7344 29.0938 41.6016 30.3203 41.6328C32.7695 41.6953 30.3398 48.3203 32.9727 48.2852C35.0703 48.2578 33.7383 44.6367 34.7891 44.0195C35.3594 43.6836 36.4922 45.1094 38.3398 45.918C40.6211 46.9141 42.0117 47.668 42.7461 47.3242C44.2969 46.5977 41.0273 29.6562 40.6602 26.7812C40.293 23.9062 38.4648 9.14062 38.3398 8.65234C38.2148 8.16406 35.707 8.10156 35.707 8.10156L31.8516 9.44922L26.3438 10.1836L19.8594 14.0391L16.4844 17.9492Z" fill="#FFCC8A"/>
<path d="M15.5277 17.3359C14.3245 18.0156 12.7738 18.3945 11.4652 20.5508C10.3753 22.3476 10.0863 24.1875 10.8636 24.3281C11.6409 24.4687 12.2308 21.7578 13.2659 20.7266C14.9261 19.0664 16.2699 18.8906 17.223 18.0078C18.1761 17.125 19.2191 14.7266 23.1917 12.6055C27.8206 10.1328 30.5863 10.7851 31.6683 10.3789C33.0824 9.84764 33.4652 8.98046 35.2347 8.61327C37.1058 8.22655 38.4066 8.97264 38.4066 8.97264C38.4066 8.97264 38.8324 7.98436 38.2659 7.52343C37.6995 7.06249 36.6566 6.70311 34.9144 7.05858C33.0081 7.4453 31.5941 8.71874 31.2074 8.75389C30.8206 8.78905 26.8636 8.57811 22.1644 11.2617C17.4652 13.9453 16.5863 16.7344 15.5277 17.3359Z" fill="#CB6C22"/>
<path d="M20.9301 21.6094L14.6098 22.9883C14.6098 22.9883 14.5121 24.1875 14.5746 24.543C14.7855 25.7422 16.3754 27.6523 17.3285 27.9687C18.2816 28.2851 20.223 28.3203 20.8598 28.0391C21.4965 27.7578 23.4027 26.3789 23.6488 25.6367C23.8949 24.8945 23.8285 21.7891 23.3363 21.293C22.8441 20.8008 20.9301 21.6094 20.9301 21.6094Z" fill="#DB0D27"/>
<path d="M16.4807 19.6328C15.8049 20.1563 14.5041 21.9297 14.6096 23.1992C14.715 24.4727 16.9064 26.6953 17.5041 26.9063C18.1017 27.1172 20.0471 27.1524 20.5432 27.0117C21.0392 26.8711 22.9455 25.457 23.2267 24.9649C23.508 24.4688 23.758 21.7149 23.2971 21.2227C22.8361 20.7305 21.4611 19.2813 20.3674 18.961C19.2697 18.6445 17.1174 19.1367 16.4807 19.6328Z" fill="#ED6D30"/>
<path d="M32.6559 25.5664C32.6559 25.5664 27.0622 25.164 26.9919 25.5156C26.9216 25.8672 26.7926 27.2265 27.1481 28.3203C27.3981 29.0976 27.9958 30.4414 29.8317 31.2148C31.6676 31.9883 33.4333 31.1445 33.8942 30.789C34.7575 30.125 35.3083 29.3047 35.4489 28.8125C35.5895 28.3203 32.6559 25.5664 32.6559 25.5664Z" fill="#DB0D27"/>
<path d="M29.9374 22.6328C29.0741 22.9453 27.0077 24.2227 26.9687 25.6367C26.9335 27.0508 27.9569 28.7813 28.4882 29.168C29.0194 29.5547 30.7851 30.5821 32.0898 30.5117C33.3983 30.4414 35.1991 29.3828 35.4452 28.8164C35.6913 28.25 35.7968 26.5899 35.6913 25.7422C35.5858 24.8946 33.7499 22.9883 32.8319 22.7032C31.914 22.4219 30.7147 22.3516 29.9374 22.6328Z" fill="#ED6D30"/>
<path d="M29.7262 35.8438C29.7262 35.8438 24.6051 34.4297 24.5348 34.5352C24.4645 34.6406 23.7575 35.5234 23.9333 35.9492C24.109 36.375 25.9098 37.8203 26.652 38.457C27.3942 39.0938 29.6364 40.4102 29.902 40.3633C30.5387 40.2578 31.0309 39.2344 31.0309 39.2344L29.7262 35.8438Z" fill="#DB0D27"/>
<path d="M30.1832 33.6875C28.9332 32.7696 27.1089 32.8399 26.1207 33.3008C25.1324 33.7617 24.5308 34.3594 24.4254 34.8203C24.3199 35.2813 25.1363 36.168 25.4566 36.4141C25.773 36.6602 26.7339 37.3867 26.7339 37.3867C26.7339 37.3867 28.1597 38.5039 28.6871 38.9102C29.4214 39.4766 30.3433 39.7969 30.5894 39.8321C30.8355 39.8672 31.9839 38.3828 31.773 36.4024C31.6636 35.3907 31.2339 34.461 30.1832 33.6875Z" fill="#ED6D30"/>
<path d="M39.0861 30.8633L37.1799 30.793C37.1799 30.793 36.4025 32.2422 36.9338 33.8672C37.3674 35.1953 38.2775 35.9883 39.7931 36.4102C41.3127 36.8359 42.1603 36.6836 42.1603 36.6836L42.1838 35.6172L39.0861 30.8633Z" fill="#DB0D27"/>
<path d="M40.9218 28.4258C40.9218 28.4258 38.5702 28.1485 37.3554 30.3321C36.4257 32.0078 37.0741 33.4063 37.8163 34.2188C38.5585 35.0313 39.6874 35.5625 40.5351 35.6328C41.3827 35.7032 42.2031 35.6367 42.2031 35.6367C42.2031 35.6367 41.8749 33.4688 41.5546 31.6563C41.3593 30.5703 40.9218 28.4258 40.9218 28.4258Z" fill="#ED6D30"/>
<path d="M34.0701 13.1328C34.0701 13.1328 29.5154 13.2734 29.2303 13.7344C28.9451 14.1953 28.949 16.2422 29.0896 17.0547C29.2303 17.8672 30.4686 19.8438 32.9412 19.8789C35.4139 19.9141 36.285 19.2969 37.2459 17.4297C38.2068 15.5625 37.2068 13.4727 37.2068 13.4727L34.0701 13.1328Z" fill="#DB0D27"/>
<path d="M34.105 11.0469C33.1167 10.8555 31.7378 11.2578 31.0659 11.7188C30.3941 12.1797 29.3003 13.1328 29.23 13.8399C29.1597 14.5469 29.7964 16.5938 30.0425 16.9844C30.2886 17.3711 31.312 18.4219 31.6323 18.5742C32.3745 18.9258 34.4214 18.75 35.023 18.5391C35.6245 18.3281 37.2847 16.9844 37.4605 16.2774C37.6362 15.5703 37.8472 14.3711 37.0347 12.9219C36.2222 11.4727 35.023 11.2266 34.105 11.0469Z" fill="#ED6D30"/>
<path d="M40.5395 40.6914L36.4731 40.5156C36.4731 40.5156 35.9262 41.6133 36.0903 42.5742C36.2231 43.3711 36.8832 44.457 38.0668 44.9141C38.7387 45.1719 40.4965 45.0039 40.9262 44.7109C41.7934 44.1172 42.0707 43.0391 42.0434 42.4844C42.0317 42.1953 40.5395 40.6914 40.5395 40.6914Z" fill="#DB0D27"/>
<path d="M39.6527 38.9649C38.598 38.8047 37.3831 39.375 36.8597 39.918C36.3362 40.461 36.2308 41.1407 36.43 41.961C36.7933 43.461 37.7542 43.8867 38.1995 44.1172C38.8597 44.4571 40.6722 44.3907 41.2425 43.9571C41.8089 43.5274 42.2386 42.793 42.1058 41.6641C41.9691 40.5313 41.4691 39.2383 39.6527 38.9649Z" fill="#ED6D30"/>
<path d="M14.0622 12.1211C14.0974 12.9648 15.5739 12.8203 16.156 12.7617C16.6208 12.7148 17.7849 12.6172 17.7849 11.8594C17.7849 11.1016 16.7692 11.1055 16.0114 11.1328C15.281 11.1601 14.031 11.4531 14.0622 12.1211ZM21.9958 7.15234C21.9958 7.70702 22.6052 7.76171 22.9841 7.79296C23.363 7.8203 23.8552 7.67577 23.8864 7.24218C23.9138 6.80468 23.5388 6.54296 22.9841 6.51562C22.4021 6.48046 21.9958 6.68359 21.9958 7.15234ZM25.6286 8.48827C26.1872 9.09374 27.0232 8.28515 27.3161 7.90624C27.6052 7.52734 27.6638 6.9453 27.3435 6.65624C27.0232 6.36718 26.4138 6.68359 26.0075 7.06249C25.6013 7.4414 25.281 8.10937 25.6286 8.48827ZM31.9372 5.40624C32.6169 6.17577 33.738 4.8828 34.2028 4.4453C34.6677 4.0078 35.0466 3.39843 34.6091 2.90624C34.1716 2.41405 33.1833 3.10937 32.8083 3.54687C32.4294 3.98046 31.4997 4.91405 31.9372 5.40624ZM10.5153 18.457C11.1755 18.6133 11.3903 17.832 11.5036 17.2344C11.6208 16.625 11.6208 16.043 11.1247 15.957C10.5622 15.8594 10.2536 16.4219 10.1638 16.9726C10.0896 17.4687 9.90596 18.3125 10.5153 18.457Z" fill="#FCC12B"/>
</svg>
