<svg width="18" height="18" viewBox="0 0 18 18" fill="none" xmlns="http://www.w3.org/2000/svg">
<g id="ic:round-plus">
<path id="Vector" d="M13.1622 9.82753H9.5453V13.4444C9.5453 13.6363 9.46909 13.8203 9.33343 13.9559C9.19777 14.0916 9.01378 14.1678 8.82193 14.1678C8.63008 14.1678 8.44608 14.0916 8.31043 13.9559C8.17477 13.8203 8.09855 13.6363 8.09855 13.4444V9.82753H4.48168C4.28983 9.82753 4.10583 9.75132 3.97017 9.61566C3.83451 9.48 3.7583 9.29601 3.7583 9.10416C3.7583 8.9123 3.83451 8.72831 3.97017 8.59265C4.10583 8.45699 4.28983 8.38078 4.48168 8.38078H8.09855V4.7639C8.09855 4.57205 8.17477 4.38806 8.31043 4.2524C8.44608 4.11674 8.63008 4.04053 8.82193 4.04053C9.01378 4.04053 9.19777 4.11674 9.33343 4.2524C9.46909 4.38806 9.5453 4.57205 9.5453 4.7639V8.38078H13.1622C13.354 8.38078 13.538 8.45699 13.6737 8.59265C13.8093 8.72831 13.8856 8.9123 13.8856 9.10416C13.8856 9.29601 13.8093 9.48 13.6737 9.61566C13.538 9.75132 13.354 9.82753 13.1622 9.82753Z" fill="black"/>
</g>
</svg>
