<svg width="50" height="50" viewBox="0 0 50 50" fill="none" xmlns="http://www.w3.org/2000/svg">
<path d="M47.6057 29.9219C44.9338 20.9492 36.6721 19.7812 34.5783 13.2109C33.4104 11.1289 32.883 9.39452 31.8713 7.23046C29.5783 0.546865 21.3127 1.46093 19.5354 7.05077C16.7854 12.0117 10.719 8.07421 10.3244 17.8984C10.2776 18.0195 9.54709 19.1562 8.99631 19.3633C3.94943 21.4023 5.46506 24.5742 5.12521 27.4375C4.33615 28.6367 2.98068 29.3867 2.37131 31.1133C0.812713 40.3242 13.3166 47.5898 20.6877 47.5078C23.2307 47.5273 24.801 43.6836 24.801 43.6836C27.5471 42.9141 29.0783 42.082 30.0315 40.2266C30.4299 39.5391 31.1096 39.5976 31.4104 40.3398C32.508 43.0703 35.2893 44.9883 37.4182 41.8476C40.7463 36.9297 49.5393 36.4258 47.6057 29.9219Z" fill="url(#paint0_radial_600_4376)"/>
<path d="M25.5034 17.625C24.7651 17.0313 30.8433 15.9883 31.8315 10.0117C31.855 9.86329 32.4253 9.8047 32.5269 9.94142C34.2964 12.3477 35.144 15.3555 37.0503 17.6563C37.9604 18.7578 39.0972 19.2344 40.1636 20.1875C41.23 21.1406 42.5776 22.1289 43.2339 23.3945C43.8901 24.6602 45.8042 28.9063 41.2534 29.2891C40.0347 29.3906 39.1011 28.582 35.7222 30.2227C35.7222 30.2266 32.855 23.5547 25.5034 17.625Z" fill="url(#paint1_linear_600_4376)"/>
<path d="M20.6797 42.3516C20.7422 42.2695 20.8047 42.1875 20.8711 42.1094C20.9531 42.0078 21.043 41.8984 21.1641 41.8477C21.3047 41.7891 21.4688 41.8242 21.6133 41.875C22.0391 42.0273 22.3984 42.3477 22.8398 42.4492C23.543 42.6133 24.2383 42.1992 24.8125 41.7617C25.7539 41.043 26.6211 40.207 27.25 39.2031C27.7188 38.457 28.0508 37.6172 28.1602 36.7422C28.1992 36.4453 28.0664 35.9609 28.2852 35.7109C28.5391 35.4219 29.0625 35.5273 29.418 35.4414C30.1602 35.2695 30.8008 34.8008 31.3789 34.3047C32.8086 33.0742 34.0156 31.5781 34.9141 29.918C35.2812 30.7695 35.5234 31.7031 35.8555 32.5781C36.0273 33.0273 36.1992 33.4883 36.1953 33.9688C36.1875 34.5742 35.8945 35.1406 35.543 35.6289C34.6875 36.8203 33.2148 37.7539 31.8008 37.3672C31.4648 37.2734 31.0664 37.125 30.8086 37.3555C30.6719 37.4766 30.625 37.6641 30.5898 37.8438C30.418 38.7266 30.3438 39.6367 30.0664 40.4922C29.7891 41.3477 29.2617 42.1797 28.4414 42.5586C27.2617 43.1055 25.625 42.6836 24.793 43.6797C24.4844 44.0508 24.3711 44.5391 24.1953 44.9922C23.5977 46.5352 22.2969 47.6875 20.6484 47.957C19.8672 48.082 18.9961 48.0273 18.2539 47.7422C17.2891 47.375 16.25 47.1875 15.3086 46.7188C16.1367 46.6484 17.0039 46.5664 17.6836 46.0898C17.9922 45.875 18.2422 45.5859 18.4844 45.3008C19.2773 44.3594 19.9297 43.3281 20.6797 42.3516Z" fill="url(#paint2_linear_600_4376)"/>
<path d="M28.5903 6.8203C29.1723 6.8203 29.3481 5.89843 28.563 5.71093C23.7778 4.54686 21.688 8.41015 21.1567 9.78515C20.8676 10.5351 21.6059 10.9492 21.8989 10.4453C22.188 9.9414 23.559 8.34765 24.9653 7.64061C26.5317 6.85546 28.4223 6.8203 28.5903 6.8203Z" fill="#EDA600"/>
<path d="M48.0708 29.4453C47.0942 26.3398 45.7895 24.2812 44.0239 22.4414L42.8091 23.3828C43.7817 24.3867 44.6489 25.4844 45.3208 26.7344C46.4224 28.7852 47.7661 31.7109 46.0825 33.7891C45.9458 33.957 45.7974 34.1172 45.6411 34.2656C44.8872 34.9883 43.938 35.5 43.0122 35.9961C41.688 36.707 40.5161 37.5664 39.395 38.5469C38.3052 39.5 37.3755 40.6211 36.4263 41.7188C36.0317 42.1758 35.5864 42.7148 34.9302 42.7148C34.3481 42.7109 33.7934 42.3828 33.3208 42.0742C32.7192 41.6836 32.4653 40.7305 32.4536 40.0547C32.446 39.5583 32.5557 39.0671 32.7739 38.6211C33.0395 38.082 33.2622 38.0078 33.7661 37.7617C34.8833 37.2227 37.1958 35.0625 37.352 33.7344C37.4536 32.8867 37.2466 31.8828 36.7036 31.2266C37.1802 30.3672 38.2427 30.0234 39.2231 29.9297C40.2036 29.8359 41.2192 29.9062 42.1372 29.5547C42.2856 29.5 42.4536 29.3867 42.4263 29.2305C42.4106 29.1406 42.3325 29.0781 42.2583 29.0273C41.4145 28.4336 40.352 28.2109 39.3208 28.2187C38.2895 28.2266 37.27 28.4453 36.2622 28.6602C37.1802 26.9648 37.4341 24.9219 36.9614 23.0547C36.8911 22.7695 36.7036 22.4258 36.4184 22.4766C36.2153 22.5117 36.102 22.7305 36.0317 22.9258C35.6333 24.043 35.5474 25.3008 34.8638 26.2734C34.7974 26.3711 34.7114 26.4687 34.5981 26.4922C34.2583 26.5547 33.977 25 31.9692 22.6211C30.8013 21.2344 29.0356 20.1055 28.6606 19.7461C27.7661 18.875 28.188 17.5312 28.8286 16.5664C29.3247 15.8203 30.1177 15.3281 30.7466 14.6875C31.6606 13.7539 32.1763 12.4023 32.5005 11.1641C33.77 13.3945 34.8442 15.793 36.4184 17.8398L36.4497 17.8164C37.2153 18.75 38.1841 19.4883 39.2036 20.2695C39.6997 20.6484 40.2114 21.0391 40.7388 21.4766C41.2349 21.8906 42.5317 23.1367 43.0005 23.582L44.2153 22.6445C43.6841 22.0312 42.3169 20.8203 41.7114 20.3164C41.1606 19.8555 40.6333 19.457 40.1255 19.0664C39.0161 18.2187 38.0591 17.4883 37.3872 16.5547L37.3677 16.5703C36.1216 14.7852 33.7427 10.4375 32.0474 6.8125C29.9497 2.33984 26.6567 0.921872 22.52 2.70703C20.1919 3.71093 19.4809 5.3789 18.9106 6.72265C18.6528 7.33203 18.4184 7.85937 18.0864 8.23047C17.2466 8.8125 16.477 9.13281 15.6645 9.46484C14.7505 9.83984 13.8013 10.2305 12.7427 11.0039C10.0981 12.9375 9.87548 15.0273 9.56688 17.918L9.5161 18.3789C9.46923 18.5039 9.18798 19.0195 8.62548 19.2305C4.37548 20.8437 4.5786 23.9023 4.71142 25.9258C4.75439 26.5547 4.79735 27.2031 4.66064 27.4961C4.52782 27.7852 4.19189 28.1172 3.80907 28.5039C3.14501 29.1719 2.32079 30 1.84032 31.2578C0.887198 33.7461 2.61767 37.4102 3.55126 38.6992C5.53564 41.4336 8.43407 43.7773 11.0317 45.3242L11.9302 44.0898C9.71142 42.793 6.83642 40.6523 4.77782 37.8125C3.87939 36.5742 2.60204 33.5078 3.25439 31.8047C3.62157 30.8477 4.28954 30.1719 4.88329 29.5781C5.34814 29.1094 5.78954 28.668 6.03564 28.1406C6.33642 27.4961 6.28173 26.6875 6.22704 25.8281C6.09813 23.8789 5.96532 21.8672 9.16454 20.6523C10.3638 20.1953 10.9653 19.0781 11.02 18.582L11.0747 18.082C11.3716 15.3008 11.5356 13.7656 13.6372 12.2305C14.5474 11.5664 15.3716 11.2266 16.2388 10.8672C17.1255 10.5039 18.0434 10.1211 19.0708 9.40234L19.1059 9.36718C19.1216 9.35547 19.1372 9.34375 19.1567 9.33203L19.1489 9.32031C19.6958 8.74609 20.0083 8.01953 20.3091 7.3125C20.8442 6.05078 21.352 4.86328 23.1216 4.09765C26.0083 2.85156 28.2427 3.5 29.9145 6.07812C31.2036 8.50781 31.4145 10.5234 30.5591 12.2344C29.8989 13.5547 28.2349 14.6641 26.5161 14.9336C25.0356 15.1641 23.8677 15.2109 22.9106 13.918C22.5005 13.3672 22.1997 12.7422 21.8364 12.1602C21.7075 11.9531 21.52 11.7266 21.2778 11.7539C21.0044 11.7852 20.8833 12.1133 20.852 12.3867C20.6724 14.0234 21.9263 15.4922 22.977 16.6445C24.3481 18.1523 25.9653 19.4297 27.5434 20.7109C28.8989 21.8125 30.1763 22.8555 30.8364 23.6133C33.8716 27.1055 35.9809 32.5195 35.8599 33.5508C35.7856 34.0937 34.1059 35.9141 33.1177 36.3906C32.7466 36.5703 31.6724 36.6094 30.3559 35.9492C28.727 35.1328 27.227 33.8203 25.8559 32.6484C23.4849 30.6211 21.1606 28.2344 19.477 25.6133C19.3247 25.375 19.1138 25.1094 18.8325 25.1367C18.6841 25.1523 18.5591 25.2461 18.4458 25.3398C18.2544 25.4922 18.0669 25.6445 17.8755 25.7969C17.688 25.9492 17.4809 26.125 17.4575 26.3672C17.4263 26.6562 17.6645 26.8984 17.8833 27.0898C18.9731 28.0273 20.0083 28.7227 20.8833 29.8437C21.8364 31.0664 23.0356 32.1562 24.188 33.1836C25.145 34.0391 26.1411 34.8516 27.1684 35.6172C27.4731 35.8437 29.1567 36.7031 29.2309 37.0469C29.5083 38.2891 29.8325 40.9102 27.8794 41.7891C26.2661 42.5117 23.1606 42.3945 22.4341 42.0352C20.6802 41.1641 19.188 39.4844 17.813 38.1289C16.02 36.3633 13.8677 34.6328 12.5395 32.5C12.4809 32.4023 12.4067 32.293 12.2934 32.2773C12.1958 32.2656 12.1059 32.3242 12.0278 32.3828C11.8286 32.5273 11.6294 32.6719 11.4263 32.8164C11.2349 32.957 11.0278 33.1133 10.9731 33.3477C10.8872 33.6992 11.1841 34.0156 11.4653 34.2422C12.4497 35.0312 13.2895 35.625 14.1567 36.5508C15.02 37.4687 15.8989 38.375 16.7974 39.2617C18.2739 40.7188 19.8677 42.457 21.7544 43.3945C22.2114 43.6211 22.9614 43.7656 23.8247 43.8203C23.1997 45.7734 21.5864 46.5273 20.5942 46.5273C18.5825 46.5273 15.8716 45.9648 14.0083 45.1602C13.6333 45 12.1919 44.2148 11.6997 43.9492L10.8247 45.1953C11.3872 45.5 12.8989 46.3281 13.4067 46.5469C15.4731 47.4375 18.3599 48.0391 20.5942 48.0391C22.9497 48.0391 24.3091 46.3203 25.2309 44.3984C25.52 43.7969 25.7622 43.9375 26.4106 43.832C27.0122 43.7344 27.5903 43.5234 28.1333 43.2461C29.27 42.6602 30.2388 41.75 30.9731 40.707C31.4263 42.4609 33.02 43.8633 34.8169 44.0898C35.2974 44.1523 35.8716 44.1328 36.3208 43.9375C36.7778 43.7383 37.1489 43.375 37.4809 43.0117C39.4263 40.8711 41.2192 38.5742 43.8872 37.2734C44.8599 36.7969 45.9145 36.4531 46.7505 35.7656C48.6059 34.2422 48.7388 31.5664 48.0708 29.4453Z" fill="#EDA600"/>
<defs>
<radialGradient id="paint0_radial_600_4376" cx="0" cy="0" r="1" gradientUnits="userSpaceOnUse" gradientTransform="translate(26.5057 27.8629) scale(36.3516)">
<stop offset="0.595" stop-color="#FFCA28"/>
<stop offset="0.872" stop-color="#FFB300"/>
</radialGradient>
<linearGradient id="paint1_linear_600_4376" x1="41.0616" y1="29.6563" x2="30.4847" y2="15.1465" gradientUnits="userSpaceOnUse">
<stop stop-color="#FFB300" stop-opacity="0"/>
<stop offset="1" stop-color="#FFB300"/>
</linearGradient>
<linearGradient id="paint2_linear_600_4376" x1="31.2328" y1="44.5234" x2="25.7824" y2="39.0004" gradientUnits="userSpaceOnUse">
<stop offset="0.353" stop-color="#FFCA28"/>
<stop offset="0.872" stop-color="#FFB300"/>
</linearGradient>
</defs>
</svg>
