<svg width="24" height="24" viewBox="0 0 24 24" fill="none" xmlns="http://www.w3.org/2000/svg">
<g id="tabler:stars-filled">
<path id="Vector" d="M17.657 12.007C17.4235 12.031 17.1999 12.1138 17.007 12.2475C16.8142 12.3813 16.6583 12.5617 16.554 12.772L15.699 14.495L13.792 14.772C13.272 14.844 12.832 15.212 12.668 15.716L12.63 15.856C12.53 16.321 12.676 16.81 13.023 17.146L14.4 18.483L14.074 20.375C14.0313 20.6305 14.0606 20.8928 14.1587 21.1326C14.2569 21.3723 14.4199 21.5799 14.6295 21.7321C14.8392 21.8843 15.0871 21.975 15.3454 21.9941C15.6038 22.0131 15.8623 21.9598 16.092 21.84L17.8 20.945L19.508 21.841C19.7373 21.9614 19.9956 22.0154 20.254 21.9969C20.5123 21.9783 20.7603 21.888 20.97 21.736L21.082 21.646C21.2574 21.4888 21.39 21.2896 21.4673 21.0671C21.5446 20.8446 21.5641 20.6061 21.524 20.374L21.199 18.483L22.579 17.144C22.959 16.773 23.095 16.22 22.931 15.717L22.88 15.583C22.7843 15.3683 22.6356 15.1813 22.4479 15.0396C22.2603 14.898 22.0398 14.8062 21.807 14.773L19.9 14.495L19.047 12.773C18.9319 12.5407 18.7542 12.3452 18.5338 12.2086C18.3134 12.072 18.0593 11.9997 17.8 12L17.657 12.007ZM6.057 12.007C5.82351 12.031 5.59991 12.1138 5.40703 12.2475C5.21416 12.3813 5.05831 12.5617 4.954 12.772L4.099 14.495L2.192 14.772C1.672 14.844 1.232 15.212 1.068 15.716L1.03 15.856C0.929999 16.321 1.076 16.81 1.423 17.146L2.8 18.483L2.474 20.375C2.43126 20.6305 2.4606 20.8928 2.55874 21.1326C2.65688 21.3723 2.81992 21.5799 3.02955 21.7321C3.23917 21.8843 3.48709 21.975 3.74543 21.9941C4.00377 22.0131 4.26231 21.9598 4.492 21.84L6.2 20.945L7.908 21.841C8.13728 21.9614 8.39564 22.0154 8.65396 21.9969C8.91228 21.9783 9.16028 21.888 9.37 21.736L9.482 21.646C9.65741 21.4888 9.79 21.2896 9.86732 21.0671C9.94463 20.8446 9.96414 20.6061 9.924 20.374L9.6 18.483L10.98 17.144C11.36 16.773 11.496 16.22 11.332 15.717L11.281 15.583C11.1853 15.3683 11.0366 15.1813 10.8489 15.0396C10.6613 14.898 10.4408 14.8062 10.208 14.773L8.3 14.494L7.447 12.772C7.33178 12.5399 7.15395 12.3446 6.9336 12.2082C6.71325 12.0717 6.45916 11.9996 6.2 12L6.057 12.007ZM11.857 2.007C11.6235 2.03101 11.3999 2.11376 11.207 2.24753C11.0142 2.3813 10.8583 2.56173 10.754 2.772L9.899 4.495L7.992 4.772C7.472 4.844 7.032 5.212 6.868 5.716L6.83 5.856C6.73 6.321 6.876 6.81 7.223 7.146L8.6 8.483L8.274 10.375C8.23126 10.6305 8.2606 10.8928 8.35874 11.1326C8.45688 11.3723 8.61992 11.5799 8.82955 11.7321C9.03917 11.8843 9.28708 11.975 9.54543 11.9941C9.80377 12.0131 10.0623 11.9598 10.292 11.84L12 10.946L13.709 11.842C13.9383 11.9624 14.1966 12.0164 14.455 11.9979C14.7133 11.9793 14.9613 11.889 15.171 11.737L15.283 11.647C15.4584 11.4898 15.591 11.2906 15.6683 11.0681C15.7456 10.8456 15.7651 10.6071 15.725 10.375L15.4 8.483L16.78 7.144C17.16 6.773 17.296 6.22 17.132 5.717L17.081 5.583C16.9853 5.36826 16.8366 5.18131 16.6489 5.03965C16.4613 4.89799 16.2408 4.80624 16.008 4.773L14.1 4.494L13.247 2.772C13.1318 2.53987 12.954 2.34457 12.7336 2.20815C12.5133 2.07174 12.2592 1.99964 12 2L11.857 2.007Z" fill="url(#paint0_linear_164_286)"/>
</g>
<defs>
<linearGradient id="paint0_linear_164_286" x1="0.501196" y1="10.5705" x2="23.7041" y2="13.1414" gradientUnits="userSpaceOnUse">
<stop offset="3.01917e-07" stop-color="#006CD4"/>
<stop offset="0.2954" stop-color="#0675D5"/>
<stop offset="0.7849" stop-color="#168FD6"/>
<stop offset="1" stop-color="#1E9CD7"/>
</linearGradient>
</defs>
</svg>
