<svg width="50" height="50" viewBox="0 0 50 50" fill="none" xmlns="http://www.w3.org/2000/svg">
<path d="M24.8438 46.4062C13.9453 46.4062 2.1875 39.5703 2.1875 24.5703C2.1875 9.57031 13.9453 2.73438 24.8438 2.73438C30.8984 2.73438 36.4844 4.72656 40.625 8.35938C45.1172 12.3438 47.5 17.9688 47.5 24.5703C47.5 31.1719 45.1172 36.7578 40.625 40.7422C36.4844 44.375 30.8594 46.4062 24.8438 46.4062Z" fill="url(#paint0_radial_600_4382)"/>
<path d="M43.5508 11.5898C45.6328 14.9492 46.7188 18.9492 46.7188 23.3984C46.7188 30 44.3359 35.5859 39.8438 39.5703C35.7031 43.2031 30.0781 45.2344 24.0625 45.2344C17.0078 45.2344 9.60938 42.3633 5.24219 36.2734C9.44531 43.1719 17.3516 46.4062 24.8438 46.4062C30.8594 46.4062 36.4844 44.375 40.625 40.7422C45.1172 36.7578 47.5 31.1719 47.5 24.5703C47.5 19.5938 46.1445 15.1719 43.5508 11.5898Z" fill="#EB8F00"/>
<path d="M13.4255 37.7891C15.9255 33.4492 21.1912 31.6641 24.9997 31.6641C28.8083 31.6641 34.074 33.4492 36.574 37.7891C36.9255 38.4062 37.9294 38.1367 37.8162 37.4336C36.8552 31.5742 30.3943 28.2734 24.9997 28.0586C19.2966 27.8516 13.3083 31.9023 12.1833 37.4336C12.0466 38.125 13.074 38.4062 13.4255 37.7891ZM17.1872 15.9922C15.5505 15.9922 14.0622 17.375 14.0622 19.6719C14.0622 21.9688 15.5505 23.3477 17.1872 23.3477C18.8279 23.3477 20.3122 21.9648 20.3122 19.6719C20.3122 17.3789 18.8435 15.9922 17.1872 15.9922Z" fill="#422B0D"/>
<path d="M17.0513 17.5273C16.7838 17.4001 16.4769 17.3837 16.1974 17.4817C15.9179 17.5798 15.6884 17.7843 15.5591 18.0508C15.352 18.4844 15.4458 19.0039 15.7934 19.3398C16.3481 19.6055 17.0161 19.3711 17.2856 18.8164C17.4927 18.3828 17.3989 17.8633 17.0513 17.5273Z" fill="#896024"/>
<path d="M32.1875 15.9922C30.5508 15.9922 29.0625 17.375 29.0625 19.6719C29.0625 21.9688 30.5508 23.3477 32.1875 23.3477C33.8242 23.3477 35.3125 21.9648 35.3125 19.6719C35.3125 17.3789 33.8242 15.9922 32.1875 15.9922Z" fill="#422B0D"/>
<path d="M32.0317 17.5273C31.7642 17.4001 31.4573 17.3837 31.1778 17.4817C30.8983 17.5798 30.6689 17.7843 30.5395 18.0508C30.3325 18.4844 30.4263 19.0039 30.7739 19.3398C31.3286 19.6055 31.9966 19.3711 32.2661 18.8164C32.4731 18.3828 32.3794 17.8633 32.0317 17.5273Z" fill="#896024"/>
<defs>
<radialGradient id="paint0_radial_600_4382" cx="0" cy="0" r="1" gradientUnits="userSpaceOnUse" gradientTransform="translate(24.8437 24.5703) scale(22.25)">
<stop offset="0.5" stop-color="#FDE030"/>
<stop offset="0.92" stop-color="#F7C02B"/>
<stop offset="1" stop-color="#F4A223"/>
</radialGradient>
</defs>
</svg>
