<svg width="20" height="20" viewBox="0 0 20 20" fill="none" xmlns="http://www.w3.org/2000/svg">
<g id="Search 1">
<path id="Vector" d="M16.3636 14.4697C16.0707 14.1768 15.5958 14.1768 15.3029 14.4697C15.01 14.7626 15.01 15.2374 15.3029 15.5303L16.3636 14.4697ZM18.6361 18.8636C18.929 19.1565 19.4039 19.1565 19.6968 18.8636C19.9897 18.5707 19.9897 18.0959 19.6968 17.803L18.6361 18.8636ZM7.79866 4.12531C8.20777 4.06052 8.48689 3.67634 8.4221 3.26722C8.3573 2.85811 7.97312 2.57898 7.564 2.64378L7.79866 4.12531ZM3.47701 6.73078C3.41221 7.13989 3.69133 7.52407 4.10045 7.58887C4.50956 7.65367 4.89374 7.37454 4.95854 6.96543L3.47701 6.73078ZM15.3029 15.5303L18.6361 18.8636L19.6968 17.803L16.3636 14.4697L15.3029 15.5303ZM9.1665 15.0833C5.43858 15.0833 2.4165 12.0612 2.4165 8.33325H0.916504C0.916504 12.8896 4.61015 16.5833 9.1665 16.5833V15.0833ZM15.9165 8.33325C15.9165 12.0612 12.8944 15.0833 9.1665 15.0833V16.5833C13.7229 16.5833 17.4165 12.8896 17.4165 8.33325H15.9165ZM9.1665 1.58325C12.8944 1.58325 15.9165 4.60533 15.9165 8.33325H17.4165C17.4165 3.7769 13.7229 0.083252 9.1665 0.083252V1.58325ZM9.1665 0.083252C4.61015 0.083252 0.916504 3.7769 0.916504 8.33325H2.4165C2.4165 4.60533 5.43858 1.58325 9.1665 1.58325V0.083252ZM7.564 2.64378C5.4602 2.97699 3.81022 4.62697 3.47701 6.73078L4.95854 6.96543C5.19009 5.50346 6.33669 4.35687 7.79866 4.12531L7.564 2.64378Z" fill="#2D264B"/>
</g>
</svg>
