<svg width="18" height="18" viewBox="0 0 18 18" fill="none" xmlns="http://www.w3.org/2000/svg">
<g id="solar:shop-linear">
<g id="Group">
<path id="Vector" d="M2.625 8.25V10.5C2.625 13.3282 2.625 14.7427 3.504 15.621C4.383 16.4992 5.79675 16.5 8.625 16.5H9.375C12.2032 16.5 13.6177 16.5 14.496 15.621C15.3742 14.742 15.375 13.3282 15.375 10.5V8.25" stroke="black" stroke-width="1.125"/>
<path id="Vector_2" d="M7.12501 1.5H10.875L11.364 6.38775C11.3962 6.71757 11.3591 7.05049 11.2549 7.36509C11.1508 7.6797 10.982 7.96903 10.7593 8.21449C10.5367 8.45994 10.2651 8.65609 9.96212 8.79032C9.65913 8.92456 9.3314 8.9939 9.00001 8.9939C8.66861 8.9939 8.34089 8.92456 8.0379 8.79032C7.73491 8.65609 7.46336 8.45994 7.24071 8.21449C7.01806 7.96903 6.84923 7.6797 6.74509 7.36509C6.64095 7.05049 6.60379 6.71757 6.63601 6.38775L7.12501 1.5Z" stroke="black" stroke-width="1.125"/>
<path id="Vector_3" d="M2.49752 4.01325C2.63102 3.34575 2.69777 3.012 2.83352 2.74125C2.97496 2.45928 3.17412 2.2102 3.41807 2.01019C3.66201 1.81017 3.94529 1.66369 4.24952 1.58025C4.54202 1.5 4.88252 1.5 5.56352 1.5H7.12502L6.58127 6.93375C6.55257 7.24472 6.46071 7.54657 6.31131 7.8208C6.16191 8.09504 5.95811 8.3359 5.71238 8.52864C5.46666 8.72138 5.18419 8.86194 4.88226 8.94172C4.58033 9.0215 4.26529 9.03881 3.95643 8.99261C3.64758 8.94641 3.3514 8.83766 3.08603 8.67301C2.82067 8.50837 2.59169 8.2913 2.41313 8.03509C2.23457 7.77888 2.11018 7.48892 2.04757 7.18297C1.98496 6.87702 1.98545 6.56151 2.04902 6.25575L2.49752 4.01325ZM15.5025 4.01325C15.369 3.34575 15.3023 3.012 15.1665 2.74125C15.0251 2.45928 14.8259 2.2102 14.582 2.01019C14.338 1.81017 14.0547 1.66369 13.7505 1.58025C13.458 1.5 13.1175 1.5 12.4365 1.5H10.875L11.4188 6.93375C11.4475 7.24472 11.5393 7.54657 11.6887 7.8208C11.8381 8.09504 12.0419 8.3359 12.2877 8.52864C12.5334 8.72138 12.8158 8.86194 13.1178 8.94172C13.4197 9.0215 13.7347 9.03881 14.0436 8.99261C14.3525 8.94641 14.6486 8.83766 14.914 8.67301C15.1794 8.50837 15.4083 8.2913 15.5869 8.03509C15.7655 7.77888 15.8899 7.48892 15.9525 7.18297C16.0151 6.87702 16.0146 6.56151 15.951 6.25575L15.5025 4.01325Z" stroke="black" stroke-width="1.125"/>
<path id="Vector_4" d="M7.125 16.125V13.875C7.125 13.1737 7.125 12.8235 7.27575 12.5625C7.37449 12.3915 7.51649 12.2495 7.6875 12.1508C7.9485 12 8.29875 12 9 12C9.70125 12 10.0515 12 10.3125 12.1508C10.4835 12.2495 10.6255 12.3915 10.7242 12.5625C10.875 12.8235 10.875 13.1737 10.875 13.875V16.125" stroke="black" stroke-width="1.125" stroke-linecap="round"/>
</g>
</g>
</svg>
