<svg width="50" height="50" viewBox="0 0 50 50" fill="none" xmlns="http://www.w3.org/2000/svg">
<g id="noto:beaming-face-with-smiling-eyes">
<path id="Vector" d="M24.8438 46.4062C13.9453 46.4062 2.1875 39.5703 2.1875 24.5703C2.1875 9.57031 13.9453 2.73438 24.8438 2.73438C30.8984 2.73438 36.4844 4.72656 40.625 8.35938C45.1172 12.3438 47.5 17.9688 47.5 24.5703C47.5 31.1719 45.1172 36.7578 40.625 40.7422C36.4844 44.375 30.8594 46.4062 24.8438 46.4062Z" fill="url(#paint0_radial_600_4393)"/>
<path id="Vector_2" d="M43.5508 11.5898C45.6328 14.9492 46.7188 18.9492 46.7188 23.3984C46.7188 30 44.3359 35.5859 39.8438 39.5703C35.7031 43.2031 30.0781 45.2344 24.0625 45.2344C17.0078 45.2344 9.60938 42.3633 5.24219 36.2734C9.44531 43.1719 17.3516 46.4062 24.8438 46.4062C30.8594 46.4062 36.4844 44.375 40.625 40.7422C45.1172 36.7578 47.5 31.1719 47.5 24.5703C47.5 19.5938 46.1445 15.1719 43.5508 11.5898Z" fill="#EB8F00"/>
<path id="Vector_3" d="M39.7261 28.207C39.4612 27.7305 39.0334 27.3654 38.521 27.1789C38.0087 26.9923 37.4463 26.9968 36.937 27.1914C33.4214 28.2851 29.1245 28.6875 24.7964 28.6914C20.6209 28.7088 16.4648 28.1233 12.4566 26.9531C11.9473 26.7585 11.3849 26.754 10.8726 26.9406C10.3602 27.1271 9.93239 27.4922 9.66751 27.9687C9.13626 28.9492 9.52297 30.0859 9.96829 31.0664C12.4995 36.582 18.0073 39.8789 24.7652 39.8984H24.8277C31.5855 39.8984 36.9136 36.8125 39.4253 31.3047C39.8706 30.3242 40.2573 29.1875 39.7261 28.207Z" fill="white"/>
<path id="Vector_4" d="M19.1404 22.2227L19.0818 22.1445L18.9139 21.9297L18.7068 21.707C18.6209 21.6094 18.5193 21.5156 18.4217 21.4141C18.324 21.3125 18.2029 21.2148 18.0936 21.1328C17.992 21.0547 17.8826 20.9805 17.7654 20.9219C17.6873 20.8789 17.6014 20.8438 17.5115 20.8242C17.4843 20.8203 17.4567 20.8203 17.4295 20.8242H17.3631H17.4686H17.2537C17.1951 20.8242 17.2342 20.8242 17.2537 20.8242H17.285C17.285 20.8242 17.3162 20.8242 17.285 20.8242H17.242C17.1522 20.8438 17.0662 20.875 16.9842 20.9219C16.8709 20.9844 16.7576 21.0547 16.6561 21.1328C16.5428 21.2187 16.4334 21.3125 16.3318 21.4141C16.1248 21.6133 15.9412 21.8047 15.824 21.957L15.6209 22.1914L15.5311 22.2969C15.2589 22.6003 14.8842 22.7925 14.479 22.8364C14.0738 22.8804 13.6667 22.7731 13.3357 22.5352C13.1214 22.3859 12.9538 22.179 12.8522 21.9385C12.7505 21.6979 12.7191 21.4335 12.7615 21.1758C12.7615 21.1758 12.7889 21.0195 12.8631 20.7422C12.9803 20.3477 13.1443 19.9648 13.3514 19.6055C13.6834 19.0195 14.1326 18.5078 14.6717 18.1016C15.0272 17.8281 15.4217 17.6094 15.8436 17.457C15.9607 17.4102 16.0818 17.375 16.2029 17.3438C16.3318 17.3047 16.4607 17.2773 16.5936 17.2539L16.8318 17.2188L17.0311 17.1953H17.7537C17.8865 17.1953 18.0154 17.2305 18.1443 17.25C18.3943 17.293 18.6443 17.3594 18.8826 17.4492C19.3045 17.6016 19.699 17.8203 20.0545 18.0937C20.5936 18.5 21.0428 19.0117 21.3748 19.5977C21.4959 19.8008 21.6014 20.0156 21.6873 20.2344C21.7615 20.4102 21.824 20.5859 21.8748 20.7695C21.9022 20.8633 21.9256 20.957 21.9373 21.0508V21.1484C22.0545 21.9453 21.4998 22.6875 20.7029 22.8047C20.6834 22.8086 20.6639 22.8086 20.6443 22.8125C20.074 22.8945 19.5037 22.668 19.1404 22.2227ZM34.5545 22.2227L34.492 22.1445L34.324 21.9297L34.117 21.707C34.0311 21.6094 33.9295 21.5156 33.8318 21.4141C33.7342 21.3125 33.6131 21.2148 33.5037 21.1328C33.4022 21.0547 33.2928 20.9805 33.1756 20.9219C33.0975 20.8789 33.0115 20.8438 32.9217 20.8242C32.8945 20.8203 32.8669 20.8203 32.8397 20.8242H32.7732H32.8787H32.6639C32.6053 20.8242 32.6443 20.8242 32.6639 20.8242H32.6951C32.6951 20.8242 32.7264 20.8242 32.6951 20.8242H32.6522C32.5623 20.8438 32.4764 20.875 32.3943 20.9219C32.2811 20.9805 32.1717 21.0547 32.0701 21.1328C31.9529 21.2187 31.8436 21.3125 31.742 21.4141C31.535 21.6133 31.3514 21.8047 31.2342 21.957L31.0311 22.1914L30.9451 22.2969C30.6722 22.6004 30.2969 22.7925 29.8911 22.8365C29.4853 22.8804 29.0775 22.7731 28.7459 22.5352C28.5316 22.3859 28.3639 22.179 28.2623 21.9385C28.1607 21.6979 28.1293 21.4335 28.1717 21.1758C28.1717 21.1758 28.199 21.0195 28.2772 20.7422C28.3943 20.3437 28.5545 19.9609 28.7654 19.6055C29.0975 19.0195 29.5428 18.5078 30.0818 18.1016C30.4373 17.8281 30.8318 17.6094 31.2537 17.457C31.3709 17.4102 31.492 17.375 31.6131 17.3438C31.742 17.3047 31.8709 17.2773 32.0037 17.2539L32.2459 17.2188L32.4412 17.1953H33.1639C33.2967 17.1953 33.4256 17.2305 33.5545 17.25C33.8084 17.293 34.0545 17.3594 34.2928 17.4492C34.7147 17.6016 35.1092 17.8203 35.4647 18.0937C36.0037 18.5 36.4529 19.0117 36.785 19.5977C36.9061 19.8008 37.0115 20.0156 37.0975 20.2344C37.1717 20.4062 37.2342 20.582 37.285 20.7617C37.3123 20.8555 37.3357 20.9492 37.3475 21.043V21.1406C37.407 21.5234 37.312 21.9142 37.0835 22.227C36.8549 22.5398 36.5115 22.749 36.1287 22.8086C36.117 22.8086 36.1053 22.8125 36.0936 22.8125C35.5115 22.9102 34.9217 22.6836 34.5545 22.2227Z" fill="#422B0D"/>
<path id="Vector_5" d="M39.4102 29.6211C39.375 29.6445 36.9883 31.4297 32.5 32.5859V28.1719C31.9883 28.25 31.4648 28.3164 30.9375 28.375V32.9375C29.1211 33.2969 27.2734 33.4961 25.4219 33.5352V28.6836H23.8594V33.5352C24.0273 33.5391 24.0273 33.543 23.8594 33.543L23.8516 33.5352C22.043 33.5039 20.2422 33.332 18.4609 33.0156V28.2539C17.9297 28.1836 17.4102 28.1016 16.8984 28.0117V32.6875C12.2812 31.5898 9.96094 29.8359 9.92969 29.8086C9.80024 29.7066 9.64133 29.649 9.47656 29.6445C9.58594 30.1367 9.75 30.6172 9.96875 31.0742C10.1055 31.375 10.2539 31.6641 10.4102 31.9531C12.4522 33.035 14.6364 33.824 16.8984 34.2969V38.1484C17.4062 38.3945 17.9297 38.6172 18.4609 38.8086V34.6094C20.2422 34.9062 22.0469 35.0703 23.8516 35.0977L23.8594 35.1055H23.8516V39.875C24.1523 39.875 24.457 39.9063 24.7656 39.9063H25.4141V35.0977H25.3906H25.4141C27.2656 35.0625 29.1133 34.875 30.9375 34.5391V38.918C31.4687 38.7383 31.9922 38.5273 32.5 38.2891V34.207C34.8828 33.6602 37.1758 32.7656 39.3008 31.5547C39.3398 31.4688 39.3867 31.3906 39.4258 31.3047C39.7109 30.7266 39.8984 30.1055 39.9727 29.4648C39.7734 29.4414 39.5703 29.5 39.4102 29.6211Z" fill="#B3B3B3"/>
<path id="Vector_6" d="M39.8872 27.9804C39.619 27.5019 39.1883 27.1352 38.6731 26.9467C38.1579 26.7583 37.5923 26.7605 37.0786 26.9531C33.0708 28.1211 28.9145 28.7031 24.7426 28.6836C20.5675 28.7036 16.4114 28.1208 12.4028 26.9531C11.894 26.7597 11.3325 26.7559 10.8211 26.9424C10.3097 27.1289 9.88254 27.4932 9.61764 27.9687C9.08639 28.9492 9.4692 30.0859 9.91842 31.0664C10.1176 31.5078 10.3403 31.9414 10.5864 32.3593C10.5864 32.3593 9.76608 29.3203 10.477 28.4375C10.5962 28.2529 10.7575 28.0993 10.9476 27.9892C11.1378 27.8792 11.3514 27.816 11.5708 27.8047C11.7544 27.8047 11.934 27.8359 12.1098 27.8906C16.188 29.0898 20.4184 29.6953 24.6723 29.6875H24.809C29.063 29.6953 33.2934 29.0898 37.3715 27.8906C37.5473 27.8359 37.727 27.8047 37.9106 27.8047C38.3559 27.8281 38.7661 28.0625 39.0083 28.4375C39.7309 29.3203 38.8989 32.3711 38.8989 32.3711C39.1411 31.9531 39.3833 31.5234 39.5864 31.0781C40.0317 30.0976 40.4184 28.9648 39.8872 27.9804Z" fill="#EB8F00"/>
</g>
<defs>
<radialGradient id="paint0_radial_600_4393" cx="0" cy="0" r="1" gradientUnits="userSpaceOnUse" gradientTransform="translate(24.8437 24.5703) scale(22.25)">
<stop offset="0.5" stop-color="#FDE030"/>
<stop offset="0.92" stop-color="#F7C02B"/>
<stop offset="1" stop-color="#F4A223"/>
</radialGradient>
</defs>
</svg>
