<svg width="18" height="18" viewBox="0 0 18 18" fill="none" xmlns="http://www.w3.org/2000/svg">
<g id="Upload">
<path id="Vector" d="M4.61634 17.1936L4.49902 17.9343H4.49902L4.61634 17.1936ZM0.806428 13.3837L1.54719 13.2663L0.806428 13.3837ZM17.1936 13.3837L17.9343 13.501V13.501L17.1936 13.3837ZM13.3837 17.1936L13.501 17.9343H13.501L13.3837 17.1936ZM16.9333 7.6329C16.6846 7.30171 16.2144 7.23489 15.8832 7.48366C15.552 7.73242 15.4852 8.20257 15.734 8.53376L16.9333 7.6329ZM2.26601 8.53376C2.51477 8.20257 2.44796 7.73242 2.11676 7.48366C1.78557 7.23489 1.31542 7.30171 1.06666 7.6329L2.26601 8.53376ZM8.25 13.5833C8.25 13.9975 8.58579 14.3333 9 14.3333C9.41422 14.3333 9.75 13.9975 9.75 13.5833H8.25ZM4.74565 3.9507C4.4883 4.27527 4.5428 4.747 4.86736 5.00435C5.19193 5.2617 5.66367 5.20721 5.92102 4.88264L4.74565 3.9507ZM6.61469 2.80061L6.02701 2.33464L6.61469 2.80061ZM11.3853 2.80061L11.973 2.33464L11.3853 2.80061ZM12.079 4.88264C12.3363 5.20721 12.8081 5.2617 13.1326 5.00435C13.4572 4.747 13.5117 4.27527 13.2544 3.9507L12.079 4.88264ZM8.77022 0.768232L8.65222 0.0275738L8.65222 0.0275741L8.77022 0.768232ZM9.22978 0.768232L9.34779 0.0275742L9.34778 0.0275739L9.22978 0.768232ZM16.5 10.8333V11.75H18V10.8333H16.5ZM11.75 16.5H6.25V18H11.75V16.5ZM1.5 11.75V10.8333H0V11.75H1.5ZM6.25 16.5C5.36975 16.5 5.01695 16.4977 4.73367 16.4528L4.49902 17.9343C4.92829 18.0023 5.42707 18 6.25 18V16.5ZM0 11.75C0 12.5729 -0.00232762 13.0717 0.0656622 13.501L1.54719 13.2663C1.50233 12.9831 1.5 12.6302 1.5 11.75H0ZM4.73367 16.4528C3.09341 16.193 1.80699 14.9066 1.54719 13.2663L0.0656622 13.501C0.42711 15.7831 2.21692 17.5729 4.49902 17.9343L4.73367 16.4528ZM16.5 11.75C16.5 12.6302 16.4977 12.9831 16.4528 13.2663L17.9343 13.501C18.0023 13.0717 18 12.5729 18 11.75H16.5ZM11.75 18C12.5729 18 13.0717 18.0023 13.501 17.9343L13.2663 16.4528C12.9831 16.4977 12.6302 16.5 11.75 16.5V18ZM16.4528 13.2663C16.193 14.9066 14.9066 16.193 13.2663 16.4528L13.501 17.9343C15.7831 17.5729 17.5729 15.7831 17.9343 13.501L16.4528 13.2663ZM18 10.8333C18 9.63355 17.6029 8.52434 16.9333 7.6329L15.734 8.53376C16.2152 9.17437 16.5 9.9695 16.5 10.8333H18ZM1.5 10.8333C1.5 9.96951 1.78483 9.17437 2.26601 8.53376L1.06666 7.6329C0.397069 8.52434 0 9.63355 0 10.8333H1.5ZM9.75 13.5833V1.66667H8.25V13.5833H9.75ZM5.92102 4.88264L7.20238 3.26658L6.02701 2.33464L4.74565 3.9507L5.92102 4.88264ZM10.7976 3.26658L12.079 4.88264L13.2544 3.9507L11.973 2.33464L10.7976 3.26658ZM7.20238 3.26658C7.72469 2.60784 8.07733 2.16494 8.37348 1.86765C8.66629 1.57371 8.81035 1.5213 8.88823 1.50889L8.65222 0.0275741C8.10735 0.114386 7.68459 0.433778 7.31078 0.809033C6.94031 1.18093 6.52656 1.70461 6.02701 2.33464L7.20238 3.26658ZM11.973 2.33464C11.4734 1.70461 11.0597 1.18093 10.6892 0.809034C10.3154 0.433779 9.89265 0.114386 9.34779 0.0275742L9.11177 1.50889C9.18965 1.5213 9.33372 1.57371 9.62652 1.86765C9.92267 2.16494 10.2753 2.60784 10.7976 3.26658L11.973 2.33464ZM8.88823 1.50889C8.92563 1.50293 8.96292 1.5 9 1.5V0C8.88359 0 8.76739 0.0092237 8.65222 0.0275738L8.88823 1.50889ZM9 1.5C9.03708 1.5 9.07437 1.50293 9.11177 1.50889L9.34778 0.0275739C9.23261 0.00922376 9.11641 0 9 0V1.5ZM9.75 1.66667V0.75H8.25V1.66667H9.75Z" fill="black"/>
</g>
</svg>
