<svg width="21" height="23" viewBox="0 0 21 23" fill="none" xmlns="http://www.w3.org/2000/svg">
<g id="User Tag">
<path id="Vector" d="M7.03235 19.2305L6.49198 19.7506L6.49198 19.7506L7.03235 19.2305ZM7.02379 19.2217L6.48631 19.7448L7.02379 19.2217ZM6.25342 18.8939L6.25756 18.1439L6.25342 18.8939ZM14.7466 18.8939L14.7424 18.1439L14.7466 18.8939ZM13.9677 19.2305L13.4273 18.7104L13.9677 19.2305ZM13.9762 19.2217L14.5137 19.7448L13.9762 19.2217ZM13.6221 19.5895L14.1625 20.1096L13.6221 19.5895ZM7.37789 19.5895L7.91825 19.0694L7.91825 19.0694L7.37789 19.5895ZM10.5 21.8756V22.6256V21.8756ZM0.750315 13.5357L0.000359118 13.5438L0.750315 13.5357ZM6.10821 18.8936L6.10012 19.6435L6.10821 18.8936ZM20.2497 13.5357L20.9996 13.5438L20.2497 13.5357ZM14.8918 18.8936L14.8999 19.6435L14.8918 18.8936ZM17.4293 1.8292L17.0698 2.48746L17.4293 1.8292ZM19.5874 3.98736L18.9292 4.3468L19.5874 3.98736ZM3.57073 1.8292L3.93017 2.48746L3.57073 1.8292ZM1.41257 3.98736L2.07083 4.3468H2.07083L1.41257 3.98736ZM3.20888 18.0157L2.79883 18.6437L3.20888 18.0157ZM17.7911 18.0157L18.2012 18.6437L17.7911 18.0157ZM14.0833 7.66663C14.0833 9.64565 12.479 11.25 10.5 11.25V12.75C13.3074 12.75 15.5833 10.4741 15.5833 7.66663H14.0833ZM10.5 11.25C8.52098 11.25 6.91667 9.64565 6.91667 7.66663H5.41667C5.41667 10.4741 7.69255 12.75 10.5 12.75V11.25ZM6.91667 7.66663C6.91667 5.68761 8.52098 4.08329 10.5 4.08329V2.58329C7.69255 2.58329 5.41667 4.85918 5.41667 7.66663H6.91667ZM10.5 4.08329C12.479 4.08329 14.0833 5.68761 14.0833 7.66663H15.5833C15.5833 4.85918 13.3074 2.58329 10.5 2.58329V4.08329ZM9.61364 1.91663H11.3864V0.416626H9.61364V1.91663ZM19.5 10.0303V13.4028H21V10.0303H19.5ZM1.5 13.4028V10.0303H0V13.4028H1.5ZM13.4273 18.7104L13.0817 19.0694L14.1625 20.1096L14.508 19.7506L13.4273 18.7104ZM7.91825 19.0694L7.57271 18.7104L6.49198 19.7506L6.83753 20.1096L7.91825 19.0694ZM7.57271 18.7104C7.56907 18.7067 7.56517 18.7026 7.56128 18.6986L6.48631 19.7448C6.48659 19.745 6.487 19.7455 6.49198 19.7506L7.57271 18.7104ZM6.2411 19.6439C6.24814 19.6439 6.24883 19.6439 6.24927 19.6439L6.25756 18.1439C6.25201 18.1439 6.24648 18.1439 6.2411 18.1439V19.6439ZM7.56128 18.6986C7.21859 18.3465 6.7489 18.1466 6.25756 18.1439L6.24927 19.6439C6.3386 19.6444 6.424 19.6807 6.48631 19.7448L7.56128 18.6986ZM14.7589 18.1439C14.7535 18.1439 14.748 18.1439 14.7424 18.1439L14.7507 19.6439C14.7512 19.6439 14.7519 19.6439 14.7589 19.6439V18.1439ZM14.508 19.7506C14.5127 19.7457 14.5133 19.7451 14.5137 19.7448L13.4387 18.6986C13.4349 18.7025 13.4312 18.7064 13.4273 18.7104L14.508 19.7506ZM14.7424 18.1439C14.2511 18.1466 13.7814 18.3465 13.4387 18.6986L14.5137 19.7448C14.576 19.6807 14.6614 19.6444 14.7507 19.6439L14.7424 18.1439ZM13.0817 19.0694C12.3333 19.847 11.824 20.3738 11.3915 20.7157C10.9761 21.0441 10.7239 21.1256 10.5 21.1256V22.6256C11.198 22.6256 11.7733 22.326 12.3218 21.8924C12.8532 21.4723 13.444 20.8561 14.1625 20.1096L13.0817 19.0694ZM6.83752 20.1096C7.55596 20.8561 8.1468 21.4723 8.67822 21.8924C9.2267 22.326 9.80205 22.6256 10.5 22.6256V21.1256C10.2761 21.1256 10.0239 21.0441 9.60847 20.7157C9.17599 20.3738 8.66668 19.847 7.91825 19.0694L6.83752 20.1096ZM0 13.4028C0 13.47 -1.10269e-05 13.5095 0.000359118 13.5438L1.50027 13.5276C1.50001 13.5034 1.5 13.4739 1.5 13.4028H0ZM6.2411 18.1439C6.17001 18.1439 6.14046 18.1439 6.11631 18.1436L6.10012 19.6435C6.13442 19.6439 6.17397 19.6439 6.2411 19.6439V18.1439ZM19.5 13.4028C19.5 13.4739 19.5 13.5034 19.4997 13.5276L20.9996 13.5438C21 13.5095 21 13.47 21 13.4028H19.5ZM14.7589 19.6439C14.826 19.6439 14.8656 19.6439 14.8999 19.6435L14.8837 18.1436C14.8595 18.1439 14.83 18.1439 14.7589 18.1439V19.6439ZM11.3864 1.91663C13.0093 1.91663 14.1787 1.91728 15.0955 1.99665C16.0026 2.07519 16.592 2.22653 17.0698 2.48746L17.7887 1.17094C17.0531 0.769296 16.2309 0.589345 15.2249 0.502243C14.2284 0.415971 12.983 0.416626 11.3864 0.416626V1.91663ZM21 10.0303C21 8.43359 21.0007 7.18822 20.9144 6.19177C20.8273 5.18574 20.6473 4.36348 20.2457 3.62792L18.9292 4.3468C19.1901 4.82465 19.3414 5.414 19.42 6.32116C19.4993 7.2379 19.5 8.40728 19.5 10.0303H21ZM17.0698 2.48746C17.855 2.9162 18.5004 3.56161 18.9292 4.3468L20.2457 3.62792C19.6791 2.59035 18.8263 1.7375 17.7887 1.17094L17.0698 2.48746ZM9.61364 0.416626C8.01696 0.416626 6.7716 0.415971 5.77515 0.502243C4.76912 0.589345 3.94685 0.769296 3.2113 1.17094L3.93017 2.48746C4.40802 2.22653 4.99738 2.07519 5.90453 1.99665C6.82127 1.91728 7.99066 1.91663 9.61364 1.91663V0.416626ZM1.5 10.0303C1.5 8.40728 1.50066 7.23789 1.58003 6.32116C1.65857 5.414 1.8099 4.82465 2.07083 4.3468L0.754314 3.62792C0.35267 4.36348 0.172719 5.18574 0.085617 6.19177C-0.000655353 7.18822 0 8.43358 0 10.0303H1.5ZM3.2113 1.17094C2.17373 1.7375 1.32087 2.59035 0.754314 3.62792L2.07083 4.3468C2.49958 3.56161 3.14498 2.9162 3.93017 2.48746L3.2113 1.17094ZM7.25 16H13.75V14.5H7.25V16ZM7.25 14.5C5.08985 14.5 3.24617 15.8471 2.5097 17.7444L3.90805 18.2871C4.42804 16.9475 5.72928 16 7.25 16V14.5ZM0.000359118 13.5438C0.0234217 15.6807 1.13255 17.5557 2.79883 18.6437L3.61892 17.3878C2.35482 16.5624 1.51771 15.1435 1.50027 13.5276L0.000359118 13.5438ZM2.79883 18.6437C3.74997 19.2648 4.88367 19.6304 6.10012 19.6435L6.11631 18.1436C5.19393 18.1337 4.33788 17.8572 3.61892 17.3878L2.79883 18.6437ZM13.75 16C15.2707 16 16.572 16.9475 17.092 18.2871L18.4903 17.7443C17.7538 15.8471 15.9102 14.5 13.75 14.5V16ZM19.4997 13.5276C19.4823 15.1435 18.6452 16.5624 17.3811 17.3878L18.2012 18.6437C19.8674 17.5557 20.9766 15.6807 20.9996 13.5438L19.4997 13.5276ZM17.3811 17.3878C16.6621 17.8572 15.8061 18.1337 14.8837 18.1436L14.8999 19.6435C16.1163 19.6304 17.25 19.2648 18.2012 18.6437L17.3811 17.3878Z" fill="#2D264B"/>
</g>
</svg>
