<svg width="12" height="13" viewBox="0 0 12 13" fill="none" xmlns="http://www.w3.org/2000/svg">
<g id="mdi:world">
<path id="Vector" d="M8.95 9.195C8.82 8.795 8.445 8.5 8 8.5H7.5V7C7.5 6.86739 7.44732 6.74021 7.35355 6.64645C7.25979 6.55268 7.13261 6.5 7 6.5H4V5.5H5C5.13261 5.5 5.25979 5.44732 5.35355 5.35355C5.44732 5.25979 5.5 5.13261 5.5 5V4H6.5C6.76522 4 7.01957 3.89464 7.20711 3.70711C7.39464 3.51957 7.5 3.26522 7.5 3V2.795C8.09824 3.03618 8.62912 3.41874 9.04721 3.90992C9.4653 4.4011 9.75815 4.98627 9.90067 5.61536C10.0432 6.24444 10.0312 6.89869 9.8656 7.5221C9.70003 8.14552 9.38587 8.71953 8.95 9.195ZM5.5 10.465C3.525 10.22 2 8.54 2 6.5C2 6.19 2.04 5.89 2.105 5.605L4.5 8V8.5C4.5 8.76522 4.60536 9.01957 4.79289 9.20711C4.98043 9.39464 5.23478 9.5 5.5 9.5M6 1.5C5.34339 1.5 4.69321 1.62933 4.08658 1.8806C3.47995 2.13188 2.92876 2.50017 2.46447 2.96447C1.52678 3.90215 1 5.17392 1 6.5C1 7.82608 1.52678 9.09785 2.46447 10.0355C2.92876 10.4998 3.47995 10.8681 4.08658 11.1194C4.69321 11.3707 5.34339 11.5 6 11.5C7.32608 11.5 8.59785 10.9732 9.53553 10.0355C10.4732 9.09785 11 7.82608 11 6.5C11 5.84339 10.8707 5.19321 10.6194 4.58658C10.3681 3.97995 9.99983 3.42876 9.53553 2.96447C9.07124 2.50017 8.52005 2.13188 7.91342 1.8806C7.30679 1.62933 6.65661 1.5 6 1.5Z" fill="black"/>
</g>
</svg>
